<?xml version="1.0" encoding="UTF-8" standalone="no"?>
<!DOCTYPE svg PUBLIC "-//W3C//DTD SVG 1.1//EN"
 "http://www.w3.org/Graphics/SVG/1.1/DTD/svg11.dtd">
<!-- Generated by graphviz version 14.1.5 (20260411.2331)
 -->
<!-- Title: starmap Pages: 1 -->
<svg width="2398pt" height="822pt"
 viewBox="0.00 0.00 2398.00 822.00" xmlns="http://www.w3.org/2000/svg" xmlns:xlink="http://www.w3.org/1999/xlink">
<g id="graph0" class="graph" transform="scale(1 1) rotate(0) translate(4 818)">
<title>starmap</title>
<polygon fill="white" stroke="none" points="-4,4 -4,-818 2394,-818 2394,4 -4,4"/>
<g id="clust1" class="cluster">
<title>cluster_cross_paper</title>
<path fill="#fafafa" stroke="#999999" d="M1240,-8C1240,-8 1666,-8 1666,-8 1672,-8 1678,-14 1678,-20 1678,-20 1678,-69.5 1678,-69.5 1678,-75.5 1672,-81.5 1666,-81.5 1666,-81.5 1240,-81.5 1240,-81.5 1234,-81.5 1228,-75.5 1228,-69.5 1228,-69.5 1228,-20 1228,-20 1228,-14 1234,-8 1240,-8"/>
<text xml:space="preserve" text-anchor="middle" x="1453" y="-67.05" font-family="Times,serif" font-size="11.00">cross_paper</text>
</g>
<g id="clust2" class="cluster">
<title>cluster_paper_drummond2009_fermi_fluid</title>
<path fill="#fafafa" stroke="#999999" d="M612,-443C612,-443 1342,-443 1342,-443 1348,-443 1354,-449 1354,-455 1354,-455 1354,-648.5 1354,-648.5 1354,-654.5 1348,-660.5 1342,-660.5 1342,-660.5 612,-660.5 612,-660.5 606,-660.5 600,-654.5 600,-648.5 600,-648.5 600,-455 600,-455 600,-449 606,-443 612,-443"/>
<text xml:space="preserve" text-anchor="middle" x="977" y="-646.05" font-family="Times,serif" font-size="11.00">paper_drummond2009_fermi_fluid</text>
</g>
<g id="clust3" class="cluster">
<title>cluster_paper_drummond2012_effective_mass</title>
<path fill="#fafafa" stroke="#999999" d="M672,-153.5C672,-153.5 1154,-153.5 1154,-153.5 1160,-153.5 1166,-159.5 1166,-165.5 1166,-165.5 1166,-359 1166,-359 1166,-365 1160,-371 1154,-371 1154,-371 672,-371 672,-371 666,-371 660,-365 660,-359 660,-359 660,-165.5 660,-165.5 660,-159.5 666,-153.5 672,-153.5"/>
<text xml:space="preserve" text-anchor="middle" x="913" y="-356.55" font-family="Times,serif" font-size="11.00">paper_drummond2012_effective_mass</text>
</g>
<g id="clust4" class="cluster">
<title>cluster_paper_drummond2013_effective_mass</title>
<path fill="#fafafa" stroke="#999999" d="M20,-297.5C20,-297.5 580,-297.5 580,-297.5 586,-297.5 592,-303.5 592,-309.5 592,-309.5 592,-794 592,-794 592,-800 586,-806 580,-806 580,-806 20,-806 20,-806 14,-806 8,-800 8,-794 8,-794 8,-309.5 8,-309.5 8,-303.5 14,-297.5 20,-297.5"/>
<text xml:space="preserve" text-anchor="middle" x="300" y="-791.55" font-family="Times,serif" font-size="11.00">paper_drummond2013_effective_mass</text>
</g>
<g id="clust5" class="cluster">
<title>cluster_paper_drummond2013_fermi_liquid</title>
<path fill="#fafafa" stroke="#999999" d="M1680,-587C1680,-587 2370,-587 2370,-587 2376,-587 2382,-593 2382,-599 2382,-599 2382,-794 2382,-794 2382,-800 2376,-806 2370,-806 2370,-806 1680,-806 1680,-806 1674,-806 1668,-800 1668,-794 1668,-794 1668,-599 1668,-599 1668,-593 1674,-587 1680,-587"/>
<text xml:space="preserve" text-anchor="middle" x="2025" y="-791.55" font-family="Times,serif" font-size="11.00">paper_drummond2013_fermi_liquid</text>
</g>
<g id="clust6" class="cluster">
<title>cluster_paper_holzmann2008</title>
<path fill="#fafafa" stroke="#999999" d="M1374,-587C1374,-587 1576,-587 1576,-587 1582,-587 1588,-593 1588,-599 1588,-599 1588,-794 1588,-794 1588,-800 1582,-806 1576,-806 1576,-806 1374,-806 1374,-806 1368,-806 1362,-800 1362,-794 1362,-794 1362,-599 1362,-599 1362,-593 1368,-587 1374,-587"/>
<text xml:space="preserve" text-anchor="middle" x="1475" y="-791.55" font-family="Times,serif" font-size="11.00">paper_holzmann2008</text>
</g>
<!-- local:twodheg_effective_mass::older_dmc_enhancement_vs_revised_dmc_benchmarks -->
<g id="node1" class="node">
<title>local:twodheg_effective_mass::older_dmc_enhancement_vs_revised_dmc_benchmarks</title>
<polygon fill="#ddffdd" stroke="#44bb44" points="1464.12,-52 1235.88,-52 1235.88,-16 1464.12,-16 1464.12,-52"/>
<text xml:space="preserve" text-anchor="middle" x="1350" y="-37.25" font-family="Helvetica,sans-Serif" font-size="10.00">Older enhancement vs revised benchmarks</text>
<text xml:space="preserve" text-anchor="middle" x="1350" y="-24.5" font-family="Helvetica,sans-Serif" font-size="10.00">(0.92 → 1.00)</text>
</g>
<!-- local:twodheg_effective_mass::n_quarter_scaling_vs_shell_filling_noise -->
<g id="node2" class="node">
<title>local:twodheg_effective_mass::n_quarter_scaling_vs_shell_filling_noise</title>
<polygon fill="#ddffdd" stroke="#44bb44" points="1670.25,-52 1481.75,-52 1481.75,-16 1670.25,-16 1670.25,-52"/>
<text xml:space="preserve" text-anchor="middle" x="1576" y="-37.25" font-family="Helvetica,sans-Serif" font-size="10.00">N^&#45;1/4 scaling vs shell&#45;filling noise</text>
<text xml:space="preserve" text-anchor="middle" x="1576" y="-24.5" font-family="Helvetica,sans-Serif" font-size="10.00">(0.90 → 1.00)</text>
</g>
<!-- local:twodheg_effective_mass::gcn_4d1aad1470d54895 -->
<g id="node3" class="node">
<title>local:twodheg_effective_mass::gcn_4d1aad1470d54895</title>
<polygon fill="#ddeeff" stroke="#4488bb" points="1346,-631 1144,-631 1144,-595 1346,-595 1346,-631"/>
<text xml:space="preserve" text-anchor="middle" x="1245" y="-616.25" font-family="Helvetica,sans-Serif" font-size="10.00">Earlier DMC mass&#45;enhancement trend</text>
<text xml:space="preserve" text-anchor="middle" x="1245" y="-603.5" font-family="Helvetica,sans-Serif" font-size="10.00">(0.68 → 0.08)</text>
</g>
<!-- oper_0 -->
<g id="node38" class="node">
<title>oper_0</title>
<polygon fill="#ffebee" stroke="#c62828" points="1309.29,-107.5 1277.15,-125.5 1212.85,-125.5 1180.71,-107.5 1212.85,-89.5 1277.15,-89.5 1309.29,-107.5"/>
<text xml:space="preserve" text-anchor="middle" x="1245" y="-104.38" font-family="Helvetica,sans-Serif" font-size="10.00">⊗ contradiction</text>
</g>
<!-- local:twodheg_effective_mass::gcn_4d1aad1470d54895&#45;&gt;oper_0 -->
<g id="edge31" class="edge">
<title>local:twodheg_effective_mass::gcn_4d1aad1470d54895&#45;&gt;oper_0</title>
<path fill="none" stroke="black" d="M1245,-594.51C1245,-567.71 1245,-514.87 1245,-470 1245,-470 1245,-470 1245,-250.5 1245,-205.63 1245,-152.79 1245,-125.99"/>
</g>
<!-- local:twodheg_effective_mass::gcn_f6686a4225a043a6 -->
<g id="node4" class="node">
<title>local:twodheg_effective_mass::gcn_f6686a4225a043a6</title>
<polygon fill="#ddeeff" stroke="#4488bb" points="840.38,-631 607.62,-631 607.62,-595 840.38,-595 840.38,-631"/>
<text xml:space="preserve" text-anchor="middle" x="724" y="-616.25" font-family="Helvetica,sans-Serif" font-size="10.00">Quartic fit captures occupied&#45;band curvature</text>
<text xml:space="preserve" text-anchor="middle" x="724" y="-603.5" font-family="Helvetica,sans-Serif" font-size="10.00">(0.76 → 0.78)</text>
</g>
<!-- strat_6 -->
<g id="node7" class="node">
<title>strat_6</title>
<ellipse fill="#fff9c4" stroke="#f9a825" cx="739" cy="-541" rx="39.16" ry="18"/>
<text xml:space="preserve" text-anchor="middle" x="739" y="-537.88" font-family="Helvetica,sans-Serif" font-size="10.00">deduction</text>
</g>
<!-- local:twodheg_effective_mass::gcn_f6686a4225a043a6&#45;&gt;strat_6 -->
<g id="edge15" class="edge">
<title>local:twodheg_effective_mass::gcn_f6686a4225a043a6&#45;&gt;strat_6</title>
<path fill="none" stroke="black" d="M727.71,-594.7C729.29,-587.32 731.17,-578.52 732.95,-570.25"/>
<polygon fill="black" stroke="black" points="736.34,-571.1 735.02,-560.58 729.5,-569.63 736.34,-571.1"/>
</g>
<!-- local:twodheg_effective_mass::gcn_fd7adbfff0f146ba -->
<g id="node5" class="node">
<title>local:twodheg_effective_mass::gcn_fd7adbfff0f146ba</title>
<polygon fill="#ddeeff" stroke="#4488bb" points="1126,-631 858,-631 858,-595 1126,-595 1126,-631"/>
<text xml:space="preserve" text-anchor="middle" x="992" y="-616.25" font-family="Helvetica,sans-Serif" font-size="10.00">Fixed&#45;node errors mostly cancel in band differences</text>
<text xml:space="preserve" text-anchor="middle" x="992" y="-603.5" font-family="Helvetica,sans-Serif" font-size="10.00">(0.70 → 0.72)</text>
</g>
<!-- local:twodheg_effective_mass::gcn_fd7adbfff0f146ba&#45;&gt;strat_6 -->
<g id="edge16" class="edge">
<title>local:twodheg_effective_mass::gcn_fd7adbfff0f146ba&#45;&gt;strat_6</title>
<path fill="none" stroke="black" d="M928.81,-594.52C883.42,-581.96 823.38,-565.35 783.09,-554.2"/>
<polygon fill="black" stroke="black" points="784.05,-550.83 773.48,-551.54 782.19,-557.58 784.05,-550.83"/>
</g>
<!-- local:twodheg_effective_mass::gcn_bf915935b1fd4326 -->
<g id="node6" class="node">
<title>local:twodheg_effective_mass::gcn_bf915935b1fd4326</title>
<polygon fill="#ddffdd" stroke="#44bb44" points="870.38,-487 607.62,-487 607.62,-451 870.38,-451 870.38,-487"/>
<text xml:space="preserve" text-anchor="middle" x="739" y="-472.25" font-family="Helvetica,sans-Serif" font-size="10.00">DMC occupied band shows nonquadratic curvature</text>
<text xml:space="preserve" text-anchor="middle" x="739" y="-459.5" font-family="Helvetica,sans-Serif" font-size="10.00">(0.81)</text>
</g>
<!-- strat_12 -->
<g id="node37" class="node">
<title>strat_12</title>
<ellipse fill="#fff9c4" stroke="#f9a825" cx="686" cy="-397" rx="32.28" ry="18"/>
<text xml:space="preserve" text-anchor="middle" x="686" y="-393.88" font-family="Helvetica,sans-Serif" font-size="10.00">support</text>
</g>
<!-- local:twodheg_effective_mass::gcn_bf915935b1fd4326&#45;&gt;strat_12 -->
<g id="edge29" class="edge">
<title>local:twodheg_effective_mass::gcn_bf915935b1fd4326&#45;&gt;strat_12</title>
<path fill="none" stroke="black" d="M725.9,-450.7C719.62,-442.4 711.98,-432.31 705.07,-423.19"/>
<polygon fill="black" stroke="black" points="707.96,-421.21 699.14,-415.35 702.38,-425.44 707.96,-421.21"/>
</g>
<!-- strat_6&#45;&gt;local:twodheg_effective_mass::gcn_bf915935b1fd4326 -->
<g id="edge17" class="edge">
<title>strat_6&#45;&gt;local:twodheg_effective_mass::gcn_bf915935b1fd4326</title>
<path fill="none" stroke="black" d="M739,-522.7C739,-515.41 739,-506.73 739,-498.54"/>
<polygon fill="black" stroke="black" points="742.5,-498.62 739,-488.62 735.5,-498.62 742.5,-498.62"/>
</g>
<!-- local:twodheg_effective_mass::gcn_a685639571304474 -->
<g id="node8" class="node">
<title>local:twodheg_effective_mass::gcn_a685639571304474</title>
<polygon fill="#ddeeff" stroke="#4488bb" points="894,-341.5 668,-341.5 668,-305.5 894,-305.5 894,-341.5"/>
<text xml:space="preserve" text-anchor="middle" x="781" y="-326.75" font-family="Helvetica,sans-Serif" font-size="10.00">Monte Carlo resampling for m* uncertainty</text>
<text xml:space="preserve" text-anchor="middle" x="781" y="-314" font-family="Helvetica,sans-Serif" font-size="10.00">(0.75 → 0.79)</text>
</g>
<!-- strat_7 -->
<g id="node11" class="node">
<title>strat_7</title>
<ellipse fill="#fff9c4" stroke="#f9a825" cx="912" cy="-251.5" rx="39.16" ry="18"/>
<text xml:space="preserve" text-anchor="middle" x="912" y="-248.38" font-family="Helvetica,sans-Serif" font-size="10.00">deduction</text>
</g>
<!-- local:twodheg_effective_mass::gcn_a685639571304474&#45;&gt;strat_7 -->
<g id="edge18" class="edge">
<title>local:twodheg_effective_mass::gcn_a685639571304474&#45;&gt;strat_7</title>
<path fill="none" stroke="black" d="M813.72,-305.02C832.99,-294.72 857.36,-281.7 877.02,-271.19"/>
<polygon fill="black" stroke="black" points="878.59,-274.32 885.76,-266.52 875.29,-268.15 878.59,-274.32"/>
</g>
<!-- local:twodheg_effective_mass::gcn_17c63b5dc2154f15 -->
<g id="node9" class="node">
<title>local:twodheg_effective_mass::gcn_17c63b5dc2154f15</title>
<polygon fill="#ddeeff" stroke="#4488bb" points="1157.75,-341.5 912.25,-341.5 912.25,-305.5 1157.75,-305.5 1157.75,-341.5"/>
<text xml:space="preserve" text-anchor="middle" x="1035" y="-326.75" font-family="Helvetica,sans-Serif" font-size="10.00">Residual fixed&#45;node/time&#45;step biases are small</text>
<text xml:space="preserve" text-anchor="middle" x="1035" y="-314" font-family="Helvetica,sans-Serif" font-size="10.00">(0.72 → 0.77)</text>
</g>
<!-- local:twodheg_effective_mass::gcn_17c63b5dc2154f15&#45;&gt;strat_7 -->
<g id="edge19" class="edge">
<title>local:twodheg_effective_mass::gcn_17c63b5dc2154f15&#45;&gt;strat_7</title>
<path fill="none" stroke="black" d="M1004.28,-305.02C986.47,-294.88 964.02,-282.11 945.73,-271.69"/>
<polygon fill="black" stroke="black" points="947.51,-268.68 937.09,-266.78 944.05,-274.77 947.51,-268.68"/>
</g>
<!-- local:twodheg_effective_mass::gcn_b7a7d456a05d4129 -->
<g id="node10" class="node">
<title>local:twodheg_effective_mass::gcn_b7a7d456a05d4129</title>
<polygon fill="#ddffdd" stroke="#44bb44" points="1033.25,-197.5 790.75,-197.5 790.75,-161.5 1033.25,-161.5 1033.25,-197.5"/>
<text xml:space="preserve" text-anchor="middle" x="912" y="-182.75" font-family="Helvetica,sans-Serif" font-size="10.00">Revised thermodynamic&#45;limit m* benchmarks</text>
<text xml:space="preserve" text-anchor="middle" x="912" y="-170" font-family="Helvetica,sans-Serif" font-size="10.00">(0.88)</text>
</g>
<!-- local:twodheg_effective_mass::gcn_b7a7d456a05d4129&#45;&gt;oper_0 -->
<g id="edge32" class="edge">
<title>local:twodheg_effective_mass::gcn_b7a7d456a05d4129&#45;&gt;oper_0</title>
<path fill="none" stroke="black" d="M995.17,-161.02C1059.71,-147.45 1146.74,-129.15 1199.21,-118.13"/>
</g>
<!-- strat_7&#45;&gt;local:twodheg_effective_mass::gcn_b7a7d456a05d4129 -->
<g id="edge20" class="edge">
<title>strat_7&#45;&gt;local:twodheg_effective_mass::gcn_b7a7d456a05d4129</title>
<path fill="none" stroke="black" d="M912,-233.2C912,-225.91 912,-217.23 912,-209.04"/>
<polygon fill="black" stroke="black" points="915.5,-209.12 912,-199.12 908.5,-209.12 915.5,-209.12"/>
</g>
<!-- local:twodheg_effective_mass::gcn_850fc9d9de314026 -->
<g id="node12" class="node">
<title>local:twodheg_effective_mass::gcn_850fc9d9de314026</title>
<polygon fill="#ddeeff" stroke="#4488bb" points="583.5,-776.5 354.5,-776.5 354.5,-740.5 583.5,-740.5 583.5,-776.5"/>
<text xml:space="preserve" text-anchor="middle" x="469" y="-761.75" font-family="Helvetica,sans-Serif" font-size="10.00">Excited&#45;state reoptimization finite&#45;size bias</text>
<text xml:space="preserve" text-anchor="middle" x="469" y="-749" font-family="Helvetica,sans-Serif" font-size="10.00">(0.76 → 0.84)</text>
</g>
<!-- strat_3 -->
<g id="node20" class="node">
<title>strat_3</title>
<ellipse fill="#fff9c4" stroke="#f9a825" cx="469" cy="-686.5" rx="39.16" ry="18"/>
<text xml:space="preserve" text-anchor="middle" x="469" y="-683.38" font-family="Helvetica,sans-Serif" font-size="10.00">deduction</text>
</g>
<!-- local:twodheg_effective_mass::gcn_850fc9d9de314026&#45;&gt;strat_3 -->
<g id="edge7" class="edge">
<title>local:twodheg_effective_mass::gcn_850fc9d9de314026&#45;&gt;strat_3</title>
<path fill="none" stroke="black" d="M469,-740.2C469,-732.91 469,-724.23 469,-716.04"/>
<polygon fill="black" stroke="black" points="472.5,-716.12 469,-706.12 465.5,-716.12 472.5,-716.12"/>
</g>
<!-- strat_9 -->
<g id="node35" class="node">
<title>strat_9</title>
<ellipse fill="#fff9c4" stroke="#f9a825" cx="977" cy="-686.5" rx="32.28" ry="18"/>
<text xml:space="preserve" text-anchor="middle" x="977" y="-683.38" font-family="Helvetica,sans-Serif" font-size="10.00">support</text>
</g>
<!-- local:twodheg_effective_mass::gcn_850fc9d9de314026&#45;&gt;strat_9 -->
<g id="edge23" class="edge">
<title>local:twodheg_effective_mass::gcn_850fc9d9de314026&#45;&gt;strat_9</title>
<path fill="none" stroke="black" d="M583.96,-741.66C695.31,-726.32 858.21,-703.87 934.56,-693.35"/>
<polygon fill="black" stroke="black" points="934.68,-696.86 944.11,-692.03 933.73,-689.93 934.68,-696.86"/>
</g>
<!-- local:twodheg_effective_mass::gcn_c7b10e47e2ab45e1 -->
<g id="node13" class="node">
<title>local:twodheg_effective_mass::gcn_c7b10e47e2ab45e1</title>
<polygon fill="#ddffdd" stroke="#44bb44" points="583.5,-631 354.5,-631 354.5,-595 583.5,-595 583.5,-631"/>
<text xml:space="preserve" text-anchor="middle" x="469" y="-616.25" font-family="Helvetica,sans-Serif" font-size="10.00">Quantified reoptimization bias in finite cells</text>
<text xml:space="preserve" text-anchor="middle" x="469" y="-603.5" font-family="Helvetica,sans-Serif" font-size="10.00">(0.90)</text>
</g>
<!-- local:twodheg_effective_mass::gcn_48797cba2bf44d90 -->
<g id="node14" class="node">
<title>local:twodheg_effective_mass::gcn_48797cba2bf44d90</title>
<polygon fill="#ddeeff" stroke="#4488bb" points="181.62,-487 16.38,-487 16.38,-451 181.62,-451 181.62,-487"/>
<text xml:space="preserve" text-anchor="middle" x="99" y="-472.25" font-family="Helvetica,sans-Serif" font-size="10.00">Quartic band derivative for m*</text>
<text xml:space="preserve" text-anchor="middle" x="99" y="-459.5" font-family="Helvetica,sans-Serif" font-size="10.00">(0.78 → 0.83)</text>
</g>
<!-- strat_4 -->
<g id="node21" class="node">
<title>strat_4</title>
<ellipse fill="#fff9c4" stroke="#f9a825" cx="378" cy="-397" rx="39.16" ry="18"/>
<text xml:space="preserve" text-anchor="middle" x="378" y="-393.88" font-family="Helvetica,sans-Serif" font-size="10.00">deduction</text>
</g>
<!-- local:twodheg_effective_mass::gcn_48797cba2bf44d90&#45;&gt;strat_4 -->
<g id="edge9" class="edge">
<title>local:twodheg_effective_mass::gcn_48797cba2bf44d90&#45;&gt;strat_4</title>
<path fill="none" stroke="black" d="M162.28,-450.54C171.89,-447.97 181.7,-445.38 191,-443 239.08,-430.69 294.36,-417.5 332.28,-408.61"/>
<polygon fill="black" stroke="black" points="333.05,-412.02 341.99,-406.34 331.45,-405.21 333.05,-412.02"/>
</g>
<!-- local:twodheg_effective_mass::gcn_1e8fcb7ef934428d -->
<g id="node15" class="node">
<title>local:twodheg_effective_mass::gcn_1e8fcb7ef934428d</title>
<polygon fill="#ddeeff" stroke="#4488bb" points="380.5,-487 199.5,-487 199.5,-451 380.5,-451 380.5,-487"/>
<text xml:space="preserve" text-anchor="middle" x="290" y="-472.25" font-family="Helvetica,sans-Serif" font-size="10.00">Power&#45;law extrapolation of m*(N)</text>
<text xml:space="preserve" text-anchor="middle" x="290" y="-459.5" font-family="Helvetica,sans-Serif" font-size="10.00">(0.75 → 0.81)</text>
</g>
<!-- local:twodheg_effective_mass::gcn_1e8fcb7ef934428d&#45;&gt;strat_4 -->
<g id="edge10" class="edge">
<title>local:twodheg_effective_mass::gcn_1e8fcb7ef934428d&#45;&gt;strat_4</title>
<path fill="none" stroke="black" d="M311.75,-450.7C323.27,-441.53 337.55,-430.18 349.9,-420.35"/>
<polygon fill="black" stroke="black" points="352.06,-423.11 357.7,-414.14 347.7,-417.63 352.06,-423.11"/>
</g>
<!-- local:twodheg_effective_mass::gcn_50e263dc961541e0 -->
<g id="node16" class="node">
<title>local:twodheg_effective_mass::gcn_50e263dc961541e0</title>
<polygon fill="#ddffdd" stroke="#44bb44" points="583.75,-487 398.25,-487 398.25,-451 583.75,-451 583.75,-487"/>
<text xml:space="preserve" text-anchor="middle" x="491" y="-472.25" font-family="Helvetica,sans-Serif" font-size="10.00">Wide k&#45;window stabilizes band fits</text>
<text xml:space="preserve" text-anchor="middle" x="491" y="-459.5" font-family="Helvetica,sans-Serif" font-size="10.00">(0.76 → 0.97)</text>
</g>
<!-- local:twodheg_effective_mass::gcn_50e263dc961541e0&#45;&gt;strat_4 -->
<g id="edge11" class="edge">
<title>local:twodheg_effective_mass::gcn_50e263dc961541e0&#45;&gt;strat_4</title>
<path fill="none" stroke="black" d="M462.78,-450.52C446.71,-440.56 426.54,-428.07 409.9,-417.76"/>
<polygon fill="black" stroke="black" points="412.2,-415.07 401.85,-412.78 408.51,-421.02 412.2,-415.07"/>
</g>
<!-- local:twodheg_effective_mass::gcn_a981a2b787514e47 -->
<g id="node17" class="node">
<title>local:twodheg_effective_mass::gcn_a981a2b787514e47</title>
<polygon fill="#ddffdd" stroke="#44bb44" points="583.62,-341.5 346.38,-341.5 346.38,-305.5 583.62,-305.5 583.62,-341.5"/>
<text xml:space="preserve" text-anchor="middle" x="465" y="-326.75" font-family="Helvetica,sans-Serif" font-size="10.00">DMC band&#45;fit protocol for thermodynamic m*</text>
<text xml:space="preserve" text-anchor="middle" x="465" y="-314" font-family="Helvetica,sans-Serif" font-size="10.00">(0.92)</text>
</g>
<!-- strat_10 -->
<g id="node36" class="node">
<title>strat_10</title>
<ellipse fill="#fff9c4" stroke="#f9a825" cx="542" cy="-251.5" rx="32.28" ry="18"/>
<text xml:space="preserve" text-anchor="middle" x="542" y="-248.38" font-family="Helvetica,sans-Serif" font-size="10.00">support</text>
</g>
<!-- local:twodheg_effective_mass::gcn_a981a2b787514e47&#45;&gt;strat_10 -->
<g id="edge25" class="edge">
<title>local:twodheg_effective_mass::gcn_a981a2b787514e47&#45;&gt;strat_10</title>
<path fill="none" stroke="black" d="M484.03,-305.2C494.08,-296.06 506.54,-284.74 517.32,-274.94"/>
<polygon fill="black" stroke="black" points="519.37,-277.8 524.41,-268.49 514.66,-272.62 519.37,-277.8"/>
</g>
<!-- local:twodheg_effective_mass::gcn_f6ca85b75deb46ba -->
<g id="node18" class="node">
<title>local:twodheg_effective_mass::gcn_f6ca85b75deb46ba</title>
<polygon fill="#ddeeff" stroke="#4488bb" points="329.25,-776.5 74.75,-776.5 74.75,-740.5 329.25,-740.5 329.25,-776.5"/>
<text xml:space="preserve" text-anchor="middle" x="202" y="-761.75" font-family="Helvetica,sans-Serif" font-size="10.00">HF pathology plus finite&#45;cell correlation recovery</text>
<text xml:space="preserve" text-anchor="middle" x="202" y="-749" font-family="Helvetica,sans-Serif" font-size="10.00">(0.74 → 0.77)</text>
</g>
<!-- strat_5 -->
<g id="node22" class="node">
<title>strat_5</title>
<ellipse fill="#fff9c4" stroke="#f9a825" cx="202" cy="-686.5" rx="39.16" ry="18"/>
<text xml:space="preserve" text-anchor="middle" x="202" y="-683.38" font-family="Helvetica,sans-Serif" font-size="10.00">deduction</text>
</g>
<!-- local:twodheg_effective_mass::gcn_f6ca85b75deb46ba&#45;&gt;strat_5 -->
<g id="edge13" class="edge">
<title>local:twodheg_effective_mass::gcn_f6ca85b75deb46ba&#45;&gt;strat_5</title>
<path fill="none" stroke="black" d="M202,-740.2C202,-732.91 202,-724.23 202,-716.04"/>
<polygon fill="black" stroke="black" points="205.5,-716.12 202,-706.12 198.5,-716.12 205.5,-716.12"/>
</g>
<!-- local:twodheg_effective_mass::gcn_8df2cd5b49524aac -->
<g id="node19" class="node">
<title>local:twodheg_effective_mass::gcn_8df2cd5b49524aac</title>
<polygon fill="#ddffdd" stroke="#44bb44" points="336.38,-631 67.62,-631 67.62,-595 336.38,-595 336.38,-631"/>
<text xml:space="preserve" text-anchor="middle" x="202" y="-616.25" font-family="Helvetica,sans-Serif" font-size="10.00">Near&#45;k_F derivative pathologies require band fitting</text>
<text xml:space="preserve" text-anchor="middle" x="202" y="-603.5" font-family="Helvetica,sans-Serif" font-size="10.00">(0.90)</text>
</g>
<!-- strat_11 -->
<g id="node23" class="node">
<title>strat_11</title>
<ellipse fill="#fff9c4" stroke="#f9a825" cx="346" cy="-541" rx="32.28" ry="18"/>
<text xml:space="preserve" text-anchor="middle" x="346" y="-537.88" font-family="Helvetica,sans-Serif" font-size="10.00">support</text>
</g>
<!-- local:twodheg_effective_mass::gcn_8df2cd5b49524aac&#45;&gt;strat_11 -->
<g id="edge27" class="edge">
<title>local:twodheg_effective_mass::gcn_8df2cd5b49524aac&#45;&gt;strat_11</title>
<path fill="none" stroke="black" d="M237.97,-594.52C260.59,-583.52 289.61,-569.41 311.87,-558.59"/>
<polygon fill="black" stroke="black" points="313.37,-561.75 320.84,-554.23 310.31,-555.46 313.37,-561.75"/>
</g>
<!-- strat_3&#45;&gt;local:twodheg_effective_mass::gcn_c7b10e47e2ab45e1 -->
<g id="edge8" class="edge">
<title>strat_3&#45;&gt;local:twodheg_effective_mass::gcn_c7b10e47e2ab45e1</title>
<path fill="none" stroke="black" d="M469,-668.19C469,-660.52 469,-651.29 469,-642.64"/>
<polygon fill="black" stroke="black" points="472.5,-642.91 469,-632.91 465.5,-642.91 472.5,-642.91"/>
</g>
<!-- strat_4&#45;&gt;local:twodheg_effective_mass::gcn_a981a2b787514e47 -->
<g id="edge12" class="edge">
<title>strat_4&#45;&gt;local:twodheg_effective_mass::gcn_a981a2b787514e47</title>
<path fill="none" stroke="black" d="M396.45,-380.84C407.72,-371.58 422.38,-359.52 435.26,-348.94"/>
<polygon fill="black" stroke="black" points="437.15,-351.92 442.65,-342.87 432.7,-346.51 437.15,-351.92"/>
</g>
<!-- strat_5&#45;&gt;local:twodheg_effective_mass::gcn_8df2cd5b49524aac -->
<g id="edge14" class="edge">
<title>strat_5&#45;&gt;local:twodheg_effective_mass::gcn_8df2cd5b49524aac</title>
<path fill="none" stroke="black" d="M202,-668.19C202,-660.52 202,-651.29 202,-642.64"/>
<polygon fill="black" stroke="black" points="205.5,-642.91 202,-632.91 198.5,-642.91 205.5,-642.91"/>
</g>
<!-- strat_11&#45;&gt;local:twodheg_effective_mass::gcn_50e263dc961541e0 -->
<g id="edge28" class="edge">
<title>strat_11&#45;&gt;local:twodheg_effective_mass::gcn_50e263dc961541e0</title>
<path fill="none" stroke="black" d="M369.94,-528.44C390.14,-518.69 419.65,-504.44 444.48,-492.46"/>
<polygon fill="black" stroke="black" points="445.94,-495.64 453.42,-488.14 442.9,-489.34 445.94,-495.64"/>
</g>
<!-- local:twodheg_effective_mass::gcn_219b34bd252c43fa -->
<g id="node24" class="node">
<title>local:twodheg_effective_mass::gcn_219b34bd252c43fa</title>
<polygon fill="#ddeeff" stroke="#4488bb" points="1929.5,-776.5 1676.5,-776.5 1676.5,-740.5 1929.5,-740.5 1929.5,-776.5"/>
<text xml:space="preserve" text-anchor="middle" x="1803" y="-761.75" font-family="Helvetica,sans-Serif" font-size="10.00">N^&#45;1/4 finite&#45;size scaling for Landau parameters</text>
<text xml:space="preserve" text-anchor="middle" x="1803" y="-749" font-family="Helvetica,sans-Serif" font-size="10.00">(0.78 → 0.45)</text>
</g>
<!-- strat_8 -->
<g id="node34" class="node">
<title>strat_8</title>
<ellipse fill="#fff9c4" stroke="#f9a825" cx="1628" cy="-686.5" rx="32.28" ry="18"/>
<text xml:space="preserve" text-anchor="middle" x="1628" y="-683.38" font-family="Helvetica,sans-Serif" font-size="10.00">support</text>
</g>
<!-- local:twodheg_effective_mass::gcn_219b34bd252c43fa&#45;&gt;strat_8 -->
<g id="edge21" class="edge">
<title>local:twodheg_effective_mass::gcn_219b34bd252c43fa&#45;&gt;strat_8</title>
<path fill="none" stroke="black" d="M1754.39,-740.01C1727.54,-730.09 1693.7,-717.15 1664,-704.5 1663.38,-704.24 1662.76,-703.97 1662.14,-703.7"/>
<polygon fill="black" stroke="black" points="1663.83,-700.62 1653.28,-699.72 1660.96,-707.01 1663.83,-700.62"/>
</g>
<!-- oper_1 -->
<g id="node39" class="node">
<title>oper_1</title>
<polygon fill="#ffebee" stroke="#c62828" points="1955.29,-541 1923.15,-559 1858.85,-559 1826.71,-541 1858.85,-523 1923.15,-523 1955.29,-541"/>
<text xml:space="preserve" text-anchor="middle" x="1891" y="-537.88" font-family="Helvetica,sans-Serif" font-size="10.00">⊗ contradiction</text>
</g>
<!-- local:twodheg_effective_mass::gcn_219b34bd252c43fa&#45;&gt;oper_1 -->
<g id="edge34" class="edge">
<title>local:twodheg_effective_mass::gcn_219b34bd252c43fa&#45;&gt;oper_1</title>
<path fill="none" stroke="black" d="M1929.68,-741.63C1932.82,-741.25 1935.93,-740.87 1939,-740.5 2075.82,-723.95 2123.3,-765.27 2247,-704.5 2271.54,-692.44 2279.68,-685.82 2290,-660.5 2302.33,-630.25 2311.77,-611.36 2290,-587 2267.76,-562.11 2055.52,-549.28 1949.99,-544.39"/>
</g>
<!-- local:twodheg_effective_mass::gcn_3ceb44ae3f404964 -->
<g id="node25" class="node">
<title>local:twodheg_effective_mass::gcn_3ceb44ae3f404964</title>
<polygon fill="#ddeeff" stroke="#4488bb" points="2136.25,-776.5 1947.75,-776.5 1947.75,-740.5 2136.25,-740.5 2136.25,-776.5"/>
<text xml:space="preserve" text-anchor="middle" x="2042" y="-761.75" font-family="Helvetica,sans-Serif" font-size="10.00">Theoretical N^&#45;1/4 scaling premise</text>
<text xml:space="preserve" text-anchor="middle" x="2042" y="-749" font-family="Helvetica,sans-Serif" font-size="10.00">(0.78 → 0.50)</text>
</g>
<!-- strat_1 -->
<g id="node29" class="node">
<title>strat_1</title>
<ellipse fill="#fff9c4" stroke="#f9a825" cx="1966" cy="-686.5" rx="39.16" ry="18"/>
<text xml:space="preserve" text-anchor="middle" x="1966" y="-683.38" font-family="Helvetica,sans-Serif" font-size="10.00">deduction</text>
</g>
<!-- local:twodheg_effective_mass::gcn_3ceb44ae3f404964&#45;&gt;strat_1 -->
<g id="edge3" class="edge">
<title>local:twodheg_effective_mass::gcn_3ceb44ae3f404964&#45;&gt;strat_1</title>
<path fill="none" stroke="black" d="M2023.21,-740.2C2013.6,-731.34 2001.76,-720.43 1991.34,-710.84"/>
<polygon fill="black" stroke="black" points="1993.85,-708.4 1984.13,-704.2 1989.11,-713.55 1993.85,-708.4"/>
</g>
<!-- local:twodheg_effective_mass::gcn_3db07703d3684507 -->
<g id="node26" class="node">
<title>local:twodheg_effective_mass::gcn_3db07703d3684507</title>
<polygon fill="#ddffdd" stroke="#44bb44" points="2012.62,-631 1769.38,-631 1769.38,-595 2012.62,-595 2012.62,-631"/>
<text xml:space="preserve" text-anchor="middle" x="1891" y="-616.25" font-family="Helvetica,sans-Serif" font-size="10.00">Shell noise undermines direct FL extrapolation</text>
<text xml:space="preserve" text-anchor="middle" x="1891" y="-603.5" font-family="Helvetica,sans-Serif" font-size="10.00">(0.48)</text>
</g>
<!-- local:twodheg_effective_mass::gcn_3db07703d3684507&#45;&gt;oper_1 -->
<g id="edge35" class="edge">
<title>local:twodheg_effective_mass::gcn_3db07703d3684507&#45;&gt;oper_1</title>
<path fill="none" stroke="black" d="M1891,-594.7C1891,-583.85 1891,-569.92 1891,-559.1"/>
</g>
<!-- local:twodheg_effective_mass::gcn_836bae7457044c7a -->
<g id="node27" class="node">
<title>local:twodheg_effective_mass::gcn_836bae7457044c7a</title>
<polygon fill="#ddeeff" stroke="#4488bb" points="2373.62,-776.5 2154.38,-776.5 2154.38,-740.5 2373.62,-740.5 2373.62,-776.5"/>
<text xml:space="preserve" text-anchor="middle" x="2264" y="-761.75" font-family="Helvetica,sans-Serif" font-size="10.00">Assembling best&#45;available FL parameters</text>
<text xml:space="preserve" text-anchor="middle" x="2264" y="-749" font-family="Helvetica,sans-Serif" font-size="10.00">(0.74 → 0.74)</text>
</g>
<!-- strat_2 -->
<g id="node30" class="node">
<title>strat_2</title>
<ellipse fill="#fff9c4" stroke="#f9a825" cx="2199" cy="-686.5" rx="39.16" ry="18"/>
<text xml:space="preserve" text-anchor="middle" x="2199" y="-683.38" font-family="Helvetica,sans-Serif" font-size="10.00">deduction</text>
</g>
<!-- local:twodheg_effective_mass::gcn_836bae7457044c7a&#45;&gt;strat_2 -->
<g id="edge5" class="edge">
<title>local:twodheg_effective_mass::gcn_836bae7457044c7a&#45;&gt;strat_2</title>
<path fill="none" stroke="black" d="M2247.93,-740.2C2239.87,-731.52 2229.98,-720.87 2221.21,-711.42"/>
<polygon fill="black" stroke="black" points="2223.95,-709.23 2214.58,-704.28 2218.82,-713.99 2223.95,-709.23"/>
</g>
<!-- local:twodheg_effective_mass::gcn_306f15c9d5814e23 -->
<g id="node28" class="node">
<title>local:twodheg_effective_mass::gcn_306f15c9d5814e23</title>
<polygon fill="#ddffdd" stroke="#44bb44" points="2281.38,-631 2030.62,-631 2030.62,-595 2281.38,-595 2281.38,-631"/>
<text xml:space="preserve" text-anchor="middle" x="2156" y="-616.25" font-family="Helvetica,sans-Serif" font-size="10.00">Recommended 2D HEG Fermi&#45;liquid parameters</text>
<text xml:space="preserve" text-anchor="middle" x="2156" y="-603.5" font-family="Helvetica,sans-Serif" font-size="10.00">(0.85)</text>
</g>
<!-- strat_1&#45;&gt;local:twodheg_effective_mass::gcn_3db07703d3684507 -->
<g id="edge4" class="edge">
<title>strat_1&#45;&gt;local:twodheg_effective_mass::gcn_3db07703d3684507</title>
<path fill="none" stroke="black" d="M1949.73,-669.99C1940.34,-661.04 1928.32,-649.58 1917.59,-639.35"/>
<polygon fill="black" stroke="black" points="1920.1,-636.91 1910.45,-632.54 1915.27,-641.97 1920.1,-636.91"/>
</g>
<!-- strat_2&#45;&gt;local:twodheg_effective_mass::gcn_306f15c9d5814e23 -->
<g id="edge6" class="edge">
<title>strat_2&#45;&gt;local:twodheg_effective_mass::gcn_306f15c9d5814e23</title>
<path fill="none" stroke="black" d="M2189.03,-668.92C2184.07,-660.68 2177.96,-650.51 2172.34,-641.17"/>
<polygon fill="black" stroke="black" points="2175.45,-639.55 2167.3,-632.79 2169.45,-643.16 2175.45,-639.55"/>
</g>
<!-- local:twodheg_effective_mass::gcn_da3eecec49114543 -->
<g id="node31" class="node">
<title>local:twodheg_effective_mass::gcn_da3eecec49114543</title>
<polygon fill="#ddeeff" stroke="#4488bb" points="1570.75,-776.5 1379.25,-776.5 1379.25,-740.5 1570.75,-740.5 1570.75,-776.5"/>
<text xml:space="preserve" text-anchor="middle" x="1475" y="-761.75" font-family="Helvetica,sans-Serif" font-size="10.00">Finite&#45;size kinetic&#45;energy correction</text>
<text xml:space="preserve" text-anchor="middle" x="1475" y="-749" font-family="Helvetica,sans-Serif" font-size="10.00">(0.82 → 0.89)</text>
</g>
<!-- strat_0 -->
<g id="node33" class="node">
<title>strat_0</title>
<ellipse fill="#fff9c4" stroke="#f9a825" cx="1475" cy="-686.5" rx="39.16" ry="18"/>
<text xml:space="preserve" text-anchor="middle" x="1475" y="-683.38" font-family="Helvetica,sans-Serif" font-size="10.00">deduction</text>
</g>
<!-- local:twodheg_effective_mass::gcn_da3eecec49114543&#45;&gt;strat_0 -->
<g id="edge1" class="edge">
<title>local:twodheg_effective_mass::gcn_da3eecec49114543&#45;&gt;strat_0</title>
<path fill="none" stroke="black" d="M1475,-740.2C1475,-732.91 1475,-724.23 1475,-716.04"/>
<polygon fill="black" stroke="black" points="1478.5,-716.12 1475,-706.12 1471.5,-716.12 1478.5,-716.12"/>
</g>
<!-- local:twodheg_effective_mass::gcn_28b9e01bd2f8487f -->
<g id="node32" class="node">
<title>local:twodheg_effective_mass::gcn_28b9e01bd2f8487f</title>
<polygon fill="#d4edda" stroke="#28a745" stroke-width="2" points="1579.75,-631 1370.25,-631 1370.25,-595 1579.75,-595 1579.75,-631"/>
<text xml:space="preserve" text-anchor="middle" x="1475" y="-616.25" font-family="Helvetica,sans-Serif" font-size="10.00">★ Slow finite&#45;size errors can flip m* &#45; m</text>
<text xml:space="preserve" text-anchor="middle" x="1475" y="-603.5" font-family="Helvetica,sans-Serif" font-size="10.00">(0.98)</text>
</g>
<!-- strat_0&#45;&gt;local:twodheg_effective_mass::gcn_28b9e01bd2f8487f -->
<g id="edge2" class="edge">
<title>strat_0&#45;&gt;local:twodheg_effective_mass::gcn_28b9e01bd2f8487f</title>
<path fill="none" stroke="black" d="M1475,-668.19C1475,-660.72 1475,-651.77 1475,-643.31"/>
<polygon fill="black" stroke="black" points="1478.5,-643.41 1475,-633.41 1471.5,-643.41 1478.5,-643.41"/>
</g>
<!-- strat_8&#45;&gt;local:twodheg_effective_mass::gcn_28b9e01bd2f8487f -->
<g id="edge22" class="edge">
<title>strat_8&#45;&gt;local:twodheg_effective_mass::gcn_28b9e01bd2f8487f</title>
<path fill="none" stroke="black" d="M1604,-674.14C1599.99,-672.26 1595.88,-670.32 1592,-668.5 1569.7,-658.04 1544.98,-646.51 1524.02,-636.77"/>
<polygon fill="black" stroke="black" points="1525.67,-633.67 1515.13,-632.63 1522.72,-640.02 1525.67,-633.67"/>
</g>
<!-- strat_9&#45;&gt;local:twodheg_effective_mass::gcn_28b9e01bd2f8487f -->
<g id="edge24" class="edge">
<title>strat_9&#45;&gt;local:twodheg_effective_mass::gcn_28b9e01bd2f8487f</title>
<path fill="none" stroke="black" d="M1009.61,-684.67C1089.27,-682.42 1292.04,-675.38 1358,-660.5 1381.79,-655.13 1407.06,-645.61 1428.01,-636.58"/>
<polygon fill="black" stroke="black" points="1429.42,-639.78 1437.15,-632.54 1426.59,-633.38 1429.42,-639.78"/>
</g>
<!-- strat_10&#45;&gt;local:twodheg_effective_mass::gcn_b7a7d456a05d4129 -->
<g id="edge26" class="edge">
<title>strat_10&#45;&gt;local:twodheg_effective_mass::gcn_b7a7d456a05d4129</title>
<path fill="none" stroke="black" d="M572.28,-244.77C623.3,-235.12 728.64,-215.19 808.58,-200.07"/>
<polygon fill="black" stroke="black" points="809.02,-203.55 818.19,-198.25 807.72,-196.67 809.02,-203.55"/>
</g>
<!-- strat_12&#45;&gt;local:twodheg_effective_mass::gcn_a981a2b787514e47 -->
<g id="edge30" class="edge">
<title>strat_12&#45;&gt;local:twodheg_effective_mass::gcn_a981a2b787514e47</title>
<path fill="none" stroke="black" d="M658.46,-387.09C626.42,-376.72 572.45,-359.26 529.64,-345.41"/>
<polygon fill="black" stroke="black" points="530.77,-342.1 520.18,-342.35 528.62,-348.76 530.77,-342.1"/>
</g>
<!-- oper_0&#45;&gt;local:twodheg_effective_mass::older_dmc_enhancement_vs_revised_dmc_benchmarks -->
<g id="edge33" class="edge">
<title>oper_0&#45;&gt;local:twodheg_effective_mass::older_dmc_enhancement_vs_revised_dmc_benchmarks</title>
<path fill="none" stroke="black" d="M1270.69,-89.01C1287.08,-77.85 1308.24,-63.44 1324.58,-52.31"/>
</g>
<!-- oper_1&#45;&gt;local:twodheg_effective_mass::n_quarter_scaling_vs_shell_filling_noise -->
<g id="edge36" class="edge">
<title>oper_1&#45;&gt;local:twodheg_effective_mass::n_quarter_scaling_vs_shell_filling_noise</title>
<path fill="none" stroke="black" d="M1866.38,-522.67C1835.35,-498.58 1786,-451.81 1786,-398 1786,-398 1786,-398 1786,-178.5 1786,-110.06 1709.02,-71.89 1648.27,-52.42"/>
</g>
</g>
</svg>
