<?xml version="1.0" encoding="UTF-8" standalone="no"?>
<!DOCTYPE svg PUBLIC "-//W3C//DTD SVG 1.1//EN"
 "http://www.w3.org/Graphics/SVG/1.1/DTD/svg11.dtd">
<!-- Generated by graphviz version 14.1.5 (20260411.2331)
 -->
<!-- Title: starmap Pages: 1 -->
<svg width="2695pt" height="534pt"
 viewBox="0.00 0.00 2695.00 534.00" xmlns="http://www.w3.org/2000/svg" xmlns:xlink="http://www.w3.org/1999/xlink">
<g id="graph0" class="graph" transform="scale(1 1) rotate(0) translate(4 530)">
<title>starmap</title>
<polygon fill="white" stroke="none" points="-4,4 -4,-530 2691,-530 2691,4 -4,4"/>
<g id="clust1" class="cluster">
<title>cluster_cross_paper</title>
<path fill="#fafafa" stroke="#999999" d="M1176,-8C1176,-8 1602,-8 1602,-8 1608,-8 1614,-14 1614,-20 1614,-20 1614,-69.5 1614,-69.5 1614,-75.5 1608,-81.5 1602,-81.5 1602,-81.5 1176,-81.5 1176,-81.5 1170,-81.5 1164,-75.5 1164,-69.5 1164,-69.5 1164,-20 1164,-20 1164,-14 1170,-8 1176,-8"/>
<text xml:space="preserve" text-anchor="middle" x="1389" y="-67.05" font-family="Times,serif" font-size="11.00">cross_paper</text>
</g>
<g id="clust2" class="cluster">
<title>cluster_paper_drummond2009_fermi_fluid</title>
<path fill="#fafafa" stroke="#999999" d="M20,-153.5C20,-153.5 214,-153.5 214,-153.5 220,-153.5 226,-159.5 226,-165.5 226,-165.5 226,-215 226,-215 226,-221 220,-227 214,-227 214,-227 20,-227 20,-227 14,-227 8,-221 8,-215 8,-215 8,-165.5 8,-165.5 8,-159.5 14,-153.5 20,-153.5"/>
<text xml:space="preserve" text-anchor="middle" x="117" y="-212.55" font-family="Times,serif" font-size="11.00">paper_drummond2009_fermi_fluid</text>
</g>
<g id="clust3" class="cluster">
<title>cluster_paper_drummond2012_effective_mass</title>
<path fill="#fafafa" stroke="#999999" d="M246,-153.5C246,-153.5 728,-153.5 728,-153.5 734,-153.5 740,-159.5 740,-165.5 740,-165.5 740,-360.5 740,-360.5 740,-366.5 734,-372.5 728,-372.5 728,-372.5 246,-372.5 246,-372.5 240,-372.5 234,-366.5 234,-360.5 234,-360.5 234,-165.5 234,-165.5 234,-159.5 240,-153.5 246,-153.5"/>
<text xml:space="preserve" text-anchor="middle" x="487" y="-358.05" font-family="Times,serif" font-size="11.00">paper_drummond2012_effective_mass</text>
</g>
<g id="clust4" class="cluster">
<title>cluster_paper_drummond2013_effective_mass</title>
<path fill="#fafafa" stroke="#999999" d="M760,-299C760,-299 1567,-299 1567,-299 1573,-299 1579,-305 1579,-311 1579,-311 1579,-506 1579,-506 1579,-512 1573,-518 1567,-518 1567,-518 760,-518 760,-518 754,-518 748,-512 748,-506 748,-506 748,-311 748,-311 748,-305 754,-299 760,-299"/>
<text xml:space="preserve" text-anchor="middle" x="1163.5" y="-503.55" font-family="Times,serif" font-size="11.00">paper_drummond2013_effective_mass</text>
</g>
<g id="clust5" class="cluster">
<title>cluster_paper_drummond2013_fermi_liquid</title>
<path fill="#fafafa" stroke="#999999" d="M1977,-299C1977,-299 2667,-299 2667,-299 2673,-299 2679,-305 2679,-311 2679,-311 2679,-506 2679,-506 2679,-512 2673,-518 2667,-518 2667,-518 1977,-518 1977,-518 1971,-518 1965,-512 1965,-506 1965,-506 1965,-311 1965,-311 1965,-305 1971,-299 1977,-299"/>
<text xml:space="preserve" text-anchor="middle" x="2322" y="-503.55" font-family="Times,serif" font-size="11.00">paper_drummond2013_fermi_liquid</text>
</g>
<g id="clust6" class="cluster">
<title>cluster_paper_holzmann2008</title>
<path fill="#fafafa" stroke="#999999" d="M1671,-299C1671,-299 1873,-299 1873,-299 1879,-299 1885,-305 1885,-311 1885,-311 1885,-506 1885,-506 1885,-512 1879,-518 1873,-518 1873,-518 1671,-518 1671,-518 1665,-518 1659,-512 1659,-506 1659,-506 1659,-311 1659,-311 1659,-305 1665,-299 1671,-299"/>
<text xml:space="preserve" text-anchor="middle" x="1772" y="-503.55" font-family="Times,serif" font-size="11.00">paper_holzmann2008</text>
</g>
<!-- local:twodheg_effective_mass::older_dmc_enhancement_vs_revised_dmc_benchmarks -->
<g id="node1" class="node">
<title>local:twodheg_effective_mass::older_dmc_enhancement_vs_revised_dmc_benchmarks</title>
<polygon fill="#ddffdd" stroke="#44bb44" points="1400.12,-52 1171.88,-52 1171.88,-16 1400.12,-16 1400.12,-52"/>
<text xml:space="preserve" text-anchor="middle" x="1286" y="-37.25" font-family="Helvetica,sans-Serif" font-size="10.00">Older enhancement vs revised benchmarks</text>
<text xml:space="preserve" text-anchor="middle" x="1286" y="-24.5" font-family="Helvetica,sans-Serif" font-size="10.00">(0.92 → 1.00)</text>
</g>
<!-- local:twodheg_effective_mass::n_quarter_scaling_vs_shell_filling_noise -->
<g id="node2" class="node">
<title>local:twodheg_effective_mass::n_quarter_scaling_vs_shell_filling_noise</title>
<polygon fill="#ddffdd" stroke="#44bb44" points="1606.25,-52 1417.75,-52 1417.75,-16 1606.25,-16 1606.25,-52"/>
<text xml:space="preserve" text-anchor="middle" x="1512" y="-37.25" font-family="Helvetica,sans-Serif" font-size="10.00">N^&#45;1/4 scaling vs shell&#45;filling noise</text>
<text xml:space="preserve" text-anchor="middle" x="1512" y="-24.5" font-family="Helvetica,sans-Serif" font-size="10.00">(0.90 → 1.00)</text>
</g>
<!-- local:twodheg_effective_mass::gcn_4d1aad1470d54895 -->
<g id="node3" class="node">
<title>local:twodheg_effective_mass::gcn_4d1aad1470d54895</title>
<polygon fill="#ddeeff" stroke="#4488bb" points="218,-197.5 16,-197.5 16,-161.5 218,-161.5 218,-197.5"/>
<text xml:space="preserve" text-anchor="middle" x="117" y="-182.75" font-family="Helvetica,sans-Serif" font-size="10.00">Earlier DMC mass&#45;enhancement trend</text>
<text xml:space="preserve" text-anchor="middle" x="117" y="-170" font-family="Helvetica,sans-Serif" font-size="10.00">(0.68 → 0.14)</text>
</g>
<!-- oper_0 -->
<g id="node29" class="node">
<title>oper_0</title>
<polygon fill="#ffebee" stroke="#c62828" points="674.29,-107.5 642.15,-125.5 577.85,-125.5 545.71,-107.5 577.85,-89.5 642.15,-89.5 674.29,-107.5"/>
<text xml:space="preserve" text-anchor="middle" x="610" y="-104.38" font-family="Helvetica,sans-Serif" font-size="10.00">⊗ contradiction</text>
</g>
<!-- local:twodheg_effective_mass::gcn_4d1aad1470d54895&#45;&gt;oper_0 -->
<g id="edge22" class="edge">
<title>local:twodheg_effective_mass::gcn_4d1aad1470d54895&#45;&gt;oper_0</title>
<path fill="none" stroke="black" d="M190.95,-161.03C203.92,-158.28 217.32,-155.65 230,-153.5 344.95,-134.03 480.88,-120.1 555.01,-113.27"/>
</g>
<!-- local:twodheg_effective_mass::gcn_a685639571304474 -->
<g id="node4" class="node">
<title>local:twodheg_effective_mass::gcn_a685639571304474</title>
<polygon fill="#ddeeff" stroke="#4488bb" points="468,-343 242,-343 242,-307 468,-307 468,-343"/>
<text xml:space="preserve" text-anchor="middle" x="355" y="-328.25" font-family="Helvetica,sans-Serif" font-size="10.00">Monte Carlo resampling for m* uncertainty</text>
<text xml:space="preserve" text-anchor="middle" x="355" y="-315.5" font-family="Helvetica,sans-Serif" font-size="10.00">(0.75 → 0.76)</text>
</g>
<!-- strat_5 -->
<g id="node7" class="node">
<title>strat_5</title>
<ellipse fill="#fff9c4" stroke="#f9a825" cx="609" cy="-253" rx="39.16" ry="18"/>
<text xml:space="preserve" text-anchor="middle" x="609" y="-249.88" font-family="Helvetica,sans-Serif" font-size="10.00">deduction</text>
</g>
<!-- local:twodheg_effective_mass::gcn_a685639571304474&#45;&gt;strat_5 -->
<g id="edge13" class="edge">
<title>local:twodheg_effective_mass::gcn_a685639571304474&#45;&gt;strat_5</title>
<path fill="none" stroke="black" d="M418.44,-306.52C464.11,-293.93 524.54,-277.28 565,-266.13"/>
<polygon fill="black" stroke="black" points="565.68,-269.57 574.39,-263.54 563.82,-262.82 565.68,-269.57"/>
</g>
<!-- local:twodheg_effective_mass::gcn_17c63b5dc2154f15 -->
<g id="node5" class="node">
<title>local:twodheg_effective_mass::gcn_17c63b5dc2154f15</title>
<polygon fill="#ddeeff" stroke="#4488bb" points="731.75,-343 486.25,-343 486.25,-307 731.75,-307 731.75,-343"/>
<text xml:space="preserve" text-anchor="middle" x="609" y="-328.25" font-family="Helvetica,sans-Serif" font-size="10.00">Residual fixed&#45;node/time&#45;step biases are small</text>
<text xml:space="preserve" text-anchor="middle" x="609" y="-315.5" font-family="Helvetica,sans-Serif" font-size="10.00">(0.72 → 0.74)</text>
</g>
<!-- local:twodheg_effective_mass::gcn_17c63b5dc2154f15&#45;&gt;strat_5 -->
<g id="edge14" class="edge">
<title>local:twodheg_effective_mass::gcn_17c63b5dc2154f15&#45;&gt;strat_5</title>
<path fill="none" stroke="black" d="M609,-306.7C609,-299.41 609,-290.73 609,-282.54"/>
<polygon fill="black" stroke="black" points="612.5,-282.62 609,-272.62 605.5,-282.62 612.5,-282.62"/>
</g>
<!-- local:twodheg_effective_mass::gcn_b7a7d456a05d4129 -->
<g id="node6" class="node">
<title>local:twodheg_effective_mass::gcn_b7a7d456a05d4129</title>
<polygon fill="#ddffdd" stroke="#44bb44" points="731.25,-197.5 488.75,-197.5 488.75,-161.5 731.25,-161.5 731.25,-197.5"/>
<text xml:space="preserve" text-anchor="middle" x="610" y="-182.75" font-family="Helvetica,sans-Serif" font-size="10.00">Revised thermodynamic&#45;limit m* benchmarks</text>
<text xml:space="preserve" text-anchor="middle" x="610" y="-170" font-family="Helvetica,sans-Serif" font-size="10.00">(0.80)</text>
</g>
<!-- local:twodheg_effective_mass::gcn_b7a7d456a05d4129&#45;&gt;oper_0 -->
<g id="edge23" class="edge">
<title>local:twodheg_effective_mass::gcn_b7a7d456a05d4129&#45;&gt;oper_0</title>
<path fill="none" stroke="black" d="M610,-161.2C610,-150.35 610,-136.42 610,-125.6"/>
</g>
<!-- strat_5&#45;&gt;local:twodheg_effective_mass::gcn_b7a7d456a05d4129 -->
<g id="edge15" class="edge">
<title>strat_5&#45;&gt;local:twodheg_effective_mass::gcn_b7a7d456a05d4129</title>
<path fill="none" stroke="black" d="M609.24,-234.69C609.35,-227.02 609.48,-217.79 609.6,-209.14"/>
<polygon fill="black" stroke="black" points="613.1,-209.46 609.74,-199.41 606.1,-209.36 613.1,-209.46"/>
</g>
<!-- local:twodheg_effective_mass::gcn_850fc9d9de314026 -->
<g id="node8" class="node">
<title>local:twodheg_effective_mass::gcn_850fc9d9de314026</title>
<polygon fill="#ddeeff" stroke="#4488bb" points="1570.5,-488.5 1341.5,-488.5 1341.5,-452.5 1570.5,-452.5 1570.5,-488.5"/>
<text xml:space="preserve" text-anchor="middle" x="1456" y="-473.75" font-family="Helvetica,sans-Serif" font-size="10.00">Excited&#45;state reoptimization finite&#45;size bias</text>
<text xml:space="preserve" text-anchor="middle" x="1456" y="-461" font-family="Helvetica,sans-Serif" font-size="10.00">(0.76 → 0.84)</text>
</g>
<!-- strat_3 -->
<g id="node14" class="node">
<title>strat_3</title>
<ellipse fill="#fff9c4" stroke="#f9a825" cx="1456" cy="-398.5" rx="39.16" ry="18"/>
<text xml:space="preserve" text-anchor="middle" x="1456" y="-395.38" font-family="Helvetica,sans-Serif" font-size="10.00">deduction</text>
</g>
<!-- local:twodheg_effective_mass::gcn_850fc9d9de314026&#45;&gt;strat_3 -->
<g id="edge7" class="edge">
<title>local:twodheg_effective_mass::gcn_850fc9d9de314026&#45;&gt;strat_3</title>
<path fill="none" stroke="black" d="M1456,-452.2C1456,-444.91 1456,-436.23 1456,-428.04"/>
<polygon fill="black" stroke="black" points="1459.5,-428.12 1456,-418.12 1452.5,-428.12 1459.5,-428.12"/>
</g>
<!-- strat_7 -->
<g id="node27" class="node">
<title>strat_7</title>
<ellipse fill="#fff9c4" stroke="#f9a825" cx="1619" cy="-398.5" rx="32.28" ry="18"/>
<text xml:space="preserve" text-anchor="middle" x="1619" y="-395.38" font-family="Helvetica,sans-Serif" font-size="10.00">support</text>
</g>
<!-- local:twodheg_effective_mass::gcn_850fc9d9de314026&#45;&gt;strat_7 -->
<g id="edge18" class="edge">
<title>local:twodheg_effective_mass::gcn_850fc9d9de314026&#45;&gt;strat_7</title>
<path fill="none" stroke="black" d="M1499.12,-452.08C1523.8,-441.96 1555.27,-428.82 1583,-416.5 1583.61,-416.23 1584.23,-415.95 1584.85,-415.67"/>
<polygon fill="black" stroke="black" points="1586.05,-418.97 1593.68,-411.62 1583.13,-412.61 1586.05,-418.97"/>
</g>
<!-- local:twodheg_effective_mass::gcn_c7b10e47e2ab45e1 -->
<g id="node9" class="node">
<title>local:twodheg_effective_mass::gcn_c7b10e47e2ab45e1</title>
<polygon fill="#ddffdd" stroke="#44bb44" points="1570.5,-343 1341.5,-343 1341.5,-307 1570.5,-307 1570.5,-343"/>
<text xml:space="preserve" text-anchor="middle" x="1456" y="-328.25" font-family="Helvetica,sans-Serif" font-size="10.00">Quantified reoptimization bias in finite cells</text>
<text xml:space="preserve" text-anchor="middle" x="1456" y="-315.5" font-family="Helvetica,sans-Serif" font-size="10.00">(0.90)</text>
</g>
<!-- local:twodheg_effective_mass::gcn_48797cba2bf44d90 -->
<g id="node10" class="node">
<title>local:twodheg_effective_mass::gcn_48797cba2bf44d90</title>
<polygon fill="#ddeeff" stroke="#4488bb" points="1323.62,-488.5 1158.38,-488.5 1158.38,-452.5 1323.62,-452.5 1323.62,-488.5"/>
<text xml:space="preserve" text-anchor="middle" x="1241" y="-473.75" font-family="Helvetica,sans-Serif" font-size="10.00">Quartic band derivative for m*</text>
<text xml:space="preserve" text-anchor="middle" x="1241" y="-461" font-family="Helvetica,sans-Serif" font-size="10.00">(0.78 → 0.78)</text>
</g>
<!-- strat_4 -->
<g id="node15" class="node">
<title>strat_4</title>
<ellipse fill="#fff9c4" stroke="#f9a825" cx="981" cy="-398.5" rx="39.16" ry="18"/>
<text xml:space="preserve" text-anchor="middle" x="981" y="-395.38" font-family="Helvetica,sans-Serif" font-size="10.00">deduction</text>
</g>
<!-- local:twodheg_effective_mass::gcn_48797cba2bf44d90&#45;&gt;strat_4 -->
<g id="edge9" class="edge">
<title>local:twodheg_effective_mass::gcn_48797cba2bf44d90&#45;&gt;strat_4</title>
<path fill="none" stroke="black" d="M1176.06,-452.02C1129.04,-439.36 1066.72,-422.58 1025.31,-411.43"/>
<polygon fill="black" stroke="black" points="1026.25,-408.06 1015.68,-408.84 1024.43,-414.82 1026.25,-408.06"/>
</g>
<!-- local:twodheg_effective_mass::gcn_1e8fcb7ef934428d -->
<g id="node11" class="node">
<title>local:twodheg_effective_mass::gcn_1e8fcb7ef934428d</title>
<polygon fill="#ddeeff" stroke="#4488bb" points="937.5,-488.5 756.5,-488.5 756.5,-452.5 937.5,-452.5 937.5,-488.5"/>
<text xml:space="preserve" text-anchor="middle" x="847" y="-473.75" font-family="Helvetica,sans-Serif" font-size="10.00">Power&#45;law extrapolation of m*(N)</text>
<text xml:space="preserve" text-anchor="middle" x="847" y="-461" font-family="Helvetica,sans-Serif" font-size="10.00">(0.75 → 0.75)</text>
</g>
<!-- local:twodheg_effective_mass::gcn_1e8fcb7ef934428d&#45;&gt;strat_4 -->
<g id="edge10" class="edge">
<title>local:twodheg_effective_mass::gcn_1e8fcb7ef934428d&#45;&gt;strat_4</title>
<path fill="none" stroke="black" d="M880.47,-452.02C900.4,-441.6 925.68,-428.4 945.89,-417.84"/>
<polygon fill="black" stroke="black" points="947.37,-421.02 954.61,-413.29 944.13,-414.81 947.37,-421.02"/>
</g>
<!-- local:twodheg_effective_mass::gcn_50e263dc961541e0 -->
<g id="node12" class="node">
<title>local:twodheg_effective_mass::gcn_50e263dc961541e0</title>
<polygon fill="#ddeeff" stroke="#4488bb" points="1140.75,-488.5 955.25,-488.5 955.25,-452.5 1140.75,-452.5 1140.75,-488.5"/>
<text xml:space="preserve" text-anchor="middle" x="1048" y="-473.75" font-family="Helvetica,sans-Serif" font-size="10.00">Wide k&#45;window stabilizes band fits</text>
<text xml:space="preserve" text-anchor="middle" x="1048" y="-461" font-family="Helvetica,sans-Serif" font-size="10.00">(0.76 → 0.76)</text>
</g>
<!-- local:twodheg_effective_mass::gcn_50e263dc961541e0&#45;&gt;strat_4 -->
<g id="edge11" class="edge">
<title>local:twodheg_effective_mass::gcn_50e263dc961541e0&#45;&gt;strat_4</title>
<path fill="none" stroke="black" d="M1031.44,-452.2C1023.13,-443.52 1012.94,-432.87 1003.89,-423.42"/>
<polygon fill="black" stroke="black" points="1006.49,-421.07 997.05,-416.26 1001.43,-425.91 1006.49,-421.07"/>
</g>
<!-- local:twodheg_effective_mass::gcn_a981a2b787514e47 -->
<g id="node13" class="node">
<title>local:twodheg_effective_mass::gcn_a981a2b787514e47</title>
<polygon fill="#ddffdd" stroke="#44bb44" points="1066.62,-343 829.38,-343 829.38,-307 1066.62,-307 1066.62,-343"/>
<text xml:space="preserve" text-anchor="middle" x="948" y="-328.25" font-family="Helvetica,sans-Serif" font-size="10.00">DMC band&#45;fit protocol for thermodynamic m*</text>
<text xml:space="preserve" text-anchor="middle" x="948" y="-315.5" font-family="Helvetica,sans-Serif" font-size="10.00">(0.71)</text>
</g>
<!-- strat_8 -->
<g id="node28" class="node">
<title>strat_8</title>
<ellipse fill="#fff9c4" stroke="#f9a825" cx="814" cy="-253" rx="32.28" ry="18"/>
<text xml:space="preserve" text-anchor="middle" x="814" y="-249.88" font-family="Helvetica,sans-Serif" font-size="10.00">support</text>
</g>
<!-- local:twodheg_effective_mass::gcn_a981a2b787514e47&#45;&gt;strat_8 -->
<g id="edge20" class="edge">
<title>local:twodheg_effective_mass::gcn_a981a2b787514e47&#45;&gt;strat_8</title>
<path fill="none" stroke="black" d="M914.53,-306.52C893.94,-295.76 867.64,-282.02 847.11,-271.3"/>
<polygon fill="black" stroke="black" points="848.79,-268.22 838.31,-266.7 845.55,-274.43 848.79,-268.22"/>
</g>
<!-- strat_3&#45;&gt;local:twodheg_effective_mass::gcn_c7b10e47e2ab45e1 -->
<g id="edge8" class="edge">
<title>strat_3&#45;&gt;local:twodheg_effective_mass::gcn_c7b10e47e2ab45e1</title>
<path fill="none" stroke="black" d="M1456,-380.19C1456,-372.52 1456,-363.29 1456,-354.64"/>
<polygon fill="black" stroke="black" points="1459.5,-354.91 1456,-344.91 1452.5,-354.91 1459.5,-354.91"/>
</g>
<!-- strat_4&#45;&gt;local:twodheg_effective_mass::gcn_a981a2b787514e47 -->
<g id="edge12" class="edge">
<title>strat_4&#45;&gt;local:twodheg_effective_mass::gcn_a981a2b787514e47</title>
<path fill="none" stroke="black" d="M973.18,-380.56C969.45,-372.48 964.9,-362.62 960.7,-353.51"/>
<polygon fill="black" stroke="black" points="964,-352.31 956.63,-344.69 957.64,-355.24 964,-352.31"/>
</g>
<!-- local:twodheg_effective_mass::gcn_219b34bd252c43fa -->
<g id="node16" class="node">
<title>local:twodheg_effective_mass::gcn_219b34bd252c43fa</title>
<polygon fill="#ddeeff" stroke="#4488bb" points="2226.5,-488.5 1973.5,-488.5 1973.5,-452.5 2226.5,-452.5 2226.5,-488.5"/>
<text xml:space="preserve" text-anchor="middle" x="2100" y="-473.75" font-family="Helvetica,sans-Serif" font-size="10.00">N^&#45;1/4 finite&#45;size scaling for Landau parameters</text>
<text xml:space="preserve" text-anchor="middle" x="2100" y="-461" font-family="Helvetica,sans-Serif" font-size="10.00">(0.78 → 0.45)</text>
</g>
<!-- strat_6 -->
<g id="node26" class="node">
<title>strat_6</title>
<ellipse fill="#fff9c4" stroke="#f9a825" cx="1925" cy="-398.5" rx="32.28" ry="18"/>
<text xml:space="preserve" text-anchor="middle" x="1925" y="-395.38" font-family="Helvetica,sans-Serif" font-size="10.00">support</text>
</g>
<!-- local:twodheg_effective_mass::gcn_219b34bd252c43fa&#45;&gt;strat_6 -->
<g id="edge16" class="edge">
<title>local:twodheg_effective_mass::gcn_219b34bd252c43fa&#45;&gt;strat_6</title>
<path fill="none" stroke="black" d="M2051.39,-452.01C2024.54,-442.09 1990.7,-429.15 1961,-416.5 1960.38,-416.24 1959.76,-415.97 1959.14,-415.7"/>
<polygon fill="black" stroke="black" points="1960.83,-412.62 1950.28,-411.72 1957.96,-419.01 1960.83,-412.62"/>
</g>
<!-- oper_1 -->
<g id="node30" class="node">
<title>oper_1</title>
<polygon fill="#ffebee" stroke="#c62828" points="2252.29,-253 2220.15,-271 2155.85,-271 2123.71,-253 2155.85,-235 2220.15,-235 2252.29,-253"/>
<text xml:space="preserve" text-anchor="middle" x="2188" y="-249.88" font-family="Helvetica,sans-Serif" font-size="10.00">⊗ contradiction</text>
</g>
<!-- local:twodheg_effective_mass::gcn_219b34bd252c43fa&#45;&gt;oper_1 -->
<g id="edge25" class="edge">
<title>local:twodheg_effective_mass::gcn_219b34bd252c43fa&#45;&gt;oper_1</title>
<path fill="none" stroke="black" d="M2226.68,-453.63C2229.82,-453.25 2232.93,-452.87 2236,-452.5 2372.82,-435.95 2420.3,-477.27 2544,-416.5 2568.54,-404.44 2576.68,-397.82 2587,-372.5 2599.33,-342.25 2608.77,-323.36 2587,-299 2564.76,-274.11 2352.52,-261.28 2246.99,-256.39"/>
</g>
<!-- local:twodheg_effective_mass::gcn_3ceb44ae3f404964 -->
<g id="node17" class="node">
<title>local:twodheg_effective_mass::gcn_3ceb44ae3f404964</title>
<polygon fill="#ddeeff" stroke="#4488bb" points="2433.25,-488.5 2244.75,-488.5 2244.75,-452.5 2433.25,-452.5 2433.25,-488.5"/>
<text xml:space="preserve" text-anchor="middle" x="2339" y="-473.75" font-family="Helvetica,sans-Serif" font-size="10.00">Theoretical N^&#45;1/4 scaling premise</text>
<text xml:space="preserve" text-anchor="middle" x="2339" y="-461" font-family="Helvetica,sans-Serif" font-size="10.00">(0.78 → 0.50)</text>
</g>
<!-- strat_1 -->
<g id="node21" class="node">
<title>strat_1</title>
<ellipse fill="#fff9c4" stroke="#f9a825" cx="2263" cy="-398.5" rx="39.16" ry="18"/>
<text xml:space="preserve" text-anchor="middle" x="2263" y="-395.38" font-family="Helvetica,sans-Serif" font-size="10.00">deduction</text>
</g>
<!-- local:twodheg_effective_mass::gcn_3ceb44ae3f404964&#45;&gt;strat_1 -->
<g id="edge3" class="edge">
<title>local:twodheg_effective_mass::gcn_3ceb44ae3f404964&#45;&gt;strat_1</title>
<path fill="none" stroke="black" d="M2320.21,-452.2C2310.6,-443.34 2298.76,-432.43 2288.34,-422.84"/>
<polygon fill="black" stroke="black" points="2290.85,-420.4 2281.13,-416.2 2286.11,-425.55 2290.85,-420.4"/>
</g>
<!-- local:twodheg_effective_mass::gcn_3db07703d3684507 -->
<g id="node18" class="node">
<title>local:twodheg_effective_mass::gcn_3db07703d3684507</title>
<polygon fill="#ddffdd" stroke="#44bb44" points="2309.62,-343 2066.38,-343 2066.38,-307 2309.62,-307 2309.62,-343"/>
<text xml:space="preserve" text-anchor="middle" x="2188" y="-328.25" font-family="Helvetica,sans-Serif" font-size="10.00">Shell noise undermines direct FL extrapolation</text>
<text xml:space="preserve" text-anchor="middle" x="2188" y="-315.5" font-family="Helvetica,sans-Serif" font-size="10.00">(0.48)</text>
</g>
<!-- local:twodheg_effective_mass::gcn_3db07703d3684507&#45;&gt;oper_1 -->
<g id="edge26" class="edge">
<title>local:twodheg_effective_mass::gcn_3db07703d3684507&#45;&gt;oper_1</title>
<path fill="none" stroke="black" d="M2188,-306.7C2188,-295.85 2188,-281.92 2188,-271.1"/>
</g>
<!-- local:twodheg_effective_mass::gcn_836bae7457044c7a -->
<g id="node19" class="node">
<title>local:twodheg_effective_mass::gcn_836bae7457044c7a</title>
<polygon fill="#ddeeff" stroke="#4488bb" points="2670.62,-488.5 2451.38,-488.5 2451.38,-452.5 2670.62,-452.5 2670.62,-488.5"/>
<text xml:space="preserve" text-anchor="middle" x="2561" y="-473.75" font-family="Helvetica,sans-Serif" font-size="10.00">Assembling best&#45;available FL parameters</text>
<text xml:space="preserve" text-anchor="middle" x="2561" y="-461" font-family="Helvetica,sans-Serif" font-size="10.00">(0.74 → 0.74)</text>
</g>
<!-- strat_2 -->
<g id="node22" class="node">
<title>strat_2</title>
<ellipse fill="#fff9c4" stroke="#f9a825" cx="2496" cy="-398.5" rx="39.16" ry="18"/>
<text xml:space="preserve" text-anchor="middle" x="2496" y="-395.38" font-family="Helvetica,sans-Serif" font-size="10.00">deduction</text>
</g>
<!-- local:twodheg_effective_mass::gcn_836bae7457044c7a&#45;&gt;strat_2 -->
<g id="edge5" class="edge">
<title>local:twodheg_effective_mass::gcn_836bae7457044c7a&#45;&gt;strat_2</title>
<path fill="none" stroke="black" d="M2544.93,-452.2C2536.87,-443.52 2526.98,-432.87 2518.21,-423.42"/>
<polygon fill="black" stroke="black" points="2520.95,-421.23 2511.58,-416.28 2515.82,-425.99 2520.95,-421.23"/>
</g>
<!-- local:twodheg_effective_mass::gcn_306f15c9d5814e23 -->
<g id="node20" class="node">
<title>local:twodheg_effective_mass::gcn_306f15c9d5814e23</title>
<polygon fill="#ddffdd" stroke="#44bb44" points="2578.38,-343 2327.62,-343 2327.62,-307 2578.38,-307 2578.38,-343"/>
<text xml:space="preserve" text-anchor="middle" x="2453" y="-328.25" font-family="Helvetica,sans-Serif" font-size="10.00">Recommended 2D HEG Fermi&#45;liquid parameters</text>
<text xml:space="preserve" text-anchor="middle" x="2453" y="-315.5" font-family="Helvetica,sans-Serif" font-size="10.00">(0.85)</text>
</g>
<!-- strat_1&#45;&gt;local:twodheg_effective_mass::gcn_3db07703d3684507 -->
<g id="edge4" class="edge">
<title>strat_1&#45;&gt;local:twodheg_effective_mass::gcn_3db07703d3684507</title>
<path fill="none" stroke="black" d="M2246.73,-381.99C2237.34,-373.04 2225.32,-361.58 2214.59,-351.35"/>
<polygon fill="black" stroke="black" points="2217.1,-348.91 2207.45,-344.54 2212.27,-353.97 2217.1,-348.91"/>
</g>
<!-- strat_2&#45;&gt;local:twodheg_effective_mass::gcn_306f15c9d5814e23 -->
<g id="edge6" class="edge">
<title>strat_2&#45;&gt;local:twodheg_effective_mass::gcn_306f15c9d5814e23</title>
<path fill="none" stroke="black" d="M2486.03,-380.92C2481.07,-372.68 2474.96,-362.51 2469.34,-353.17"/>
<polygon fill="black" stroke="black" points="2472.45,-351.55 2464.3,-344.79 2466.45,-355.16 2472.45,-351.55"/>
</g>
<!-- local:twodheg_effective_mass::gcn_da3eecec49114543 -->
<g id="node23" class="node">
<title>local:twodheg_effective_mass::gcn_da3eecec49114543</title>
<polygon fill="#ddeeff" stroke="#4488bb" points="1867.75,-488.5 1676.25,-488.5 1676.25,-452.5 1867.75,-452.5 1867.75,-488.5"/>
<text xml:space="preserve" text-anchor="middle" x="1772" y="-473.75" font-family="Helvetica,sans-Serif" font-size="10.00">Finite&#45;size kinetic&#45;energy correction</text>
<text xml:space="preserve" text-anchor="middle" x="1772" y="-461" font-family="Helvetica,sans-Serif" font-size="10.00">(0.82 → 0.89)</text>
</g>
<!-- strat_0 -->
<g id="node25" class="node">
<title>strat_0</title>
<ellipse fill="#fff9c4" stroke="#f9a825" cx="1772" cy="-398.5" rx="39.16" ry="18"/>
<text xml:space="preserve" text-anchor="middle" x="1772" y="-395.38" font-family="Helvetica,sans-Serif" font-size="10.00">deduction</text>
</g>
<!-- local:twodheg_effective_mass::gcn_da3eecec49114543&#45;&gt;strat_0 -->
<g id="edge1" class="edge">
<title>local:twodheg_effective_mass::gcn_da3eecec49114543&#45;&gt;strat_0</title>
<path fill="none" stroke="black" d="M1772,-452.2C1772,-444.91 1772,-436.23 1772,-428.04"/>
<polygon fill="black" stroke="black" points="1775.5,-428.12 1772,-418.12 1768.5,-428.12 1775.5,-428.12"/>
</g>
<!-- local:twodheg_effective_mass::gcn_28b9e01bd2f8487f -->
<g id="node24" class="node">
<title>local:twodheg_effective_mass::gcn_28b9e01bd2f8487f</title>
<polygon fill="#d4edda" stroke="#28a745" stroke-width="2" points="1876.75,-343 1667.25,-343 1667.25,-307 1876.75,-307 1876.75,-343"/>
<text xml:space="preserve" text-anchor="middle" x="1772" y="-328.25" font-family="Helvetica,sans-Serif" font-size="10.00">★ Slow finite&#45;size errors can flip m* &#45; m</text>
<text xml:space="preserve" text-anchor="middle" x="1772" y="-315.5" font-family="Helvetica,sans-Serif" font-size="10.00">(0.98)</text>
</g>
<!-- strat_0&#45;&gt;local:twodheg_effective_mass::gcn_28b9e01bd2f8487f -->
<g id="edge2" class="edge">
<title>strat_0&#45;&gt;local:twodheg_effective_mass::gcn_28b9e01bd2f8487f</title>
<path fill="none" stroke="black" d="M1772,-380.19C1772,-372.72 1772,-363.77 1772,-355.31"/>
<polygon fill="black" stroke="black" points="1775.5,-355.41 1772,-345.41 1768.5,-355.41 1775.5,-355.41"/>
</g>
<!-- strat_6&#45;&gt;local:twodheg_effective_mass::gcn_28b9e01bd2f8487f -->
<g id="edge17" class="edge">
<title>strat_6&#45;&gt;local:twodheg_effective_mass::gcn_28b9e01bd2f8487f</title>
<path fill="none" stroke="black" d="M1901,-386.14C1896.99,-384.26 1892.88,-382.32 1889,-380.5 1866.7,-370.04 1841.98,-358.51 1821.02,-348.77"/>
<polygon fill="black" stroke="black" points="1822.67,-345.67 1812.13,-344.63 1819.72,-352.02 1822.67,-345.67"/>
</g>
<!-- strat_7&#45;&gt;local:twodheg_effective_mass::gcn_28b9e01bd2f8487f -->
<g id="edge19" class="edge">
<title>strat_7&#45;&gt;local:twodheg_effective_mass::gcn_28b9e01bd2f8487f</title>
<path fill="none" stroke="black" d="M1643,-386.14C1647.01,-384.26 1651.12,-382.32 1655,-380.5 1677.3,-370.04 1702.02,-358.51 1722.98,-348.77"/>
<polygon fill="black" stroke="black" points="1724.28,-352.02 1731.87,-344.63 1721.33,-345.67 1724.28,-352.02"/>
</g>
<!-- strat_8&#45;&gt;local:twodheg_effective_mass::gcn_b7a7d456a05d4129 -->
<g id="edge21" class="edge">
<title>strat_8&#45;&gt;local:twodheg_effective_mass::gcn_b7a7d456a05d4129</title>
<path fill="none" stroke="black" d="M787.33,-242.65C757.81,-232.31 709.28,-215.3 670.44,-201.68"/>
<polygon fill="black" stroke="black" points="671.79,-198.45 661.2,-198.44 669.48,-205.06 671.79,-198.45"/>
</g>
<!-- oper_0&#45;&gt;local:twodheg_effective_mass::older_dmc_enhancement_vs_revised_dmc_benchmarks -->
<g id="edge24" class="edge">
<title>oper_0&#45;&gt;local:twodheg_effective_mass::older_dmc_enhancement_vs_revised_dmc_benchmarks</title>
<path fill="none" stroke="black" d="M663.33,-100.86C772.52,-89.31 1023.71,-62.74 1171.52,-47.11"/>
</g>
<!-- oper_1&#45;&gt;local:twodheg_effective_mass::n_quarter_scaling_vs_shell_filling_noise -->
<g id="edge27" class="edge">
<title>oper_1&#45;&gt;local:twodheg_effective_mass::n_quarter_scaling_vs_shell_filling_noise</title>
<path fill="none" stroke="black" d="M2147.74,-239.08C2031.91,-201.89 1697.75,-94.63 1566.16,-52.39"/>
</g>
</g>
</svg>
