<?xml version="1.0" encoding="UTF-8" standalone="no"?>
<!DOCTYPE svg PUBLIC "-//W3C//DTD SVG 1.1//EN"
 "http://www.w3.org/Graphics/SVG/1.1/DTD/svg11.dtd">
<!-- Generated by graphviz version 14.1.5 (20260411.2331)
 -->
<!-- Title: starmap Pages: 1 -->
<svg width="1911pt" height="534pt"
 viewBox="0.00 0.00 1911.00 534.00" xmlns="http://www.w3.org/2000/svg" xmlns:xlink="http://www.w3.org/1999/xlink">
<g id="graph0" class="graph" transform="scale(1 1) rotate(0) translate(4 530)">
<title>starmap</title>
<polygon fill="white" stroke="none" points="-4,4 -4,-530 1907,-530 1907,4 -4,4"/>
<g id="clust1" class="cluster">
<title>cluster_cross_paper</title>
<path fill="#fafafa" stroke="#999999" d="M746,-8C746,-8 1256,-8 1256,-8 1262,-8 1268,-14 1268,-20 1268,-20 1268,-69.5 1268,-69.5 1268,-75.5 1262,-81.5 1256,-81.5 1256,-81.5 746,-81.5 746,-81.5 740,-81.5 734,-75.5 734,-69.5 734,-69.5 734,-20 734,-20 734,-14 740,-8 746,-8"/>
<text xml:space="preserve" text-anchor="middle" x="1001" y="-67.05" font-family="Times,serif" font-size="11.00">cross_paper</text>
</g>
<g id="clust2" class="cluster">
<title>cluster_paper_drummond2009_fermi_fluid</title>
<path fill="#fafafa" stroke="#999999" d="M20,-153.5C20,-153.5 202,-153.5 202,-153.5 208,-153.5 214,-159.5 214,-165.5 214,-165.5 214,-215 214,-215 214,-221 208,-227 202,-227 202,-227 20,-227 20,-227 14,-227 8,-221 8,-215 8,-215 8,-165.5 8,-165.5 8,-159.5 14,-153.5 20,-153.5"/>
<text xml:space="preserve" text-anchor="middle" x="111" y="-212.55" font-family="Times,serif" font-size="11.00">paper_drummond2009_fermi_fluid</text>
</g>
<g id="clust3" class="cluster">
<title>cluster_paper_drummond2012_effective_mass</title>
<path fill="#fafafa" stroke="#999999" d="M234,-153.5C234,-153.5 509,-153.5 509,-153.5 515,-153.5 521,-159.5 521,-165.5 521,-165.5 521,-360.5 521,-360.5 521,-366.5 515,-372.5 509,-372.5 509,-372.5 234,-372.5 234,-372.5 228,-372.5 222,-366.5 222,-360.5 222,-360.5 222,-165.5 222,-165.5 222,-159.5 228,-153.5 234,-153.5"/>
<text xml:space="preserve" text-anchor="middle" x="371.5" y="-358.05" font-family="Times,serif" font-size="11.00">paper_drummond2012_effective_mass</text>
</g>
<g id="clust4" class="cluster">
<title>cluster_paper_drummond2013_effective_mass</title>
<path fill="#fafafa" stroke="#999999" d="M541,-299C541,-299 1115,-299 1115,-299 1121,-299 1127,-305 1127,-311 1127,-311 1127,-506 1127,-506 1127,-512 1121,-518 1115,-518 1115,-518 541,-518 541,-518 535,-518 529,-512 529,-506 529,-506 529,-311 529,-311 529,-305 535,-299 541,-299"/>
<text xml:space="preserve" text-anchor="middle" x="828" y="-503.55" font-family="Times,serif" font-size="11.00">paper_drummond2013_effective_mass</text>
</g>
<g id="clust5" class="cluster">
<title>cluster_paper_drummond2013_fermi_liquid</title>
<path fill="#fafafa" stroke="#999999" d="M1457,-299C1457,-299 1883,-299 1883,-299 1889,-299 1895,-305 1895,-311 1895,-311 1895,-506 1895,-506 1895,-512 1889,-518 1883,-518 1883,-518 1457,-518 1457,-518 1451,-518 1445,-512 1445,-506 1445,-506 1445,-311 1445,-311 1445,-305 1451,-299 1457,-299"/>
<text xml:space="preserve" text-anchor="middle" x="1670" y="-503.55" font-family="Times,serif" font-size="11.00">paper_drummond2013_fermi_liquid</text>
</g>
<g id="clust6" class="cluster">
<title>cluster_paper_holzmann2008</title>
<path fill="#fafafa" stroke="#999999" d="M1219,-299C1219,-299 1353,-299 1353,-299 1359,-299 1365,-305 1365,-311 1365,-311 1365,-506 1365,-506 1365,-512 1359,-518 1353,-518 1353,-518 1219,-518 1219,-518 1213,-518 1207,-512 1207,-506 1207,-506 1207,-311 1207,-311 1207,-305 1213,-299 1219,-299"/>
<text xml:space="preserve" text-anchor="middle" x="1286" y="-503.55" font-family="Times,serif" font-size="11.00">paper_holzmann2008</text>
</g>
<!-- local:twodheg_effective_mass::older_dmc_enhancement_vs_revised_dmc_benchmarks -->
<g id="node1" class="node">
<title>local:twodheg_effective_mass::older_dmc_enhancement_vs_revised_dmc_benchmarks</title>
<polygon fill="#ddffdd" stroke="#44bb44" points="1030.12,-52 741.88,-52 741.88,-16 1030.12,-16 1030.12,-52"/>
<text xml:space="preserve" text-anchor="middle" x="886" y="-37.25" font-family="Helvetica,sans-Serif" font-size="10.00">older_dmc_enhancement_vs_revised_dmc_benchmarks</text>
<text xml:space="preserve" text-anchor="middle" x="886" y="-24.5" font-family="Helvetica,sans-Serif" font-size="10.00">(0.92 → 1.00)</text>
</g>
<!-- local:twodheg_effective_mass::n_quarter_scaling_vs_shell_filling_noise -->
<g id="node2" class="node">
<title>local:twodheg_effective_mass::n_quarter_scaling_vs_shell_filling_noise</title>
<polygon fill="#ddffdd" stroke="#44bb44" points="1259.5,-52 1048.5,-52 1048.5,-16 1259.5,-16 1259.5,-52"/>
<text xml:space="preserve" text-anchor="middle" x="1154" y="-37.25" font-family="Helvetica,sans-Serif" font-size="10.00">n_quarter_scaling_vs_shell_filling_noise</text>
<text xml:space="preserve" text-anchor="middle" x="1154" y="-24.5" font-family="Helvetica,sans-Serif" font-size="10.00">(0.90 → 1.00)</text>
</g>
<!-- local:twodheg_effective_mass::gcn_4d1aad1470d54895 -->
<g id="node3" class="node">
<title>local:twodheg_effective_mass::gcn_4d1aad1470d54895</title>
<polygon fill="#ddeeff" stroke="#4488bb" points="206.25,-197.5 71.75,-197.5 71.75,-161.5 206.25,-161.5 206.25,-197.5"/>
<text xml:space="preserve" text-anchor="middle" x="139" y="-182.75" font-family="Helvetica,sans-Serif" font-size="10.00">gcn_4d1aad1470d54895</text>
<text xml:space="preserve" text-anchor="middle" x="139" y="-170" font-family="Helvetica,sans-Serif" font-size="10.00">(0.68 → 0.14)</text>
</g>
<!-- oper_0 -->
<g id="node29" class="node">
<title>oper_0</title>
<polygon fill="#ffebee" stroke="#c62828" points="510.29,-107.5 478.15,-125.5 413.85,-125.5 381.71,-107.5 413.85,-89.5 478.15,-89.5 510.29,-107.5"/>
<text xml:space="preserve" text-anchor="middle" x="446" y="-104.38" font-family="Helvetica,sans-Serif" font-size="10.00">⊗ contradiction</text>
</g>
<!-- local:twodheg_effective_mass::gcn_4d1aad1470d54895&#45;&gt;oper_0 -->
<g id="edge22" class="edge">
<title>local:twodheg_effective_mass::gcn_4d1aad1470d54895&#45;&gt;oper_0</title>
<path fill="none" stroke="black" d="M191.46,-161C200.27,-158.32 209.36,-155.71 218,-153.5 279.17,-137.84 350.76,-124.51 397.17,-116.51"/>
</g>
<!-- local:twodheg_effective_mass::gcn_a685639571304474 -->
<g id="node4" class="node">
<title>local:twodheg_effective_mass::gcn_a685639571304474</title>
<polygon fill="#ddeeff" stroke="#4488bb" points="364.25,-343 229.75,-343 229.75,-307 364.25,-307 364.25,-343"/>
<text xml:space="preserve" text-anchor="middle" x="297" y="-328.25" font-family="Helvetica,sans-Serif" font-size="10.00">gcn_a685639571304474</text>
<text xml:space="preserve" text-anchor="middle" x="297" y="-315.5" font-family="Helvetica,sans-Serif" font-size="10.00">(0.75 → 0.76)</text>
</g>
<!-- strat_5 -->
<g id="node7" class="node">
<title>strat_5</title>
<ellipse fill="#fff9c4" stroke="#f9a825" cx="446" cy="-253" rx="39.16" ry="18"/>
<text xml:space="preserve" text-anchor="middle" x="446" y="-249.88" font-family="Helvetica,sans-Serif" font-size="10.00">deduction</text>
</g>
<!-- local:twodheg_effective_mass::gcn_a685639571304474&#45;&gt;strat_5 -->
<g id="edge13" class="edge">
<title>local:twodheg_effective_mass::gcn_a685639571304474&#45;&gt;strat_5</title>
<path fill="none" stroke="black" d="M334.21,-306.52C357.13,-295.75 386.4,-282 409.23,-271.27"/>
<polygon fill="black" stroke="black" points="410.61,-274.49 418.18,-267.07 407.64,-268.16 410.61,-274.49"/>
</g>
<!-- local:twodheg_effective_mass::gcn_17c63b5dc2154f15 -->
<g id="node5" class="node">
<title>local:twodheg_effective_mass::gcn_17c63b5dc2154f15</title>
<polygon fill="#ddeeff" stroke="#4488bb" points="513.38,-343 382.62,-343 382.62,-307 513.38,-307 513.38,-343"/>
<text xml:space="preserve" text-anchor="middle" x="448" y="-328.25" font-family="Helvetica,sans-Serif" font-size="10.00">gcn_17c63b5dc2154f15</text>
<text xml:space="preserve" text-anchor="middle" x="448" y="-315.5" font-family="Helvetica,sans-Serif" font-size="10.00">(0.72 → 0.74)</text>
</g>
<!-- local:twodheg_effective_mass::gcn_17c63b5dc2154f15&#45;&gt;strat_5 -->
<g id="edge14" class="edge">
<title>local:twodheg_effective_mass::gcn_17c63b5dc2154f15&#45;&gt;strat_5</title>
<path fill="none" stroke="black" d="M447.51,-306.7C447.3,-299.41 447.05,-290.73 446.82,-282.54"/>
<polygon fill="black" stroke="black" points="450.32,-282.51 446.53,-272.62 443.32,-282.71 450.32,-282.51"/>
</g>
<!-- local:twodheg_effective_mass::gcn_b7a7d456a05d4129 -->
<g id="node6" class="node">
<title>local:twodheg_effective_mass::gcn_b7a7d456a05d4129</title>
<polygon fill="#ddffdd" stroke="#44bb44" points="513.25,-197.5 378.75,-197.5 378.75,-161.5 513.25,-161.5 513.25,-197.5"/>
<text xml:space="preserve" text-anchor="middle" x="446" y="-182.75" font-family="Helvetica,sans-Serif" font-size="10.00">gcn_b7a7d456a05d4129</text>
<text xml:space="preserve" text-anchor="middle" x="446" y="-170" font-family="Helvetica,sans-Serif" font-size="10.00">(0.80)</text>
</g>
<!-- local:twodheg_effective_mass::gcn_b7a7d456a05d4129&#45;&gt;oper_0 -->
<g id="edge23" class="edge">
<title>local:twodheg_effective_mass::gcn_b7a7d456a05d4129&#45;&gt;oper_0</title>
<path fill="none" stroke="black" d="M446,-161.2C446,-150.35 446,-136.42 446,-125.6"/>
</g>
<!-- strat_5&#45;&gt;local:twodheg_effective_mass::gcn_b7a7d456a05d4129 -->
<g id="edge15" class="edge">
<title>strat_5&#45;&gt;local:twodheg_effective_mass::gcn_b7a7d456a05d4129</title>
<path fill="none" stroke="black" d="M446,-234.69C446,-227.02 446,-217.79 446,-209.14"/>
<polygon fill="black" stroke="black" points="449.5,-209.41 446,-199.41 442.5,-209.41 449.5,-209.41"/>
</g>
<!-- local:twodheg_effective_mass::gcn_850fc9d9de314026 -->
<g id="node8" class="node">
<title>local:twodheg_effective_mass::gcn_850fc9d9de314026</title>
<polygon fill="#ddeeff" stroke="#4488bb" points="1118.75,-488.5 987.25,-488.5 987.25,-452.5 1118.75,-452.5 1118.75,-488.5"/>
<text xml:space="preserve" text-anchor="middle" x="1053" y="-473.75" font-family="Helvetica,sans-Serif" font-size="10.00">gcn_850fc9d9de314026</text>
<text xml:space="preserve" text-anchor="middle" x="1053" y="-461" font-family="Helvetica,sans-Serif" font-size="10.00">(0.76 → 0.84)</text>
</g>
<!-- strat_3 -->
<g id="node14" class="node">
<title>strat_3</title>
<ellipse fill="#fff9c4" stroke="#f9a825" cx="1052" cy="-398.5" rx="39.16" ry="18"/>
<text xml:space="preserve" text-anchor="middle" x="1052" y="-395.38" font-family="Helvetica,sans-Serif" font-size="10.00">deduction</text>
</g>
<!-- local:twodheg_effective_mass::gcn_850fc9d9de314026&#45;&gt;strat_3 -->
<g id="edge7" class="edge">
<title>local:twodheg_effective_mass::gcn_850fc9d9de314026&#45;&gt;strat_3</title>
<path fill="none" stroke="black" d="M1052.75,-452.2C1052.65,-444.91 1052.52,-436.23 1052.41,-428.04"/>
<polygon fill="black" stroke="black" points="1055.91,-428.07 1052.27,-418.12 1048.91,-428.17 1055.91,-428.07"/>
</g>
<!-- strat_7 -->
<g id="node27" class="node">
<title>strat_7</title>
<ellipse fill="#fff9c4" stroke="#f9a825" cx="1167" cy="-398.5" rx="32.28" ry="18"/>
<text xml:space="preserve" text-anchor="middle" x="1167" y="-395.38" font-family="Helvetica,sans-Serif" font-size="10.00">support</text>
</g>
<!-- local:twodheg_effective_mass::gcn_850fc9d9de314026&#45;&gt;strat_7 -->
<g id="edge18" class="edge">
<title>local:twodheg_effective_mass::gcn_850fc9d9de314026&#45;&gt;strat_7</title>
<path fill="none" stroke="black" d="M1081.47,-452.02C1098.23,-441.73 1119.42,-428.71 1136.52,-418.22"/>
<polygon fill="black" stroke="black" points="1138.07,-421.37 1144.76,-413.16 1134.41,-415.41 1138.07,-421.37"/>
</g>
<!-- local:twodheg_effective_mass::gcn_c7b10e47e2ab45e1 -->
<g id="node9" class="node">
<title>local:twodheg_effective_mass::gcn_c7b10e47e2ab45e1</title>
<polygon fill="#ddffdd" stroke="#44bb44" points="1118.88,-343 985.12,-343 985.12,-307 1118.88,-307 1118.88,-343"/>
<text xml:space="preserve" text-anchor="middle" x="1052" y="-328.25" font-family="Helvetica,sans-Serif" font-size="10.00">gcn_c7b10e47e2ab45e1</text>
<text xml:space="preserve" text-anchor="middle" x="1052" y="-315.5" font-family="Helvetica,sans-Serif" font-size="10.00">(0.90)</text>
</g>
<!-- local:twodheg_effective_mass::gcn_48797cba2bf44d90 -->
<g id="node10" class="node">
<title>local:twodheg_effective_mass::gcn_48797cba2bf44d90</title>
<polygon fill="#ddeeff" stroke="#4488bb" points="968.75,-488.5 837.25,-488.5 837.25,-452.5 968.75,-452.5 968.75,-488.5"/>
<text xml:space="preserve" text-anchor="middle" x="903" y="-473.75" font-family="Helvetica,sans-Serif" font-size="10.00">gcn_48797cba2bf44d90</text>
<text xml:space="preserve" text-anchor="middle" x="903" y="-461" font-family="Helvetica,sans-Serif" font-size="10.00">(0.78 → 0.78)</text>
</g>
<!-- strat_4 -->
<g id="node15" class="node">
<title>strat_4</title>
<ellipse fill="#fff9c4" stroke="#f9a825" cx="704" cy="-398.5" rx="39.16" ry="18"/>
<text xml:space="preserve" text-anchor="middle" x="704" y="-395.38" font-family="Helvetica,sans-Serif" font-size="10.00">deduction</text>
</g>
<!-- local:twodheg_effective_mass::gcn_48797cba2bf44d90&#45;&gt;strat_4 -->
<g id="edge9" class="edge">
<title>local:twodheg_effective_mass::gcn_48797cba2bf44d90&#45;&gt;strat_4</title>
<path fill="none" stroke="black" d="M853.3,-452.02C819.93,-440.28 776.5,-425 745.09,-413.95"/>
<polygon fill="black" stroke="black" points="746.54,-410.75 735.95,-410.74 744.22,-417.36 746.54,-410.75"/>
</g>
<!-- local:twodheg_effective_mass::gcn_1e8fcb7ef934428d -->
<g id="node11" class="node">
<title>local:twodheg_effective_mass::gcn_1e8fcb7ef934428d</title>
<polygon fill="#ddeeff" stroke="#4488bb" points="666.62,-488.5 537.38,-488.5 537.38,-452.5 666.62,-452.5 666.62,-488.5"/>
<text xml:space="preserve" text-anchor="middle" x="602" y="-473.75" font-family="Helvetica,sans-Serif" font-size="10.00">gcn_1e8fcb7ef934428d</text>
<text xml:space="preserve" text-anchor="middle" x="602" y="-461" font-family="Helvetica,sans-Serif" font-size="10.00">(0.75 → 0.75)</text>
</g>
<!-- local:twodheg_effective_mass::gcn_1e8fcb7ef934428d&#45;&gt;strat_4 -->
<g id="edge10" class="edge">
<title>local:twodheg_effective_mass::gcn_1e8fcb7ef934428d&#45;&gt;strat_4</title>
<path fill="none" stroke="black" d="M627.48,-452.02C641.51,-442.38 659.03,-430.36 673.75,-420.26"/>
<polygon fill="black" stroke="black" points="675.45,-423.34 681.72,-414.79 671.49,-417.56 675.45,-423.34"/>
</g>
<!-- local:twodheg_effective_mass::gcn_50e263dc961541e0 -->
<g id="node12" class="node">
<title>local:twodheg_effective_mass::gcn_50e263dc961541e0</title>
<polygon fill="#ddeeff" stroke="#4488bb" points="818.88,-488.5 685.12,-488.5 685.12,-452.5 818.88,-452.5 818.88,-488.5"/>
<text xml:space="preserve" text-anchor="middle" x="752" y="-473.75" font-family="Helvetica,sans-Serif" font-size="10.00">gcn_50e263dc961541e0</text>
<text xml:space="preserve" text-anchor="middle" x="752" y="-461" font-family="Helvetica,sans-Serif" font-size="10.00">(0.76 → 0.76)</text>
</g>
<!-- local:twodheg_effective_mass::gcn_50e263dc961541e0&#45;&gt;strat_4 -->
<g id="edge11" class="edge">
<title>local:twodheg_effective_mass::gcn_50e263dc961541e0&#45;&gt;strat_4</title>
<path fill="none" stroke="black" d="M740.13,-452.2C734.59,-444.11 727.87,-434.31 721.74,-425.37"/>
<polygon fill="black" stroke="black" points="724.8,-423.64 716.25,-417.37 719.02,-427.6 724.8,-423.64"/>
</g>
<!-- local:twodheg_effective_mass::gcn_a981a2b787514e47 -->
<g id="node13" class="node">
<title>local:twodheg_effective_mass::gcn_a981a2b787514e47</title>
<polygon fill="#ddffdd" stroke="#44bb44" points="747.25,-343 612.75,-343 612.75,-307 747.25,-307 747.25,-343"/>
<text xml:space="preserve" text-anchor="middle" x="680" y="-328.25" font-family="Helvetica,sans-Serif" font-size="10.00">gcn_a981a2b787514e47</text>
<text xml:space="preserve" text-anchor="middle" x="680" y="-315.5" font-family="Helvetica,sans-Serif" font-size="10.00">(0.71)</text>
</g>
<!-- strat_8 -->
<g id="node28" class="node">
<title>strat_8</title>
<ellipse fill="#fff9c4" stroke="#f9a825" cx="585" cy="-253" rx="32.28" ry="18"/>
<text xml:space="preserve" text-anchor="middle" x="585" y="-249.88" font-family="Helvetica,sans-Serif" font-size="10.00">support</text>
</g>
<!-- local:twodheg_effective_mass::gcn_a981a2b787514e47&#45;&gt;strat_8 -->
<g id="edge20" class="edge">
<title>local:twodheg_effective_mass::gcn_a981a2b787514e47&#45;&gt;strat_8</title>
<path fill="none" stroke="black" d="M656.52,-306.7C643.3,-296.96 626.72,-284.74 612.85,-274.52"/>
<polygon fill="black" stroke="black" points="615.11,-271.84 604.98,-268.72 610.95,-277.47 615.11,-271.84"/>
</g>
<!-- strat_3&#45;&gt;local:twodheg_effective_mass::gcn_c7b10e47e2ab45e1 -->
<g id="edge8" class="edge">
<title>strat_3&#45;&gt;local:twodheg_effective_mass::gcn_c7b10e47e2ab45e1</title>
<path fill="none" stroke="black" d="M1052,-380.19C1052,-372.52 1052,-363.29 1052,-354.64"/>
<polygon fill="black" stroke="black" points="1055.5,-354.91 1052,-344.91 1048.5,-354.91 1055.5,-354.91"/>
</g>
<!-- strat_4&#45;&gt;local:twodheg_effective_mass::gcn_a981a2b787514e47 -->
<g id="edge12" class="edge">
<title>strat_4&#45;&gt;local:twodheg_effective_mass::gcn_a981a2b787514e47</title>
<path fill="none" stroke="black" d="M698.31,-380.56C695.66,-372.66 692.44,-363.05 689.43,-354.11"/>
<polygon fill="black" stroke="black" points="692.8,-353.12 686.3,-344.75 686.16,-355.35 692.8,-353.12"/>
</g>
<!-- local:twodheg_effective_mass::gcn_219b34bd252c43fa -->
<g id="node16" class="node">
<title>local:twodheg_effective_mass::gcn_219b34bd252c43fa</title>
<polygon fill="#ddeeff" stroke="#4488bb" points="1584.75,-488.5 1453.25,-488.5 1453.25,-452.5 1584.75,-452.5 1584.75,-488.5"/>
<text xml:space="preserve" text-anchor="middle" x="1519" y="-473.75" font-family="Helvetica,sans-Serif" font-size="10.00">gcn_219b34bd252c43fa</text>
<text xml:space="preserve" text-anchor="middle" x="1519" y="-461" font-family="Helvetica,sans-Serif" font-size="10.00">(0.78 → 0.45)</text>
</g>
<!-- strat_6 -->
<g id="node26" class="node">
<title>strat_6</title>
<ellipse fill="#fff9c4" stroke="#f9a825" cx="1405" cy="-398.5" rx="32.28" ry="18"/>
<text xml:space="preserve" text-anchor="middle" x="1405" y="-395.38" font-family="Helvetica,sans-Serif" font-size="10.00">support</text>
</g>
<!-- local:twodheg_effective_mass::gcn_219b34bd252c43fa&#45;&gt;strat_6 -->
<g id="edge16" class="edge">
<title>local:twodheg_effective_mass::gcn_219b34bd252c43fa&#45;&gt;strat_6</title>
<path fill="none" stroke="black" d="M1490.53,-452.02C1473.77,-441.73 1452.58,-428.71 1435.48,-418.22"/>
<polygon fill="black" stroke="black" points="1437.59,-415.41 1427.24,-413.16 1433.93,-421.37 1437.59,-415.41"/>
</g>
<!-- oper_1 -->
<g id="node30" class="node">
<title>oper_1</title>
<polygon fill="#ffebee" stroke="#c62828" points="1658.29,-253 1626.15,-271 1561.85,-271 1529.71,-253 1561.85,-235 1626.15,-235 1658.29,-253"/>
<text xml:space="preserve" text-anchor="middle" x="1594" y="-249.88" font-family="Helvetica,sans-Serif" font-size="10.00">⊗ contradiction</text>
</g>
<!-- local:twodheg_effective_mass::gcn_219b34bd252c43fa&#45;&gt;oper_1 -->
<g id="edge25" class="edge">
<title>local:twodheg_effective_mass::gcn_219b34bd252c43fa&#45;&gt;oper_1</title>
<path fill="none" stroke="black" d="M1585.21,-454.29C1588.18,-453.67 1591.12,-453.07 1594,-452.5 1687.75,-433.93 1733.86,-479.19 1806,-416.5 1821.49,-403.04 1816.85,-392.78 1820,-372.5 1825.01,-340.22 1840.72,-324.25 1820,-299 1799.06,-273.48 1711.23,-262.17 1651.43,-257.34"/>
</g>
<!-- local:twodheg_effective_mass::gcn_3ceb44ae3f404964 -->
<g id="node17" class="node">
<title>local:twodheg_effective_mass::gcn_3ceb44ae3f404964</title>
<polygon fill="#ddeeff" stroke="#4488bb" points="1734.75,-488.5 1603.25,-488.5 1603.25,-452.5 1734.75,-452.5 1734.75,-488.5"/>
<text xml:space="preserve" text-anchor="middle" x="1669" y="-473.75" font-family="Helvetica,sans-Serif" font-size="10.00">gcn_3ceb44ae3f404964</text>
<text xml:space="preserve" text-anchor="middle" x="1669" y="-461" font-family="Helvetica,sans-Serif" font-size="10.00">(0.78 → 0.50)</text>
</g>
<!-- strat_1 -->
<g id="node21" class="node">
<title>strat_1</title>
<ellipse fill="#fff9c4" stroke="#f9a825" cx="1628" cy="-398.5" rx="39.16" ry="18"/>
<text xml:space="preserve" text-anchor="middle" x="1628" y="-395.38" font-family="Helvetica,sans-Serif" font-size="10.00">deduction</text>
</g>
<!-- local:twodheg_effective_mass::gcn_3ceb44ae3f404964&#45;&gt;strat_1 -->
<g id="edge3" class="edge">
<title>local:twodheg_effective_mass::gcn_3ceb44ae3f404964&#45;&gt;strat_1</title>
<path fill="none" stroke="black" d="M1658.87,-452.2C1654.23,-444.28 1648.63,-434.73 1643.49,-425.94"/>
<polygon fill="black" stroke="black" points="1646.58,-424.29 1638.5,-417.43 1640.53,-427.83 1646.58,-424.29"/>
</g>
<!-- local:twodheg_effective_mass::gcn_3db07703d3684507 -->
<g id="node18" class="node">
<title>local:twodheg_effective_mass::gcn_3db07703d3684507</title>
<polygon fill="#ddffdd" stroke="#44bb44" points="1661.25,-343 1526.75,-343 1526.75,-307 1661.25,-307 1661.25,-343"/>
<text xml:space="preserve" text-anchor="middle" x="1594" y="-328.25" font-family="Helvetica,sans-Serif" font-size="10.00">gcn_3db07703d3684507</text>
<text xml:space="preserve" text-anchor="middle" x="1594" y="-315.5" font-family="Helvetica,sans-Serif" font-size="10.00">(0.48)</text>
</g>
<!-- local:twodheg_effective_mass::gcn_3db07703d3684507&#45;&gt;oper_1 -->
<g id="edge26" class="edge">
<title>local:twodheg_effective_mass::gcn_3db07703d3684507&#45;&gt;oper_1</title>
<path fill="none" stroke="black" d="M1594,-306.7C1594,-295.85 1594,-281.92 1594,-271.1"/>
</g>
<!-- local:twodheg_effective_mass::gcn_836bae7457044c7a -->
<g id="node19" class="node">
<title>local:twodheg_effective_mass::gcn_836bae7457044c7a</title>
<polygon fill="#ddeeff" stroke="#4488bb" points="1886.88,-488.5 1753.12,-488.5 1753.12,-452.5 1886.88,-452.5 1886.88,-488.5"/>
<text xml:space="preserve" text-anchor="middle" x="1820" y="-473.75" font-family="Helvetica,sans-Serif" font-size="10.00">gcn_836bae7457044c7a</text>
<text xml:space="preserve" text-anchor="middle" x="1820" y="-461" font-family="Helvetica,sans-Serif" font-size="10.00">(0.74 → 0.74)</text>
</g>
<!-- strat_2 -->
<g id="node22" class="node">
<title>strat_2</title>
<ellipse fill="#fff9c4" stroke="#f9a825" cx="1758" cy="-398.5" rx="39.16" ry="18"/>
<text xml:space="preserve" text-anchor="middle" x="1758" y="-395.38" font-family="Helvetica,sans-Serif" font-size="10.00">deduction</text>
</g>
<!-- local:twodheg_effective_mass::gcn_836bae7457044c7a&#45;&gt;strat_2 -->
<g id="edge5" class="edge">
<title>local:twodheg_effective_mass::gcn_836bae7457044c7a&#45;&gt;strat_2</title>
<path fill="none" stroke="black" d="M1804.67,-452.2C1797.17,-443.73 1788.01,-433.39 1779.8,-424.11"/>
<polygon fill="black" stroke="black" points="1782.55,-421.94 1773.3,-416.78 1777.31,-426.58 1782.55,-421.94"/>
</g>
<!-- local:twodheg_effective_mass::gcn_306f15c9d5814e23 -->
<g id="node20" class="node">
<title>local:twodheg_effective_mass::gcn_306f15c9d5814e23</title>
<polygon fill="#ddffdd" stroke="#44bb44" points="1810.75,-343 1679.25,-343 1679.25,-307 1810.75,-307 1810.75,-343"/>
<text xml:space="preserve" text-anchor="middle" x="1745" y="-328.25" font-family="Helvetica,sans-Serif" font-size="10.00">gcn_306f15c9d5814e23</text>
<text xml:space="preserve" text-anchor="middle" x="1745" y="-315.5" font-family="Helvetica,sans-Serif" font-size="10.00">(0.85)</text>
</g>
<!-- strat_1&#45;&gt;local:twodheg_effective_mass::gcn_3db07703d3684507 -->
<g id="edge4" class="edge">
<title>strat_1&#45;&gt;local:twodheg_effective_mass::gcn_3db07703d3684507</title>
<path fill="none" stroke="black" d="M1619.94,-380.56C1616.1,-372.48 1611.41,-362.62 1607.08,-353.51"/>
<polygon fill="black" stroke="black" points="1610.34,-352.21 1602.89,-344.69 1604.02,-355.22 1610.34,-352.21"/>
</g>
<!-- strat_2&#45;&gt;local:twodheg_effective_mass::gcn_306f15c9d5814e23 -->
<g id="edge6" class="edge">
<title>strat_2&#45;&gt;local:twodheg_effective_mass::gcn_306f15c9d5814e23</title>
<path fill="none" stroke="black" d="M1754.85,-380.19C1753.46,-372.52 1751.78,-363.29 1750.21,-354.64"/>
<polygon fill="black" stroke="black" points="1753.67,-354.1 1748.43,-344.89 1746.78,-355.35 1753.67,-354.1"/>
</g>
<!-- local:twodheg_effective_mass::gcn_da3eecec49114543 -->
<g id="node23" class="node">
<title>local:twodheg_effective_mass::gcn_da3eecec49114543</title>
<polygon fill="#ddeeff" stroke="#4488bb" points="1352.5,-488.5 1219.5,-488.5 1219.5,-452.5 1352.5,-452.5 1352.5,-488.5"/>
<text xml:space="preserve" text-anchor="middle" x="1286" y="-473.75" font-family="Helvetica,sans-Serif" font-size="10.00">gcn_da3eecec49114543</text>
<text xml:space="preserve" text-anchor="middle" x="1286" y="-461" font-family="Helvetica,sans-Serif" font-size="10.00">(0.82 → 0.89)</text>
</g>
<!-- strat_0 -->
<g id="node25" class="node">
<title>strat_0</title>
<ellipse fill="#fff9c4" stroke="#f9a825" cx="1286" cy="-398.5" rx="39.16" ry="18"/>
<text xml:space="preserve" text-anchor="middle" x="1286" y="-395.38" font-family="Helvetica,sans-Serif" font-size="10.00">deduction</text>
</g>
<!-- local:twodheg_effective_mass::gcn_da3eecec49114543&#45;&gt;strat_0 -->
<g id="edge1" class="edge">
<title>local:twodheg_effective_mass::gcn_da3eecec49114543&#45;&gt;strat_0</title>
<path fill="none" stroke="black" d="M1286,-452.2C1286,-444.91 1286,-436.23 1286,-428.04"/>
<polygon fill="black" stroke="black" points="1289.5,-428.12 1286,-418.12 1282.5,-428.12 1289.5,-428.12"/>
</g>
<!-- local:twodheg_effective_mass::gcn_28b9e01bd2f8487f -->
<g id="node24" class="node">
<title>local:twodheg_effective_mass::gcn_28b9e01bd2f8487f</title>
<polygon fill="#d4edda" stroke="#28a745" stroke-width="2" points="1357,-343 1215,-343 1215,-307 1357,-307 1357,-343"/>
<text xml:space="preserve" text-anchor="middle" x="1286" y="-328.25" font-family="Helvetica,sans-Serif" font-size="10.00">★ gcn_28b9e01bd2f8487f</text>
<text xml:space="preserve" text-anchor="middle" x="1286" y="-315.5" font-family="Helvetica,sans-Serif" font-size="10.00">(0.98)</text>
</g>
<!-- strat_0&#45;&gt;local:twodheg_effective_mass::gcn_28b9e01bd2f8487f -->
<g id="edge2" class="edge">
<title>strat_0&#45;&gt;local:twodheg_effective_mass::gcn_28b9e01bd2f8487f</title>
<path fill="none" stroke="black" d="M1286,-380.19C1286,-372.72 1286,-363.77 1286,-355.31"/>
<polygon fill="black" stroke="black" points="1289.5,-355.41 1286,-345.41 1282.5,-355.41 1289.5,-355.41"/>
</g>
<!-- strat_6&#45;&gt;local:twodheg_effective_mass::gcn_28b9e01bd2f8487f -->
<g id="edge17" class="edge">
<title>strat_6&#45;&gt;local:twodheg_effective_mass::gcn_28b9e01bd2f8487f</title>
<path fill="none" stroke="black" d="M1383.73,-384.72C1367.56,-375 1344.86,-361.36 1325.41,-349.68"/>
<polygon fill="black" stroke="black" points="1327.25,-346.7 1316.88,-344.55 1323.65,-352.7 1327.25,-346.7"/>
</g>
<!-- strat_7&#45;&gt;local:twodheg_effective_mass::gcn_28b9e01bd2f8487f -->
<g id="edge19" class="edge">
<title>strat_7&#45;&gt;local:twodheg_effective_mass::gcn_28b9e01bd2f8487f</title>
<path fill="none" stroke="black" d="M1188.27,-384.72C1204.44,-375 1227.14,-361.36 1246.59,-349.68"/>
<polygon fill="black" stroke="black" points="1248.35,-352.7 1255.12,-344.55 1244.75,-346.7 1248.35,-352.7"/>
</g>
<!-- strat_8&#45;&gt;local:twodheg_effective_mass::gcn_b7a7d456a05d4129 -->
<g id="edge21" class="edge">
<title>strat_8&#45;&gt;local:twodheg_effective_mass::gcn_b7a7d456a05d4129</title>
<path fill="none" stroke="black" d="M561.73,-240.03C542.21,-229.99 513.78,-215.36 489.98,-203.12"/>
<polygon fill="black" stroke="black" points="491.61,-200.02 481.11,-198.56 488.4,-206.25 491.61,-200.02"/>
</g>
<!-- oper_0&#45;&gt;local:twodheg_effective_mass::older_dmc_enhancement_vs_revised_dmc_benchmarks -->
<g id="edge24" class="edge">
<title>oper_0&#45;&gt;local:twodheg_effective_mass::older_dmc_enhancement_vs_revised_dmc_benchmarks</title>
<path fill="none" stroke="black" d="M495.19,-98.51C563.37,-87.43 688.36,-67.12 778.66,-52.44"/>
</g>
<!-- oper_1&#45;&gt;local:twodheg_effective_mass::n_quarter_scaling_vs_shell_filling_noise -->
<g id="edge27" class="edge">
<title>oper_1&#45;&gt;local:twodheg_effective_mass::n_quarter_scaling_vs_shell_filling_noise</title>
<path fill="none" stroke="black" d="M1560.57,-235.51C1479.35,-195.45 1272.23,-93.31 1189.21,-52.36"/>
</g>
</g>
</svg>
