<?xml version="1.0" encoding="UTF-8" standalone="no"?>
<!DOCTYPE svg PUBLIC "-//W3C//DTD SVG 1.1//EN"
 "http://www.w3.org/Graphics/SVG/1.1/DTD/svg11.dtd">
<!-- Generated by graphviz version 14.1.5 (20260411.2331)
 -->
<!-- Title: starmap Pages: 1 -->
<svg width="3115pt" height="805pt"
 viewBox="0.00 0.00 3115.00 805.00" xmlns="http://www.w3.org/2000/svg" xmlns:xlink="http://www.w3.org/1999/xlink">
<g id="graph0" class="graph" transform="scale(1 1) rotate(0) translate(4 800.5)">
<title>starmap</title>
<polygon fill="white" stroke="none" points="-4,4 -4,-800.5 3111.16,-800.5 3111.16,4 -4,4"/>
<g id="clust1" class="cluster">
<title>cluster_paper_drummond2009_fermi_fluid</title>
<path fill="#fafafa" stroke="#999999" d="M586.12,-280C586.12,-280 1316.12,-280 1316.12,-280 1322.12,-280 1328.12,-286 1328.12,-292 1328.12,-292 1328.12,-631 1328.12,-631 1328.12,-637 1322.12,-643 1316.12,-643 1316.12,-643 586.12,-643 586.12,-643 580.12,-643 574.12,-637 574.12,-631 574.12,-631 574.12,-292 574.12,-292 574.12,-286 580.12,-280 586.12,-280"/>
<text xml:space="preserve" text-anchor="middle" x="951.12" y="-628.55" font-family="Times,serif" font-size="11.00">paper_drummond2009_fermi_fluid</text>
</g>
<g id="clust2" class="cluster">
<title>cluster_paper_drummond2012_effective_mass</title>
<path fill="#fafafa" stroke="#999999" d="M72.13,-136C72.13,-136 554.12,-136 554.12,-136 560.12,-136 566.12,-142 566.12,-148 566.12,-148 566.12,-341.5 566.12,-341.5 566.12,-347.5 560.12,-353.5 554.12,-353.5 554.12,-353.5 72.12,-353.5 72.12,-353.5 66.12,-353.5 60.13,-347.5 60.13,-341.5 60.13,-341.5 60.13,-148 60.13,-148 60.13,-142 66.13,-136 72.13,-136"/>
<text xml:space="preserve" text-anchor="middle" x="313.12" y="-339.05" font-family="Times,serif" font-size="11.00">paper_drummond2012_effective_mass</text>
</g>
<g id="clust3" class="cluster">
<title>cluster_paper_drummond2013_effective_mass</title>
<path fill="#fafafa" stroke="#999999" d="M1420.12,-280C1420.12,-280 1980.12,-280 1980.12,-280 1986.12,-280 1992.12,-286 1992.12,-292 1992.12,-292 1992.12,-776.5 1992.12,-776.5 1992.12,-782.5 1986.12,-788.5 1980.12,-788.5 1980.12,-788.5 1420.12,-788.5 1420.12,-788.5 1414.12,-788.5 1408.12,-782.5 1408.12,-776.5 1408.12,-776.5 1408.12,-292 1408.12,-292 1408.12,-286 1414.12,-280 1420.12,-280"/>
<text xml:space="preserve" text-anchor="middle" x="1700.12" y="-774.05" font-family="Times,serif" font-size="11.00">paper_drummond2013_effective_mass</text>
</g>
<g id="clust4" class="cluster">
<title>cluster_paper_drummond2013_fermi_liquid</title>
<path fill="#fafafa" stroke="#999999" d="M2390.12,-569.5C2390.12,-569.5 3080.12,-569.5 3080.12,-569.5 3086.12,-569.5 3092.12,-575.5 3092.12,-581.5 3092.12,-581.5 3092.12,-776.5 3092.12,-776.5 3092.12,-782.5 3086.12,-788.5 3080.12,-788.5 3080.12,-788.5 2390.12,-788.5 2390.12,-788.5 2384.12,-788.5 2378.12,-782.5 2378.12,-776.5 2378.12,-776.5 2378.12,-581.5 2378.12,-581.5 2378.12,-575.5 2384.12,-569.5 2390.12,-569.5"/>
<text xml:space="preserve" text-anchor="middle" x="2735.12" y="-774.05" font-family="Times,serif" font-size="11.00">paper_drummond2013_fermi_liquid</text>
</g>
<g id="clust5" class="cluster">
<title>cluster_paper_holzmann2008</title>
<path fill="#fafafa" stroke="#999999" d="M2084.12,-569.5C2084.12,-569.5 2286.12,-569.5 2286.12,-569.5 2292.12,-569.5 2298.12,-575.5 2298.12,-581.5 2298.12,-581.5 2298.12,-776.5 2298.12,-776.5 2298.12,-782.5 2292.12,-788.5 2286.12,-788.5 2286.12,-788.5 2084.12,-788.5 2084.12,-788.5 2078.12,-788.5 2072.12,-782.5 2072.12,-776.5 2072.12,-776.5 2072.12,-581.5 2072.12,-581.5 2072.12,-575.5 2078.12,-569.5 2084.12,-569.5"/>
<text xml:space="preserve" text-anchor="middle" x="2185.12" y="-774.05" font-family="Times,serif" font-size="11.00">paper_holzmann2008</text>
</g>
<!-- local:twodheg_effective_mass::gcn_4d1aad1470d54895 -->
<g id="node1" class="node">
<title>local:twodheg_effective_mass::gcn_4d1aad1470d54895</title>
<polygon fill="#ddeeff" stroke="#4488bb" points="784.12,-613.5 582.12,-613.5 582.12,-577.5 784.12,-577.5 784.12,-613.5"/>
<text xml:space="preserve" text-anchor="middle" x="683.12" y="-598.75" font-family="Helvetica,sans-Serif" font-size="10.00">Earlier DMC mass&#45;enhancement trend</text>
<text xml:space="preserve" text-anchor="middle" x="683.12" y="-586" font-family="Helvetica,sans-Serif" font-size="10.00">(0.68 → 0.08)</text>
</g>
<!-- oper_0 -->
<g id="node42" class="node">
<title>oper_0</title>
<polygon fill="#ffebee" stroke="#c62828" points="178.42,-90 146.27,-108 81.98,-108 49.83,-90 81.98,-72 146.27,-72 178.42,-90"/>
<text xml:space="preserve" text-anchor="middle" x="114.13" y="-86.88" font-family="Helvetica,sans-Serif" font-size="10.00">⊗ contradiction</text>
</g>
<!-- local:twodheg_effective_mass::gcn_4d1aad1470d54895&#45;&gt;oper_0 -->
<g id="edge35" class="edge">
<title>local:twodheg_effective_mass::gcn_4d1aad1470d54895&#45;&gt;oper_0</title>
<path fill="none" stroke="black" d="M581.95,-592.87C400.87,-587.18 40.13,-562.11 40.13,-452.5 40.13,-452.5 40.13,-452.5 40.13,-233 40.13,-189.31 33.77,-173.54 56.13,-136 62.71,-124.94 73.13,-115.6 83.33,-108.35"/>
</g>
<!-- local:twodheg_effective_mass::gcn_f6686a4225a043a6 -->
<g id="node2" class="node">
<title>local:twodheg_effective_mass::gcn_f6686a4225a043a6</title>
<polygon fill="#ddeeff" stroke="#4488bb" points="1320.5,-613.5 1087.75,-613.5 1087.75,-577.5 1320.5,-577.5 1320.5,-613.5"/>
<text xml:space="preserve" text-anchor="middle" x="1204.12" y="-598.75" font-family="Helvetica,sans-Serif" font-size="10.00">Quartic fit captures occupied&#45;band curvature</text>
<text xml:space="preserve" text-anchor="middle" x="1204.12" y="-586" font-family="Helvetica,sans-Serif" font-size="10.00">(0.76 → 0.80)</text>
</g>
<!-- strat_6 -->
<g id="node7" class="node">
<title>strat_6</title>
<ellipse fill="#fff9c4" stroke="#f9a825" cx="1189.12" cy="-523.5" rx="39.16" ry="18"/>
<text xml:space="preserve" text-anchor="middle" x="1189.12" y="-520.38" font-family="Helvetica,sans-Serif" font-size="10.00">deduction</text>
</g>
<!-- local:twodheg_effective_mass::gcn_f6686a4225a043a6&#45;&gt;strat_6 -->
<g id="edge15" class="edge">
<title>local:twodheg_effective_mass::gcn_f6686a4225a043a6&#45;&gt;strat_6</title>
<path fill="none" stroke="black" d="M1200.42,-577.2C1198.84,-569.82 1196.95,-561.02 1195.18,-552.75"/>
<polygon fill="black" stroke="black" points="1198.63,-552.13 1193.11,-543.08 1191.78,-553.6 1198.63,-552.13"/>
</g>
<!-- local:twodheg_effective_mass::gcn_fd7adbfff0f146ba -->
<g id="node3" class="node">
<title>local:twodheg_effective_mass::gcn_fd7adbfff0f146ba</title>
<polygon fill="#ddeeff" stroke="#4488bb" points="1070.12,-613.5 802.12,-613.5 802.12,-577.5 1070.12,-577.5 1070.12,-613.5"/>
<text xml:space="preserve" text-anchor="middle" x="936.12" y="-598.75" font-family="Helvetica,sans-Serif" font-size="10.00">Fixed&#45;node errors mostly cancel in band differences</text>
<text xml:space="preserve" text-anchor="middle" x="936.12" y="-586" font-family="Helvetica,sans-Serif" font-size="10.00">(0.70 → 0.75)</text>
</g>
<!-- local:twodheg_effective_mass::gcn_fd7adbfff0f146ba&#45;&gt;strat_6 -->
<g id="edge16" class="edge">
<title>local:twodheg_effective_mass::gcn_fd7adbfff0f146ba&#45;&gt;strat_6</title>
<path fill="none" stroke="black" d="M999.31,-577.02C1044.7,-564.46 1104.74,-547.85 1145.04,-536.7"/>
<polygon fill="black" stroke="black" points="1145.94,-540.08 1154.64,-534.04 1144.07,-533.33 1145.94,-540.08"/>
</g>
<!-- local:twodheg_effective_mass::gcn_bf915935b1fd4326 -->
<g id="node4" class="node">
<title>local:twodheg_effective_mass::gcn_bf915935b1fd4326</title>
<polygon fill="#ddffdd" stroke="#44bb44" points="1320.5,-469.5 1057.75,-469.5 1057.75,-433.5 1320.5,-433.5 1320.5,-469.5"/>
<text xml:space="preserve" text-anchor="middle" x="1189.12" y="-454.75" font-family="Helvetica,sans-Serif" font-size="10.00">DMC occupied band shows nonquadratic curvature</text>
<text xml:space="preserve" text-anchor="middle" x="1189.12" y="-442" font-family="Helvetica,sans-Serif" font-size="10.00">(0.87)</text>
</g>
<!-- strat_14 -->
<g id="node9" class="node">
<title>strat_14</title>
<ellipse fill="#fff9c4" stroke="#f9a825" cx="1126.12" cy="-379.5" rx="32.28" ry="18"/>
<text xml:space="preserve" text-anchor="middle" x="1126.12" y="-376.38" font-family="Helvetica,sans-Serif" font-size="10.00">support</text>
</g>
<!-- local:twodheg_effective_mass::gcn_bf915935b1fd4326&#45;&gt;strat_14 -->
<g id="edge33" class="edge">
<title>local:twodheg_effective_mass::gcn_bf915935b1fd4326&#45;&gt;strat_14</title>
<path fill="none" stroke="black" d="M1173.55,-433.2C1165.82,-424.61 1156.35,-414.08 1147.91,-404.71"/>
<polygon fill="black" stroke="black" points="1150.53,-402.39 1141.24,-397.3 1145.33,-407.07 1150.53,-402.39"/>
</g>
<!-- strat_13 -->
<g id="node41" class="node">
<title>strat_13</title>
<ellipse fill="#fff9c4" stroke="#f9a825" cx="1368.12" cy="-379.5" rx="32.28" ry="18"/>
<text xml:space="preserve" text-anchor="middle" x="1368.12" y="-376.38" font-family="Helvetica,sans-Serif" font-size="10.00">support</text>
</g>
<!-- local:twodheg_effective_mass::gcn_bf915935b1fd4326&#45;&gt;strat_13 -->
<g id="edge31" class="edge">
<title>local:twodheg_effective_mass::gcn_bf915935b1fd4326&#45;&gt;strat_13</title>
<path fill="none" stroke="black" d="M1239.5,-433.03C1267.09,-423.16 1301.74,-410.28 1332.12,-397.5 1332.74,-397.24 1333.36,-396.98 1333.99,-396.71"/>
<polygon fill="black" stroke="black" points="1335.16,-400.02 1342.86,-392.75 1332.3,-393.63 1335.16,-400.02"/>
</g>
<!-- local:twodheg_effective_mass::gcn_888498a0614d40d7 -->
<g id="node5" class="node">
<title>local:twodheg_effective_mass::gcn_888498a0614d40d7</title>
<polygon fill="#ddeeff" stroke="#4488bb" points="1039.75,-469.5 790.5,-469.5 790.5,-433.5 1039.75,-433.5 1039.75,-469.5"/>
<text xml:space="preserve" text-anchor="middle" x="915.12" y="-454.75" font-family="Helvetica,sans-Serif" font-size="10.00">Quartic term as leading nonquadratic correction</text>
<text xml:space="preserve" text-anchor="middle" x="915.12" y="-442" font-family="Helvetica,sans-Serif" font-size="10.00">(0.72 → 0.81)</text>
</g>
<!-- strat_7 -->
<g id="node8" class="node">
<title>strat_7</title>
<ellipse fill="#fff9c4" stroke="#f9a825" cx="956.12" cy="-379.5" rx="39.16" ry="18"/>
<text xml:space="preserve" text-anchor="middle" x="956.12" y="-376.38" font-family="Helvetica,sans-Serif" font-size="10.00">deduction</text>
</g>
<!-- local:twodheg_effective_mass::gcn_888498a0614d40d7&#45;&gt;strat_7 -->
<g id="edge18" class="edge">
<title>local:twodheg_effective_mass::gcn_888498a0614d40d7&#45;&gt;strat_7</title>
<path fill="none" stroke="black" d="M925.26,-433.2C929.9,-425.28 935.49,-415.73 940.64,-406.94"/>
<polygon fill="black" stroke="black" points="943.59,-408.83 945.62,-398.43 937.55,-405.29 943.59,-408.83"/>
</g>
<!-- local:twodheg_effective_mass::gcn_318b062f17344859 -->
<g id="node6" class="node">
<title>local:twodheg_effective_mass::gcn_318b062f17344859</title>
<polygon fill="#ddffdd" stroke="#44bb44" points="1193.88,-324 888.38,-324 888.38,-288 1193.88,-288 1193.88,-324"/>
<text xml:space="preserve" text-anchor="middle" x="1041.12" y="-309.25" font-family="Helvetica,sans-Serif" font-size="10.00">Nonquadratic DMC band curvature affects thermodynamics</text>
<text xml:space="preserve" text-anchor="middle" x="1041.12" y="-296.5" font-family="Helvetica,sans-Serif" font-size="10.00">(0.96)</text>
</g>
<!-- strat_6&#45;&gt;local:twodheg_effective_mass::gcn_bf915935b1fd4326 -->
<g id="edge17" class="edge">
<title>strat_6&#45;&gt;local:twodheg_effective_mass::gcn_bf915935b1fd4326</title>
<path fill="none" stroke="black" d="M1189.12,-505.2C1189.12,-497.91 1189.12,-489.23 1189.12,-481.04"/>
<polygon fill="black" stroke="black" points="1192.63,-481.12 1189.13,-471.12 1185.63,-481.12 1192.63,-481.12"/>
</g>
<!-- strat_7&#45;&gt;local:twodheg_effective_mass::gcn_318b062f17344859 -->
<g id="edge19" class="edge">
<title>strat_7&#45;&gt;local:twodheg_effective_mass::gcn_318b062f17344859</title>
<path fill="none" stroke="black" d="M974.15,-363.34C985.05,-354.17 999.21,-342.25 1011.7,-331.75"/>
<polygon fill="black" stroke="black" points="1013.88,-334.5 1019.28,-325.38 1009.37,-329.14 1013.88,-334.5"/>
</g>
<!-- strat_14&#45;&gt;local:twodheg_effective_mass::gcn_318b062f17344859 -->
<g id="edge34" class="edge">
<title>strat_14&#45;&gt;local:twodheg_effective_mass::gcn_318b062f17344859</title>
<path fill="none" stroke="black" d="M1108.92,-364.03C1097.89,-354.75 1083.27,-342.45 1070.44,-331.66"/>
<polygon fill="black" stroke="black" points="1072.97,-329.21 1063.06,-325.45 1068.46,-334.57 1072.97,-329.21"/>
</g>
<!-- local:twodheg_effective_mass::gcn_a685639571304474 -->
<g id="node10" class="node">
<title>local:twodheg_effective_mass::gcn_a685639571304474</title>
<polygon fill="#ddeeff" stroke="#4488bb" points="294.12,-324 68.12,-324 68.12,-288 294.12,-288 294.12,-324"/>
<text xml:space="preserve" text-anchor="middle" x="181.12" y="-309.25" font-family="Helvetica,sans-Serif" font-size="10.00">Monte Carlo resampling for m* uncertainty</text>
<text xml:space="preserve" text-anchor="middle" x="181.12" y="-296.5" font-family="Helvetica,sans-Serif" font-size="10.00">(0.75 → 0.80)</text>
</g>
<!-- strat_8 -->
<g id="node13" class="node">
<title>strat_8</title>
<ellipse fill="#fff9c4" stroke="#f9a825" cx="312.12" cy="-234" rx="39.16" ry="18"/>
<text xml:space="preserve" text-anchor="middle" x="312.12" y="-230.88" font-family="Helvetica,sans-Serif" font-size="10.00">deduction</text>
</g>
<!-- local:twodheg_effective_mass::gcn_a685639571304474&#45;&gt;strat_8 -->
<g id="edge20" class="edge">
<title>local:twodheg_effective_mass::gcn_a685639571304474&#45;&gt;strat_8</title>
<path fill="none" stroke="black" d="M213.84,-287.52C233.12,-277.22 257.49,-264.2 277.14,-253.69"/>
<polygon fill="black" stroke="black" points="278.72,-256.82 285.89,-249.02 275.42,-250.65 278.72,-256.82"/>
</g>
<!-- local:twodheg_effective_mass::gcn_17c63b5dc2154f15 -->
<g id="node11" class="node">
<title>local:twodheg_effective_mass::gcn_17c63b5dc2154f15</title>
<polygon fill="#ddeeff" stroke="#4488bb" points="557.88,-324 312.38,-324 312.38,-288 557.88,-288 557.88,-324"/>
<text xml:space="preserve" text-anchor="middle" x="435.12" y="-309.25" font-family="Helvetica,sans-Serif" font-size="10.00">Residual fixed&#45;node/time&#45;step biases are small</text>
<text xml:space="preserve" text-anchor="middle" x="435.12" y="-296.5" font-family="Helvetica,sans-Serif" font-size="10.00">(0.72 → 0.77)</text>
</g>
<!-- local:twodheg_effective_mass::gcn_17c63b5dc2154f15&#45;&gt;strat_8 -->
<g id="edge21" class="edge">
<title>local:twodheg_effective_mass::gcn_17c63b5dc2154f15&#45;&gt;strat_8</title>
<path fill="none" stroke="black" d="M404.4,-287.52C386.6,-277.38 364.15,-264.61 345.85,-254.19"/>
<polygon fill="black" stroke="black" points="347.64,-251.18 337.21,-249.28 344.17,-257.27 347.64,-251.18"/>
</g>
<!-- local:twodheg_effective_mass::gcn_b7a7d456a05d4129 -->
<g id="node12" class="node">
<title>local:twodheg_effective_mass::gcn_b7a7d456a05d4129</title>
<polygon fill="#ddffdd" stroke="#44bb44" points="433.38,-180 190.88,-180 190.88,-144 433.38,-144 433.38,-180"/>
<text xml:space="preserve" text-anchor="middle" x="312.12" y="-165.25" font-family="Helvetica,sans-Serif" font-size="10.00">Revised thermodynamic&#45;limit m* benchmarks</text>
<text xml:space="preserve" text-anchor="middle" x="312.12" y="-152.5" font-family="Helvetica,sans-Serif" font-size="10.00">(0.89)</text>
</g>
<!-- local:twodheg_effective_mass::gcn_b7a7d456a05d4129&#45;&gt;oper_0 -->
<g id="edge36" class="edge">
<title>local:twodheg_effective_mass::gcn_b7a7d456a05d4129&#45;&gt;oper_0</title>
<path fill="none" stroke="black" d="M262.67,-143.52C228.77,-131.53 184.42,-115.85 153.03,-104.75"/>
</g>
<!-- strat_8&#45;&gt;local:twodheg_effective_mass::gcn_b7a7d456a05d4129 -->
<g id="edge22" class="edge">
<title>strat_8&#45;&gt;local:twodheg_effective_mass::gcn_b7a7d456a05d4129</title>
<path fill="none" stroke="black" d="M312.12,-215.7C312.12,-208.41 312.12,-199.73 312.12,-191.54"/>
<polygon fill="black" stroke="black" points="315.63,-191.62 312.13,-181.62 308.63,-191.62 315.63,-191.62"/>
</g>
<!-- local:twodheg_effective_mass::gcn_850fc9d9de314026 -->
<g id="node14" class="node">
<title>local:twodheg_effective_mass::gcn_850fc9d9de314026</title>
<polygon fill="#ddeeff" stroke="#4488bb" points="1983.62,-759 1754.62,-759 1754.62,-723 1983.62,-723 1983.62,-759"/>
<text xml:space="preserve" text-anchor="middle" x="1869.12" y="-744.25" font-family="Helvetica,sans-Serif" font-size="10.00">Excited&#45;state reoptimization finite&#45;size bias</text>
<text xml:space="preserve" text-anchor="middle" x="1869.12" y="-731.5" font-family="Helvetica,sans-Serif" font-size="10.00">(0.76 → 0.84)</text>
</g>
<!-- strat_3 -->
<g id="node22" class="node">
<title>strat_3</title>
<ellipse fill="#fff9c4" stroke="#f9a825" cx="1869.12" cy="-669" rx="39.16" ry="18"/>
<text xml:space="preserve" text-anchor="middle" x="1869.12" y="-665.88" font-family="Helvetica,sans-Serif" font-size="10.00">deduction</text>
</g>
<!-- local:twodheg_effective_mass::gcn_850fc9d9de314026&#45;&gt;strat_3 -->
<g id="edge7" class="edge">
<title>local:twodheg_effective_mass::gcn_850fc9d9de314026&#45;&gt;strat_3</title>
<path fill="none" stroke="black" d="M1869.12,-722.7C1869.12,-715.41 1869.12,-706.73 1869.12,-698.54"/>
<polygon fill="black" stroke="black" points="1872.63,-698.62 1869.13,-688.62 1865.63,-698.62 1872.63,-698.62"/>
</g>
<!-- strat_10 -->
<g id="node39" class="node">
<title>strat_10</title>
<ellipse fill="#fff9c4" stroke="#f9a825" cx="2032.12" cy="-669" rx="32.28" ry="18"/>
<text xml:space="preserve" text-anchor="middle" x="2032.12" y="-665.88" font-family="Helvetica,sans-Serif" font-size="10.00">support</text>
</g>
<!-- local:twodheg_effective_mass::gcn_850fc9d9de314026&#45;&gt;strat_10 -->
<g id="edge25" class="edge">
<title>local:twodheg_effective_mass::gcn_850fc9d9de314026&#45;&gt;strat_10</title>
<path fill="none" stroke="black" d="M1912.25,-722.58C1936.93,-712.46 1968.4,-699.32 1996.12,-687 1996.74,-686.73 1997.35,-686.45 1997.98,-686.17"/>
<polygon fill="black" stroke="black" points="1999.18,-689.47 2006.81,-682.12 1996.26,-683.11 1999.18,-689.47"/>
</g>
<!-- local:twodheg_effective_mass::gcn_c7b10e47e2ab45e1 -->
<g id="node15" class="node">
<title>local:twodheg_effective_mass::gcn_c7b10e47e2ab45e1</title>
<polygon fill="#ddffdd" stroke="#44bb44" points="1983.62,-613.5 1754.62,-613.5 1754.62,-577.5 1983.62,-577.5 1983.62,-613.5"/>
<text xml:space="preserve" text-anchor="middle" x="1869.12" y="-598.75" font-family="Helvetica,sans-Serif" font-size="10.00">Quantified reoptimization bias in finite cells</text>
<text xml:space="preserve" text-anchor="middle" x="1869.12" y="-586" font-family="Helvetica,sans-Serif" font-size="10.00">(0.90)</text>
</g>
<!-- local:twodheg_effective_mass::gcn_48797cba2bf44d90 -->
<g id="node16" class="node">
<title>local:twodheg_effective_mass::gcn_48797cba2bf44d90</title>
<polygon fill="#ddeeff" stroke="#4488bb" points="1784.75,-469.5 1619.5,-469.5 1619.5,-433.5 1784.75,-433.5 1784.75,-469.5"/>
<text xml:space="preserve" text-anchor="middle" x="1702.12" y="-454.75" font-family="Helvetica,sans-Serif" font-size="10.00">Quartic band derivative for m*</text>
<text xml:space="preserve" text-anchor="middle" x="1702.12" y="-442" font-family="Helvetica,sans-Serif" font-size="10.00">(0.78 → 0.83)</text>
</g>
<!-- strat_4 -->
<g id="node23" class="node">
<title>strat_4</title>
<ellipse fill="#fff9c4" stroke="#f9a825" cx="1618.12" cy="-379.5" rx="39.16" ry="18"/>
<text xml:space="preserve" text-anchor="middle" x="1618.12" y="-376.38" font-family="Helvetica,sans-Serif" font-size="10.00">deduction</text>
</g>
<!-- local:twodheg_effective_mass::gcn_48797cba2bf44d90&#45;&gt;strat_4 -->
<g id="edge9" class="edge">
<title>local:twodheg_effective_mass::gcn_48797cba2bf44d90&#45;&gt;strat_4</title>
<path fill="none" stroke="black" d="M1681.36,-433.2C1670.37,-424.03 1656.74,-412.68 1644.95,-402.85"/>
<polygon fill="black" stroke="black" points="1647.45,-400.38 1637.53,-396.67 1642.97,-405.76 1647.45,-400.38"/>
</g>
<!-- local:twodheg_effective_mass::gcn_1e8fcb7ef934428d -->
<g id="node17" class="node">
<title>local:twodheg_effective_mass::gcn_1e8fcb7ef934428d</title>
<polygon fill="#ddeeff" stroke="#4488bb" points="1983.62,-469.5 1802.62,-469.5 1802.62,-433.5 1983.62,-433.5 1983.62,-469.5"/>
<text xml:space="preserve" text-anchor="middle" x="1893.12" y="-454.75" font-family="Helvetica,sans-Serif" font-size="10.00">Power&#45;law extrapolation of m*(N)</text>
<text xml:space="preserve" text-anchor="middle" x="1893.12" y="-442" font-family="Helvetica,sans-Serif" font-size="10.00">(0.75 → 0.81)</text>
</g>
<!-- local:twodheg_effective_mass::gcn_1e8fcb7ef934428d&#45;&gt;strat_4 -->
<g id="edge10" class="edge">
<title>local:twodheg_effective_mass::gcn_1e8fcb7ef934428d&#45;&gt;strat_4</title>
<path fill="none" stroke="black" d="M1824.44,-433.02C1773.91,-420.15 1706.68,-403.04 1662.91,-391.9"/>
<polygon fill="black" stroke="black" points="1663.79,-388.51 1653.23,-389.44 1662.06,-395.3 1663.79,-388.51"/>
</g>
<!-- local:twodheg_effective_mass::gcn_50e263dc961541e0 -->
<g id="node18" class="node">
<title>local:twodheg_effective_mass::gcn_50e263dc961541e0</title>
<polygon fill="#ddffdd" stroke="#44bb44" points="1601.88,-469.5 1416.38,-469.5 1416.38,-433.5 1601.88,-433.5 1601.88,-469.5"/>
<text xml:space="preserve" text-anchor="middle" x="1509.12" y="-454.75" font-family="Helvetica,sans-Serif" font-size="10.00">Wide k&#45;window stabilizes band fits</text>
<text xml:space="preserve" text-anchor="middle" x="1509.12" y="-442" font-family="Helvetica,sans-Serif" font-size="10.00">(0.76 → 0.97)</text>
</g>
<!-- local:twodheg_effective_mass::gcn_50e263dc961541e0&#45;&gt;strat_4 -->
<g id="edge11" class="edge">
<title>local:twodheg_effective_mass::gcn_50e263dc961541e0&#45;&gt;strat_4</title>
<path fill="none" stroke="black" d="M1536.35,-433.02C1551.6,-423.22 1570.68,-410.97 1586.58,-400.76"/>
<polygon fill="black" stroke="black" points="1588.21,-403.87 1594.73,-395.52 1584.42,-397.98 1588.21,-403.87"/>
</g>
<!-- local:twodheg_effective_mass::gcn_a981a2b787514e47 -->
<g id="node19" class="node">
<title>local:twodheg_effective_mass::gcn_a981a2b787514e47</title>
<polygon fill="#ddffdd" stroke="#44bb44" points="1653.75,-324 1416.5,-324 1416.5,-288 1653.75,-288 1653.75,-324"/>
<text xml:space="preserve" text-anchor="middle" x="1535.12" y="-309.25" font-family="Helvetica,sans-Serif" font-size="10.00">DMC band&#45;fit protocol for thermodynamic m*</text>
<text xml:space="preserve" text-anchor="middle" x="1535.12" y="-296.5" font-family="Helvetica,sans-Serif" font-size="10.00">(0.93)</text>
</g>
<!-- strat_11 -->
<g id="node40" class="node">
<title>strat_11</title>
<ellipse fill="#fff9c4" stroke="#f9a825" cx="1070.12" cy="-234" rx="32.28" ry="18"/>
<text xml:space="preserve" text-anchor="middle" x="1070.12" y="-230.88" font-family="Helvetica,sans-Serif" font-size="10.00">support</text>
</g>
<!-- local:twodheg_effective_mass::gcn_a981a2b787514e47&#45;&gt;strat_11 -->
<g id="edge27" class="edge">
<title>local:twodheg_effective_mass::gcn_a981a2b787514e47&#45;&gt;strat_11</title>
<path fill="none" stroke="black" d="M1418.99,-287.52C1319.3,-272.51 1181.17,-251.72 1112.46,-241.37"/>
<polygon fill="black" stroke="black" points="1113.16,-237.94 1102.75,-239.91 1112.12,-244.86 1113.16,-237.94"/>
</g>
<!-- local:twodheg_effective_mass::gcn_f6ca85b75deb46ba -->
<g id="node20" class="node">
<title>local:twodheg_effective_mass::gcn_f6ca85b75deb46ba</title>
<polygon fill="#ddeeff" stroke="#4488bb" points="1677.38,-759 1422.88,-759 1422.88,-723 1677.38,-723 1677.38,-759"/>
<text xml:space="preserve" text-anchor="middle" x="1550.12" y="-744.25" font-family="Helvetica,sans-Serif" font-size="10.00">HF pathology plus finite&#45;cell correlation recovery</text>
<text xml:space="preserve" text-anchor="middle" x="1550.12" y="-731.5" font-family="Helvetica,sans-Serif" font-size="10.00">(0.74 → 0.77)</text>
</g>
<!-- strat_5 -->
<g id="node24" class="node">
<title>strat_5</title>
<ellipse fill="#fff9c4" stroke="#f9a825" cx="1550.12" cy="-669" rx="39.16" ry="18"/>
<text xml:space="preserve" text-anchor="middle" x="1550.12" y="-665.88" font-family="Helvetica,sans-Serif" font-size="10.00">deduction</text>
</g>
<!-- local:twodheg_effective_mass::gcn_f6ca85b75deb46ba&#45;&gt;strat_5 -->
<g id="edge13" class="edge">
<title>local:twodheg_effective_mass::gcn_f6ca85b75deb46ba&#45;&gt;strat_5</title>
<path fill="none" stroke="black" d="M1550.12,-722.7C1550.12,-715.41 1550.12,-706.73 1550.12,-698.54"/>
<polygon fill="black" stroke="black" points="1553.63,-698.62 1550.13,-688.62 1546.63,-698.62 1553.63,-698.62"/>
</g>
<!-- local:twodheg_effective_mass::gcn_8df2cd5b49524aac -->
<g id="node21" class="node">
<title>local:twodheg_effective_mass::gcn_8df2cd5b49524aac</title>
<polygon fill="#ddffdd" stroke="#44bb44" points="1684.5,-613.5 1415.75,-613.5 1415.75,-577.5 1684.5,-577.5 1684.5,-613.5"/>
<text xml:space="preserve" text-anchor="middle" x="1550.12" y="-598.75" font-family="Helvetica,sans-Serif" font-size="10.00">Near&#45;k_F derivative pathologies require band fitting</text>
<text xml:space="preserve" text-anchor="middle" x="1550.12" y="-586" font-family="Helvetica,sans-Serif" font-size="10.00">(0.90)</text>
</g>
<!-- strat_12 -->
<g id="node25" class="node">
<title>strat_12</title>
<ellipse fill="#fff9c4" stroke="#f9a825" cx="1529.12" cy="-523.5" rx="32.28" ry="18"/>
<text xml:space="preserve" text-anchor="middle" x="1529.12" y="-520.38" font-family="Helvetica,sans-Serif" font-size="10.00">support</text>
</g>
<!-- local:twodheg_effective_mass::gcn_8df2cd5b49524aac&#45;&gt;strat_12 -->
<g id="edge29" class="edge">
<title>local:twodheg_effective_mass::gcn_8df2cd5b49524aac&#45;&gt;strat_12</title>
<path fill="none" stroke="black" d="M1544.93,-577.2C1542.7,-569.74 1540.02,-560.82 1537.51,-552.47"/>
<polygon fill="black" stroke="black" points="1540.92,-551.63 1534.69,-543.05 1534.21,-553.64 1540.92,-551.63"/>
</g>
<!-- strat_3&#45;&gt;local:twodheg_effective_mass::gcn_c7b10e47e2ab45e1 -->
<g id="edge8" class="edge">
<title>strat_3&#45;&gt;local:twodheg_effective_mass::gcn_c7b10e47e2ab45e1</title>
<path fill="none" stroke="black" d="M1869.12,-650.69C1869.12,-643.02 1869.12,-633.79 1869.12,-625.14"/>
<polygon fill="black" stroke="black" points="1872.63,-625.41 1869.13,-615.41 1865.63,-625.41 1872.63,-625.41"/>
</g>
<!-- strat_4&#45;&gt;local:twodheg_effective_mass::gcn_a981a2b787514e47 -->
<g id="edge12" class="edge">
<title>strat_4&#45;&gt;local:twodheg_effective_mass::gcn_a981a2b787514e47</title>
<path fill="none" stroke="black" d="M1600.52,-363.34C1589.88,-354.17 1576.05,-342.25 1563.85,-331.75"/>
<polygon fill="black" stroke="black" points="1566.34,-329.27 1556.48,-325.39 1561.77,-334.57 1566.34,-329.27"/>
</g>
<!-- strat_5&#45;&gt;local:twodheg_effective_mass::gcn_8df2cd5b49524aac -->
<g id="edge14" class="edge">
<title>strat_5&#45;&gt;local:twodheg_effective_mass::gcn_8df2cd5b49524aac</title>
<path fill="none" stroke="black" d="M1550.12,-650.69C1550.12,-643.02 1550.12,-633.79 1550.12,-625.14"/>
<polygon fill="black" stroke="black" points="1553.63,-625.41 1550.13,-615.41 1546.63,-625.41 1553.63,-625.41"/>
</g>
<!-- strat_12&#45;&gt;local:twodheg_effective_mass::gcn_50e263dc961541e0 -->
<g id="edge30" class="edge">
<title>strat_12&#45;&gt;local:twodheg_effective_mass::gcn_50e263dc961541e0</title>
<path fill="none" stroke="black" d="M1524.28,-505.55C1522.15,-498.1 1519.59,-489.14 1517.19,-480.72"/>
<polygon fill="black" stroke="black" points="1520.59,-479.88 1514.48,-471.23 1513.86,-481.81 1520.59,-479.88"/>
</g>
<!-- local:twodheg_effective_mass::gcn_219b34bd252c43fa -->
<g id="node26" class="node">
<title>local:twodheg_effective_mass::gcn_219b34bd252c43fa</title>
<polygon fill="#ddeeff" stroke="#4488bb" points="2639.62,-759 2386.62,-759 2386.62,-723 2639.62,-723 2639.62,-759"/>
<text xml:space="preserve" text-anchor="middle" x="2513.12" y="-744.25" font-family="Helvetica,sans-Serif" font-size="10.00">N^&#45;1/4 finite&#45;size scaling for Landau parameters</text>
<text xml:space="preserve" text-anchor="middle" x="2513.12" y="-731.5" font-family="Helvetica,sans-Serif" font-size="10.00">(0.78 → 0.45)</text>
</g>
<!-- strat_9 -->
<g id="node38" class="node">
<title>strat_9</title>
<ellipse fill="#fff9c4" stroke="#f9a825" cx="2338.12" cy="-669" rx="32.28" ry="18"/>
<text xml:space="preserve" text-anchor="middle" x="2338.12" y="-665.88" font-family="Helvetica,sans-Serif" font-size="10.00">support</text>
</g>
<!-- local:twodheg_effective_mass::gcn_219b34bd252c43fa&#45;&gt;strat_9 -->
<g id="edge23" class="edge">
<title>local:twodheg_effective_mass::gcn_219b34bd252c43fa&#45;&gt;strat_9</title>
<path fill="none" stroke="black" d="M2464.51,-722.51C2437.66,-712.59 2403.83,-699.65 2374.12,-687 2373.51,-686.74 2372.89,-686.47 2372.26,-686.2"/>
<polygon fill="black" stroke="black" points="2373.96,-683.12 2363.4,-682.22 2371.09,-689.51 2373.96,-683.12"/>
</g>
<!-- oper_1 -->
<g id="node43" class="node">
<title>oper_1</title>
<polygon fill="#ffebee" stroke="#c62828" points="2967.42,-523.5 2935.27,-541.5 2870.98,-541.5 2838.83,-523.5 2870.98,-505.5 2935.27,-505.5 2967.42,-523.5"/>
<text xml:space="preserve" text-anchor="middle" x="2903.12" y="-520.38" font-family="Helvetica,sans-Serif" font-size="10.00">⊗ contradiction</text>
</g>
<!-- local:twodheg_effective_mass::gcn_219b34bd252c43fa&#45;&gt;oper_1 -->
<g id="edge38" class="edge">
<title>local:twodheg_effective_mass::gcn_219b34bd252c43fa&#45;&gt;oper_1</title>
<path fill="none" stroke="black" d="M2639.8,-724.06C2642.94,-723.7 2646.05,-723.34 2649.12,-723 2748.76,-711.86 3042.33,-729.43 3093.12,-643 3109.68,-614.84 3113.39,-595.12 3093.12,-569.5 3076.36,-548.3 3006.73,-536.05 2956.62,-529.82"/>
</g>
<!-- local:twodheg_effective_mass::gcn_3ceb44ae3f404964 -->
<g id="node27" class="node">
<title>local:twodheg_effective_mass::gcn_3ceb44ae3f404964</title>
<polygon fill="#ddeeff" stroke="#4488bb" points="2846.38,-759 2657.88,-759 2657.88,-723 2846.38,-723 2846.38,-759"/>
<text xml:space="preserve" text-anchor="middle" x="2752.12" y="-744.25" font-family="Helvetica,sans-Serif" font-size="10.00">Theoretical N^&#45;1/4 scaling premise</text>
<text xml:space="preserve" text-anchor="middle" x="2752.12" y="-731.5" font-family="Helvetica,sans-Serif" font-size="10.00">(0.78 → 0.50)</text>
</g>
<!-- strat_1 -->
<g id="node31" class="node">
<title>strat_1</title>
<ellipse fill="#fff9c4" stroke="#f9a825" cx="2723.12" cy="-669" rx="39.16" ry="18"/>
<text xml:space="preserve" text-anchor="middle" x="2723.12" y="-665.88" font-family="Helvetica,sans-Serif" font-size="10.00">deduction</text>
</g>
<!-- local:twodheg_effective_mass::gcn_3ceb44ae3f404964&#45;&gt;strat_1 -->
<g id="edge3" class="edge">
<title>local:twodheg_effective_mass::gcn_3ceb44ae3f404964&#45;&gt;strat_1</title>
<path fill="none" stroke="black" d="M2744.96,-722.7C2741.83,-715.15 2738.09,-706.12 2734.59,-697.68"/>
<polygon fill="black" stroke="black" points="2737.85,-696.4 2730.79,-688.5 2731.38,-699.08 2737.85,-696.4"/>
</g>
<!-- local:twodheg_effective_mass::gcn_3db07703d3684507 -->
<g id="node28" class="node">
<title>local:twodheg_effective_mass::gcn_3db07703d3684507</title>
<polygon fill="#ddffdd" stroke="#44bb44" points="2815.75,-613.5 2572.5,-613.5 2572.5,-577.5 2815.75,-577.5 2815.75,-613.5"/>
<text xml:space="preserve" text-anchor="middle" x="2694.12" y="-598.75" font-family="Helvetica,sans-Serif" font-size="10.00">Shell noise undermines direct FL extrapolation</text>
<text xml:space="preserve" text-anchor="middle" x="2694.12" y="-586" font-family="Helvetica,sans-Serif" font-size="10.00">(0.48)</text>
</g>
<!-- local:twodheg_effective_mass::gcn_3db07703d3684507&#45;&gt;oper_1 -->
<g id="edge39" class="edge">
<title>local:twodheg_effective_mass::gcn_3db07703d3684507&#45;&gt;oper_1</title>
<path fill="none" stroke="black" d="M2746.33,-577.02C2782.6,-564.87 2830.2,-548.93 2863.39,-537.81"/>
</g>
<!-- local:twodheg_effective_mass::gcn_836bae7457044c7a -->
<g id="node29" class="node">
<title>local:twodheg_effective_mass::gcn_836bae7457044c7a</title>
<polygon fill="#ddeeff" stroke="#4488bb" points="3083.75,-759 2864.5,-759 2864.5,-723 3083.75,-723 3083.75,-759"/>
<text xml:space="preserve" text-anchor="middle" x="2974.12" y="-744.25" font-family="Helvetica,sans-Serif" font-size="10.00">Assembling best&#45;available FL parameters</text>
<text xml:space="preserve" text-anchor="middle" x="2974.12" y="-731.5" font-family="Helvetica,sans-Serif" font-size="10.00">(0.74 → 0.74)</text>
</g>
<!-- strat_2 -->
<g id="node32" class="node">
<title>strat_2</title>
<ellipse fill="#fff9c4" stroke="#f9a825" cx="2966.12" cy="-669" rx="39.16" ry="18"/>
<text xml:space="preserve" text-anchor="middle" x="2966.12" y="-665.88" font-family="Helvetica,sans-Serif" font-size="10.00">deduction</text>
</g>
<!-- local:twodheg_effective_mass::gcn_836bae7457044c7a&#45;&gt;strat_2 -->
<g id="edge5" class="edge">
<title>local:twodheg_effective_mass::gcn_836bae7457044c7a&#45;&gt;strat_2</title>
<path fill="none" stroke="black" d="M2972.15,-722.7C2971.31,-715.41 2970.32,-706.73 2969.39,-698.54"/>
<polygon fill="black" stroke="black" points="2972.86,-698.15 2968.25,-688.61 2965.91,-698.94 2972.86,-698.15"/>
</g>
<!-- local:twodheg_effective_mass::gcn_306f15c9d5814e23 -->
<g id="node30" class="node">
<title>local:twodheg_effective_mass::gcn_306f15c9d5814e23</title>
<polygon fill="#ddffdd" stroke="#44bb44" points="3084.5,-613.5 2833.75,-613.5 2833.75,-577.5 3084.5,-577.5 3084.5,-613.5"/>
<text xml:space="preserve" text-anchor="middle" x="2959.12" y="-598.75" font-family="Helvetica,sans-Serif" font-size="10.00">Recommended 2D HEG Fermi&#45;liquid parameters</text>
<text xml:space="preserve" text-anchor="middle" x="2959.12" y="-586" font-family="Helvetica,sans-Serif" font-size="10.00">(0.85)</text>
</g>
<!-- strat_1&#45;&gt;local:twodheg_effective_mass::gcn_3db07703d3684507 -->
<g id="edge4" class="edge">
<title>strat_1&#45;&gt;local:twodheg_effective_mass::gcn_3db07703d3684507</title>
<path fill="none" stroke="black" d="M2716.25,-651.06C2713.01,-643.07 2709.06,-633.33 2705.4,-624.31"/>
<polygon fill="black" stroke="black" points="2708.72,-623.17 2701.72,-615.22 2702.23,-625.8 2708.72,-623.17"/>
</g>
<!-- strat_2&#45;&gt;local:twodheg_effective_mass::gcn_306f15c9d5814e23 -->
<g id="edge6" class="edge">
<title>strat_2&#45;&gt;local:twodheg_effective_mass::gcn_306f15c9d5814e23</title>
<path fill="none" stroke="black" d="M2964.43,-650.69C2963.68,-643.02 2962.78,-633.79 2961.93,-625.14"/>
<polygon fill="black" stroke="black" points="2965.43,-625.01 2960.98,-615.4 2958.47,-625.7 2965.43,-625.01"/>
</g>
<!-- local:twodheg_effective_mass::gcn_da3eecec49114543 -->
<g id="node33" class="node">
<title>local:twodheg_effective_mass::gcn_da3eecec49114543</title>
<polygon fill="#ddeeff" stroke="#4488bb" points="2280.88,-759 2089.38,-759 2089.38,-723 2280.88,-723 2280.88,-759"/>
<text xml:space="preserve" text-anchor="middle" x="2185.12" y="-744.25" font-family="Helvetica,sans-Serif" font-size="10.00">Finite&#45;size kinetic&#45;energy correction</text>
<text xml:space="preserve" text-anchor="middle" x="2185.12" y="-731.5" font-family="Helvetica,sans-Serif" font-size="10.00">(0.82 → 0.89)</text>
</g>
<!-- strat_0 -->
<g id="node35" class="node">
<title>strat_0</title>
<ellipse fill="#fff9c4" stroke="#f9a825" cx="2185.12" cy="-669" rx="39.16" ry="18"/>
<text xml:space="preserve" text-anchor="middle" x="2185.12" y="-665.88" font-family="Helvetica,sans-Serif" font-size="10.00">deduction</text>
</g>
<!-- local:twodheg_effective_mass::gcn_da3eecec49114543&#45;&gt;strat_0 -->
<g id="edge1" class="edge">
<title>local:twodheg_effective_mass::gcn_da3eecec49114543&#45;&gt;strat_0</title>
<path fill="none" stroke="black" d="M2185.12,-722.7C2185.12,-715.41 2185.12,-706.73 2185.12,-698.54"/>
<polygon fill="black" stroke="black" points="2188.63,-698.62 2185.13,-688.62 2181.63,-698.62 2188.63,-698.62"/>
</g>
<!-- local:twodheg_effective_mass::gcn_28b9e01bd2f8487f -->
<g id="node34" class="node">
<title>local:twodheg_effective_mass::gcn_28b9e01bd2f8487f</title>
<polygon fill="#d4edda" stroke="#28a745" stroke-width="2" points="2289.88,-613.5 2080.38,-613.5 2080.38,-577.5 2289.88,-577.5 2289.88,-613.5"/>
<text xml:space="preserve" text-anchor="middle" x="2185.12" y="-598.75" font-family="Helvetica,sans-Serif" font-size="10.00">★ Slow finite&#45;size errors can flip m* &#45; m</text>
<text xml:space="preserve" text-anchor="middle" x="2185.12" y="-586" font-family="Helvetica,sans-Serif" font-size="10.00">(0.98)</text>
</g>
<!-- strat_0&#45;&gt;local:twodheg_effective_mass::gcn_28b9e01bd2f8487f -->
<g id="edge2" class="edge">
<title>strat_0&#45;&gt;local:twodheg_effective_mass::gcn_28b9e01bd2f8487f</title>
<path fill="none" stroke="black" d="M2185.12,-650.69C2185.12,-643.22 2185.12,-634.27 2185.12,-625.81"/>
<polygon fill="black" stroke="black" points="2188.63,-625.91 2185.13,-615.91 2181.63,-625.91 2188.63,-625.91"/>
</g>
<!-- local:twodheg_effective_mass::older_dmc_enhancement_vs_revised_dmc_benchmarks -->
<g id="node36" class="node">
<title>local:twodheg_effective_mass::older_dmc_enhancement_vs_revised_dmc_benchmarks</title>
<polygon fill="#ddffdd" stroke="#44bb44" points="228.25,-36 0,-36 0,0 228.25,0 228.25,-36"/>
<text xml:space="preserve" text-anchor="middle" x="114.13" y="-21.25" font-family="Helvetica,sans-Serif" font-size="10.00">Older enhancement vs revised benchmarks</text>
<text xml:space="preserve" text-anchor="middle" x="114.13" y="-8.5" font-family="Helvetica,sans-Serif" font-size="10.00">(0.84 → 1.00)</text>
</g>
<!-- local:twodheg_effective_mass::n_quarter_scaling_vs_shell_filling_noise -->
<g id="node37" class="node">
<title>local:twodheg_effective_mass::n_quarter_scaling_vs_shell_filling_noise</title>
<polygon fill="#ddffdd" stroke="#44bb44" points="2997.38,-469.5 2808.88,-469.5 2808.88,-433.5 2997.38,-433.5 2997.38,-469.5"/>
<text xml:space="preserve" text-anchor="middle" x="2903.12" y="-454.75" font-family="Helvetica,sans-Serif" font-size="10.00">N^&#45;1/4 scaling vs shell&#45;filling noise</text>
<text xml:space="preserve" text-anchor="middle" x="2903.12" y="-442" font-family="Helvetica,sans-Serif" font-size="10.00">(0.82 → 1.00)</text>
</g>
<!-- strat_9&#45;&gt;local:twodheg_effective_mass::gcn_28b9e01bd2f8487f -->
<g id="edge24" class="edge">
<title>strat_9&#45;&gt;local:twodheg_effective_mass::gcn_28b9e01bd2f8487f</title>
<path fill="none" stroke="black" d="M2314.12,-656.64C2310.12,-654.76 2306,-652.82 2302.12,-651 2279.82,-640.54 2255.1,-629.01 2234.15,-619.27"/>
<polygon fill="black" stroke="black" points="2235.8,-616.17 2225.25,-615.13 2232.85,-622.52 2235.8,-616.17"/>
</g>
<!-- strat_10&#45;&gt;local:twodheg_effective_mass::gcn_28b9e01bd2f8487f -->
<g id="edge26" class="edge">
<title>strat_10&#45;&gt;local:twodheg_effective_mass::gcn_28b9e01bd2f8487f</title>
<path fill="none" stroke="black" d="M2056.13,-656.64C2060.13,-654.76 2064.25,-652.82 2068.12,-651 2090.43,-640.54 2115.15,-629.01 2136.1,-619.27"/>
<polygon fill="black" stroke="black" points="2137.4,-622.52 2145,-615.13 2134.45,-616.17 2137.4,-622.52"/>
</g>
<!-- strat_11&#45;&gt;local:twodheg_effective_mass::gcn_b7a7d456a05d4129 -->
<g id="edge28" class="edge">
<title>strat_11&#45;&gt;local:twodheg_effective_mass::gcn_b7a7d456a05d4129</title>
<path fill="none" stroke="black" d="M1038.52,-230.08C938.67,-220.86 625.93,-191.98 445.01,-175.27"/>
<polygon fill="black" stroke="black" points="445.34,-171.79 435.06,-174.35 444.7,-178.76 445.34,-171.79"/>
</g>
<!-- strat_13&#45;&gt;local:twodheg_effective_mass::gcn_a981a2b787514e47 -->
<g id="edge32" class="edge">
<title>strat_13&#45;&gt;local:twodheg_effective_mass::gcn_a981a2b787514e47</title>
<path fill="none" stroke="black" d="M1392.06,-367C1396.08,-365.13 1400.21,-363.24 1404.12,-361.5 1429.31,-350.32 1457.5,-338.51 1481.26,-328.74"/>
<polygon fill="black" stroke="black" points="1482.51,-332.01 1490.44,-324.99 1479.86,-325.54 1482.51,-332.01"/>
</g>
<!-- oper_0&#45;&gt;local:twodheg_effective_mass::older_dmc_enhancement_vs_revised_dmc_benchmarks -->
<g id="edge37" class="edge">
<title>oper_0&#45;&gt;local:twodheg_effective_mass::older_dmc_enhancement_vs_revised_dmc_benchmarks</title>
<path fill="none" stroke="black" d="M114.13,-71.7C114.13,-60.85 114.13,-46.92 114.13,-36.1"/>
</g>
<!-- oper_1&#45;&gt;local:twodheg_effective_mass::n_quarter_scaling_vs_shell_filling_noise -->
<g id="edge40" class="edge">
<title>oper_1&#45;&gt;local:twodheg_effective_mass::n_quarter_scaling_vs_shell_filling_noise</title>
<path fill="none" stroke="black" d="M2903.12,-505.2C2903.12,-494.35 2903.12,-480.42 2903.12,-469.6"/>
</g>
</g>
</svg>
