<?xml version="1.0" encoding="UTF-8" standalone="no"?>
<!DOCTYPE svg PUBLIC "-//W3C//DTD SVG 1.1//EN"
 "http://www.w3.org/Graphics/SVG/1.1/DTD/svg11.dtd">
<!-- Generated by graphviz version 14.1.5 (20260411.2331)
 -->
<!-- Title: starmap Pages: 1 -->
<svg width="3428pt" height="806pt"
 viewBox="0.00 0.00 3428.00 806.00" xmlns="http://www.w3.org/2000/svg" xmlns:xlink="http://www.w3.org/1999/xlink">
<g id="graph0" class="graph" transform="scale(1 1) rotate(0) translate(4 802)">
<title>starmap</title>
<polygon fill="white" stroke="none" points="-4,4 -4,-802 3424,-802 3424,4 -4,4"/>
<g id="clust1" class="cluster">
<title>cluster_paper_azadi2025_effective_mass</title>
<path fill="#fafafa" stroke="#999999" d="M20,-136C20,-136 432,-136 432,-136 438,-136 444,-142 444,-148 444,-148 444,-487 444,-487 444,-493 438,-499 432,-499 432,-499 20,-499 20,-499 14,-499 8,-493 8,-487 8,-487 8,-148 8,-148 8,-142 14,-136 20,-136"/>
<text xml:space="preserve" text-anchor="middle" x="226" y="-484.55" font-family="Times,serif" font-size="11.00">paper_azadi2025_effective_mass</text>
</g>
<g id="clust2" class="cluster">
<title>cluster_paper_drummond2009_fermi_fluid</title>
<path fill="#fafafa" stroke="#999999" d="M1642,-280C1642,-280 2372,-280 2372,-280 2378,-280 2384,-286 2384,-292 2384,-292 2384,-632.5 2384,-632.5 2384,-638.5 2378,-644.5 2372,-644.5 2372,-644.5 1642,-644.5 1642,-644.5 1636,-644.5 1630,-638.5 1630,-632.5 1630,-632.5 1630,-292 1630,-292 1630,-286 1636,-280 1642,-280"/>
<text xml:space="preserve" text-anchor="middle" x="2007" y="-630.05" font-family="Times,serif" font-size="11.00">paper_drummond2009_fermi_fluid</text>
</g>
<g id="clust3" class="cluster">
<title>cluster_paper_drummond2012_effective_mass</title>
<path fill="#fafafa" stroke="#999999" d="M464,-136C464,-136 946,-136 946,-136 952,-136 958,-142 958,-148 958,-148 958,-341.5 958,-341.5 958,-347.5 952,-353.5 946,-353.5 946,-353.5 464,-353.5 464,-353.5 458,-353.5 452,-347.5 452,-341.5 452,-341.5 452,-148 452,-148 452,-142 458,-136 464,-136"/>
<text xml:space="preserve" text-anchor="middle" x="705" y="-339.05" font-family="Times,serif" font-size="11.00">paper_drummond2012_effective_mass</text>
</g>
<g id="clust4" class="cluster">
<title>cluster_paper_drummond2013_effective_mass</title>
<path fill="#fafafa" stroke="#999999" d="M978,-280C978,-280 1538,-280 1538,-280 1544,-280 1550,-286 1550,-292 1550,-292 1550,-778 1550,-778 1550,-784 1544,-790 1538,-790 1538,-790 978,-790 978,-790 972,-790 966,-784 966,-778 966,-778 966,-292 966,-292 966,-286 972,-280 978,-280"/>
<text xml:space="preserve" text-anchor="middle" x="1258" y="-775.55" font-family="Times,serif" font-size="11.00">paper_drummond2013_effective_mass</text>
</g>
<g id="clust5" class="cluster">
<title>cluster_paper_drummond2013_fermi_liquid</title>
<path fill="#fafafa" stroke="#999999" d="M2710,-571C2710,-571 3400,-571 3400,-571 3406,-571 3412,-577 3412,-583 3412,-583 3412,-778 3412,-778 3412,-784 3406,-790 3400,-790 3400,-790 2710,-790 2710,-790 2704,-790 2698,-784 2698,-778 2698,-778 2698,-583 2698,-583 2698,-577 2704,-571 2710,-571"/>
<text xml:space="preserve" text-anchor="middle" x="3055" y="-775.55" font-family="Times,serif" font-size="11.00">paper_drummond2013_fermi_liquid</text>
</g>
<g id="clust6" class="cluster">
<title>cluster_paper_holzmann2008</title>
<path fill="#fafafa" stroke="#999999" d="M2404,-571C2404,-571 2606,-571 2606,-571 2612,-571 2618,-577 2618,-583 2618,-583 2618,-778 2618,-778 2618,-784 2612,-790 2606,-790 2606,-790 2404,-790 2404,-790 2398,-790 2392,-784 2392,-778 2392,-778 2392,-583 2392,-583 2392,-577 2398,-571 2404,-571"/>
<text xml:space="preserve" text-anchor="middle" x="2505" y="-775.55" font-family="Times,serif" font-size="11.00">paper_holzmann2008</text>
</g>
<!-- local:twodheg_effective_mass::gcn_21f80773b87f444c -->
<g id="node1" class="node">
<title>local:twodheg_effective_mass::gcn_21f80773b87f444c</title>
<polygon fill="#ddffdd" stroke="#44bb44" points="433.62,-180 214.38,-180 214.38,-144 433.62,-144 433.62,-180"/>
<text xml:space="preserve" text-anchor="middle" x="324" y="-165.25" font-family="Helvetica,sans-Serif" font-size="10.00">2025 paramagnetic m* increases with r_s</text>
<text xml:space="preserve" text-anchor="middle" x="324" y="-152.5" font-family="Helvetica,sans-Serif" font-size="10.00">(0.69)</text>
</g>
<!-- oper_1 -->
<g id="node50" class="node">
<title>oper_1</title>
<polygon fill="#ffebee" stroke="#c62828" points="699.29,-90 667.15,-108 602.85,-108 570.71,-90 602.85,-72 667.15,-72 699.29,-90"/>
<text xml:space="preserve" text-anchor="middle" x="635" y="-86.88" font-family="Helvetica,sans-Serif" font-size="10.00">⊗ contradiction</text>
</g>
<!-- local:twodheg_effective_mass::gcn_21f80773b87f444c&#45;&gt;oper_1 -->
<g id="edge45" class="edge">
<title>local:twodheg_effective_mass::gcn_21f80773b87f444c&#45;&gt;oper_1</title>
<path fill="none" stroke="black" d="M401.68,-143.52C461.05,-130.15 540.81,-112.2 590.02,-101.12"/>
</g>
<!-- local:twodheg_effective_mass::gcn_ac27a904ca704f09 -->
<g id="node2" class="node">
<title>local:twodheg_effective_mass::gcn_ac27a904ca704f09</title>
<polygon fill="#ddffdd" stroke="#44bb44" points="194.38,-324 15.62,-324 15.62,-288 194.38,-288 194.38,-324"/>
<text xml:space="preserve" text-anchor="middle" x="105" y="-309.25" font-family="Helvetica,sans-Serif" font-size="10.00">2025 N^&#45;3/2 m*(N) extrapolation</text>
<text xml:space="preserve" text-anchor="middle" x="105" y="-296.5" font-family="Helvetica,sans-Serif" font-size="10.00">(0.78)</text>
</g>
<!-- strat_16 -->
<g id="node6" class="node">
<title>strat_16</title>
<ellipse fill="#fff9c4" stroke="#f9a825" cx="173" cy="-234" rx="32.28" ry="18"/>
<text xml:space="preserve" text-anchor="middle" x="173" y="-230.88" font-family="Helvetica,sans-Serif" font-size="10.00">support</text>
</g>
<!-- local:twodheg_effective_mass::gcn_ac27a904ca704f09&#45;&gt;strat_16 -->
<g id="edge37" class="edge">
<title>local:twodheg_effective_mass::gcn_ac27a904ca704f09&#45;&gt;strat_16</title>
<path fill="none" stroke="black" d="M121.81,-287.7C130.45,-278.8 141.1,-267.84 150.44,-258.22"/>
<polygon fill="black" stroke="black" points="152.72,-260.9 157.18,-251.29 147.7,-256.02 152.72,-260.9"/>
</g>
<!-- local:twodheg_effective_mass::gcn_cb512194b0bc4df2 -->
<g id="node3" class="node">
<title>local:twodheg_effective_mass::gcn_cb512194b0bc4df2</title>
<polygon fill="#ddeeff" stroke="#4488bb" points="192.88,-469.5 17.12,-469.5 17.12,-433.5 192.88,-433.5 192.88,-469.5"/>
<text xml:space="preserve" text-anchor="middle" x="105" y="-454.75" font-family="Helvetica,sans-Serif" font-size="10.00">2025 finite&#45;size ansatz for m*(N)</text>
<text xml:space="preserve" text-anchor="middle" x="105" y="-442" font-family="Helvetica,sans-Serif" font-size="10.00">(0.78 → 0.74)</text>
</g>
<!-- strat_9 -->
<g id="node5" class="node">
<title>strat_9</title>
<ellipse fill="#fff9c4" stroke="#f9a825" cx="105" cy="-379.5" rx="39.16" ry="18"/>
<text xml:space="preserve" text-anchor="middle" x="105" y="-376.38" font-family="Helvetica,sans-Serif" font-size="10.00">deduction</text>
</g>
<!-- local:twodheg_effective_mass::gcn_cb512194b0bc4df2&#45;&gt;strat_9 -->
<g id="edge23" class="edge">
<title>local:twodheg_effective_mass::gcn_cb512194b0bc4df2&#45;&gt;strat_9</title>
<path fill="none" stroke="black" d="M105,-433.2C105,-425.91 105,-417.23 105,-409.04"/>
<polygon fill="black" stroke="black" points="108.5,-409.12 105,-399.12 101.5,-409.12 108.5,-409.12"/>
</g>
<!-- local:twodheg_effective_mass::gcn_f431f49f19b44cf1 -->
<g id="node4" class="node">
<title>local:twodheg_effective_mass::gcn_f431f49f19b44cf1</title>
<polygon fill="#ddeeff" stroke="#4488bb" points="435.88,-324 212.12,-324 212.12,-288 435.88,-288 435.88,-324"/>
<text xml:space="preserve" text-anchor="middle" x="324" y="-309.25" font-family="Helvetica,sans-Serif" font-size="10.00">2025 ferromagnetic m* decreases with r_s</text>
<text xml:space="preserve" text-anchor="middle" x="324" y="-296.5" font-family="Helvetica,sans-Serif" font-size="10.00">(0.76 → 0.73)</text>
</g>
<!-- strat_17 -->
<g id="node7" class="node">
<title>strat_17</title>
<ellipse fill="#fff9c4" stroke="#f9a825" cx="324" cy="-234" rx="32.28" ry="18"/>
<text xml:space="preserve" text-anchor="middle" x="324" y="-230.88" font-family="Helvetica,sans-Serif" font-size="10.00">support</text>
</g>
<!-- local:twodheg_effective_mass::gcn_f431f49f19b44cf1&#45;&gt;strat_17 -->
<g id="edge39" class="edge">
<title>local:twodheg_effective_mass::gcn_f431f49f19b44cf1&#45;&gt;strat_17</title>
<path fill="none" stroke="black" d="M324,-287.7C324,-280.41 324,-271.73 324,-263.54"/>
<polygon fill="black" stroke="black" points="327.5,-263.62 324,-253.62 320.5,-263.62 327.5,-263.62"/>
</g>
<!-- strat_9&#45;&gt;local:twodheg_effective_mass::gcn_ac27a904ca704f09 -->
<g id="edge24" class="edge">
<title>strat_9&#45;&gt;local:twodheg_effective_mass::gcn_ac27a904ca704f09</title>
<path fill="none" stroke="black" d="M105,-361.19C105,-353.52 105,-344.29 105,-335.64"/>
<polygon fill="black" stroke="black" points="108.5,-335.91 105,-325.91 101.5,-335.91 108.5,-335.91"/>
</g>
<!-- strat_16&#45;&gt;local:twodheg_effective_mass::gcn_21f80773b87f444c -->
<g id="edge38" class="edge">
<title>strat_16&#45;&gt;local:twodheg_effective_mass::gcn_21f80773b87f444c</title>
<path fill="none" stroke="black" d="M197.26,-221.75C218.53,-211.89 250.07,-197.27 276.37,-185.08"/>
<polygon fill="black" stroke="black" points="277.55,-188.39 285.15,-181.01 274.61,-182.04 277.55,-188.39"/>
</g>
<!-- strat_17&#45;&gt;local:twodheg_effective_mass::gcn_21f80773b87f444c -->
<g id="edge40" class="edge">
<title>strat_17&#45;&gt;local:twodheg_effective_mass::gcn_21f80773b87f444c</title>
<path fill="none" stroke="black" d="M324,-215.7C324,-208.41 324,-199.73 324,-191.54"/>
<polygon fill="black" stroke="black" points="327.5,-191.62 324,-181.62 320.5,-191.62 327.5,-191.62"/>
</g>
<!-- local:twodheg_effective_mass::gcn_4d1aad1470d54895 -->
<g id="node8" class="node">
<title>local:twodheg_effective_mass::gcn_4d1aad1470d54895</title>
<polygon fill="#ddeeff" stroke="#4488bb" points="2376,-615 2174,-615 2174,-579 2376,-579 2376,-615"/>
<text xml:space="preserve" text-anchor="middle" x="2275" y="-600.25" font-family="Helvetica,sans-Serif" font-size="10.00">Earlier DMC mass&#45;enhancement trend</text>
<text xml:space="preserve" text-anchor="middle" x="2275" y="-587.5" font-family="Helvetica,sans-Serif" font-size="10.00">(0.68 → 0.48)</text>
</g>
<!-- oper_0 -->
<g id="node49" class="node">
<title>oper_0</title>
<polygon fill="#ffebee" stroke="#c62828" points="1085.29,-90 1053.15,-108 988.85,-108 956.71,-90 988.85,-72 1053.15,-72 1085.29,-90"/>
<text xml:space="preserve" text-anchor="middle" x="1021" y="-86.88" font-family="Helvetica,sans-Serif" font-size="10.00">⊗ contradiction</text>
</g>
<!-- local:twodheg_effective_mass::gcn_4d1aad1470d54895&#45;&gt;oper_0 -->
<g id="edge41" class="edge">
<title>local:twodheg_effective_mass::gcn_4d1aad1470d54895&#45;&gt;oper_0</title>
<path fill="none" stroke="black" d="M2261.22,-578.58C2242.14,-552.67 2210,-501.73 2210,-452.5 2210,-452.5 2210,-452.5 2210,-233 2210,-118.34 1326.9,-95.84 1082.84,-91.82"/>
</g>
<!-- local:twodheg_effective_mass::gcn_f6686a4225a043a6 -->
<g id="node9" class="node">
<title>local:twodheg_effective_mass::gcn_f6686a4225a043a6</title>
<polygon fill="#ddeeff" stroke="#4488bb" points="1870.38,-615 1637.62,-615 1637.62,-579 1870.38,-579 1870.38,-615"/>
<text xml:space="preserve" text-anchor="middle" x="1754" y="-600.25" font-family="Helvetica,sans-Serif" font-size="10.00">Quartic fit captures occupied&#45;band curvature</text>
<text xml:space="preserve" text-anchor="middle" x="1754" y="-587.5" font-family="Helvetica,sans-Serif" font-size="10.00">(0.76 → 0.78)</text>
</g>
<!-- strat_6 -->
<g id="node14" class="node">
<title>strat_6</title>
<ellipse fill="#fff9c4" stroke="#f9a825" cx="1769" cy="-525" rx="39.16" ry="18"/>
<text xml:space="preserve" text-anchor="middle" x="1769" y="-521.88" font-family="Helvetica,sans-Serif" font-size="10.00">deduction</text>
</g>
<!-- local:twodheg_effective_mass::gcn_f6686a4225a043a6&#45;&gt;strat_6 -->
<g id="edge15" class="edge">
<title>local:twodheg_effective_mass::gcn_f6686a4225a043a6&#45;&gt;strat_6</title>
<path fill="none" stroke="black" d="M1757.71,-578.7C1759.29,-571.32 1761.17,-562.52 1762.95,-554.25"/>
<polygon fill="black" stroke="black" points="1766.34,-555.1 1765.02,-544.58 1759.5,-553.63 1766.34,-555.1"/>
</g>
<!-- local:twodheg_effective_mass::gcn_fd7adbfff0f146ba -->
<g id="node10" class="node">
<title>local:twodheg_effective_mass::gcn_fd7adbfff0f146ba</title>
<polygon fill="#ddeeff" stroke="#4488bb" points="2156,-615 1888,-615 1888,-579 2156,-579 2156,-615"/>
<text xml:space="preserve" text-anchor="middle" x="2022" y="-600.25" font-family="Helvetica,sans-Serif" font-size="10.00">Fixed&#45;node errors mostly cancel in band differences</text>
<text xml:space="preserve" text-anchor="middle" x="2022" y="-587.5" font-family="Helvetica,sans-Serif" font-size="10.00">(0.70 → 0.72)</text>
</g>
<!-- local:twodheg_effective_mass::gcn_fd7adbfff0f146ba&#45;&gt;strat_6 -->
<g id="edge16" class="edge">
<title>local:twodheg_effective_mass::gcn_fd7adbfff0f146ba&#45;&gt;strat_6</title>
<path fill="none" stroke="black" d="M1958.81,-578.52C1913.42,-565.96 1853.38,-549.35 1813.09,-538.2"/>
<polygon fill="black" stroke="black" points="1814.05,-534.83 1803.48,-535.54 1812.19,-541.58 1814.05,-534.83"/>
</g>
<!-- local:twodheg_effective_mass::gcn_bf915935b1fd4326 -->
<g id="node11" class="node">
<title>local:twodheg_effective_mass::gcn_bf915935b1fd4326</title>
<polygon fill="#ddffdd" stroke="#44bb44" points="1900.38,-469.5 1637.62,-469.5 1637.62,-433.5 1900.38,-433.5 1900.38,-469.5"/>
<text xml:space="preserve" text-anchor="middle" x="1769" y="-454.75" font-family="Helvetica,sans-Serif" font-size="10.00">DMC occupied band shows nonquadratic curvature</text>
<text xml:space="preserve" text-anchor="middle" x="1769" y="-442" font-family="Helvetica,sans-Serif" font-size="10.00">(0.81)</text>
</g>
<!-- strat_15 -->
<g id="node16" class="node">
<title>strat_15</title>
<ellipse fill="#fff9c4" stroke="#f9a825" cx="1839" cy="-379.5" rx="32.28" ry="18"/>
<text xml:space="preserve" text-anchor="middle" x="1839" y="-376.38" font-family="Helvetica,sans-Serif" font-size="10.00">support</text>
</g>
<!-- local:twodheg_effective_mass::gcn_bf915935b1fd4326&#45;&gt;strat_15 -->
<g id="edge35" class="edge">
<title>local:twodheg_effective_mass::gcn_bf915935b1fd4326&#45;&gt;strat_15</title>
<path fill="none" stroke="black" d="M1786.3,-433.2C1795.2,-424.3 1806.16,-413.34 1815.78,-403.72"/>
<polygon fill="black" stroke="black" points="1818.13,-406.32 1822.73,-396.77 1813.18,-401.37 1818.13,-406.32"/>
</g>
<!-- strat_14 -->
<g id="node48" class="node">
<title>strat_14</title>
<ellipse fill="#fff9c4" stroke="#f9a825" cx="1590" cy="-379.5" rx="32.28" ry="18"/>
<text xml:space="preserve" text-anchor="middle" x="1590" y="-376.38" font-family="Helvetica,sans-Serif" font-size="10.00">support</text>
</g>
<!-- local:twodheg_effective_mass::gcn_bf915935b1fd4326&#45;&gt;strat_14 -->
<g id="edge33" class="edge">
<title>local:twodheg_effective_mass::gcn_bf915935b1fd4326&#45;&gt;strat_14</title>
<path fill="none" stroke="black" d="M1718.62,-433.03C1691.04,-423.16 1656.39,-410.28 1626,-397.5 1625.38,-397.24 1624.76,-396.98 1624.14,-396.71"/>
<polygon fill="black" stroke="black" points="1625.82,-393.63 1615.26,-392.75 1622.97,-400.02 1625.82,-393.63"/>
</g>
<!-- local:twodheg_effective_mass::gcn_888498a0614d40d7 -->
<g id="node12" class="node">
<title>local:twodheg_effective_mass::gcn_888498a0614d40d7</title>
<polygon fill="#ddeeff" stroke="#4488bb" points="2167.62,-469.5 1918.38,-469.5 1918.38,-433.5 2167.62,-433.5 2167.62,-469.5"/>
<text xml:space="preserve" text-anchor="middle" x="2043" y="-454.75" font-family="Helvetica,sans-Serif" font-size="10.00">Quartic term as leading nonquadratic correction</text>
<text xml:space="preserve" text-anchor="middle" x="2043" y="-442" font-family="Helvetica,sans-Serif" font-size="10.00">(0.72 → 0.80)</text>
</g>
<!-- strat_7 -->
<g id="node15" class="node">
<title>strat_7</title>
<ellipse fill="#fff9c4" stroke="#f9a825" cx="2036" cy="-379.5" rx="39.16" ry="18"/>
<text xml:space="preserve" text-anchor="middle" x="2036" y="-376.38" font-family="Helvetica,sans-Serif" font-size="10.00">deduction</text>
</g>
<!-- local:twodheg_effective_mass::gcn_888498a0614d40d7&#45;&gt;strat_7 -->
<g id="edge18" class="edge">
<title>local:twodheg_effective_mass::gcn_888498a0614d40d7&#45;&gt;strat_7</title>
<path fill="none" stroke="black" d="M2041.27,-433.2C2040.54,-425.91 2039.67,-417.23 2038.85,-409.04"/>
<polygon fill="black" stroke="black" points="2042.34,-408.71 2037.86,-399.11 2035.37,-409.41 2042.34,-408.71"/>
</g>
<!-- local:twodheg_effective_mass::gcn_318b062f17344859 -->
<g id="node13" class="node">
<title>local:twodheg_effective_mass::gcn_318b062f17344859</title>
<polygon fill="#ddffdd" stroke="#44bb44" points="2062.75,-324 1757.25,-324 1757.25,-288 2062.75,-288 2062.75,-324"/>
<text xml:space="preserve" text-anchor="middle" x="1910" y="-309.25" font-family="Helvetica,sans-Serif" font-size="10.00">Nonquadratic DMC band curvature affects thermodynamics</text>
<text xml:space="preserve" text-anchor="middle" x="1910" y="-296.5" font-family="Helvetica,sans-Serif" font-size="10.00">(0.95)</text>
</g>
<!-- strat_6&#45;&gt;local:twodheg_effective_mass::gcn_bf915935b1fd4326 -->
<g id="edge17" class="edge">
<title>strat_6&#45;&gt;local:twodheg_effective_mass::gcn_bf915935b1fd4326</title>
<path fill="none" stroke="black" d="M1769,-506.69C1769,-499.02 1769,-489.79 1769,-481.14"/>
<polygon fill="black" stroke="black" points="1772.5,-481.41 1769,-471.41 1765.5,-481.41 1772.5,-481.41"/>
</g>
<!-- strat_7&#45;&gt;local:twodheg_effective_mass::gcn_318b062f17344859 -->
<g id="edge19" class="edge">
<title>strat_7&#45;&gt;local:twodheg_effective_mass::gcn_318b062f17344859</title>
<path fill="none" stroke="black" d="M2012,-364.88C1994.66,-355.04 1970.8,-341.5 1950.53,-330"/>
<polygon fill="black" stroke="black" points="1952.35,-327 1941.92,-325.11 1948.89,-333.09 1952.35,-327"/>
</g>
<!-- strat_15&#45;&gt;local:twodheg_effective_mass::gcn_318b062f17344859 -->
<g id="edge36" class="edge">
<title>strat_15&#45;&gt;local:twodheg_effective_mass::gcn_318b062f17344859</title>
<path fill="none" stroke="black" d="M1854.06,-363.34C1862.99,-354.34 1874.53,-342.72 1884.82,-332.36"/>
<polygon fill="black" stroke="black" points="1887.09,-335.04 1891.65,-325.48 1882.12,-330.11 1887.09,-335.04"/>
</g>
<!-- local:twodheg_effective_mass::gcn_a685639571304474 -->
<g id="node17" class="node">
<title>local:twodheg_effective_mass::gcn_a685639571304474</title>
<polygon fill="#ddeeff" stroke="#4488bb" points="686,-324 460,-324 460,-288 686,-288 686,-324"/>
<text xml:space="preserve" text-anchor="middle" x="573" y="-309.25" font-family="Helvetica,sans-Serif" font-size="10.00">Monte Carlo resampling for m* uncertainty</text>
<text xml:space="preserve" text-anchor="middle" x="573" y="-296.5" font-family="Helvetica,sans-Serif" font-size="10.00">(0.75 → 0.59)</text>
</g>
<!-- strat_8 -->
<g id="node20" class="node">
<title>strat_8</title>
<ellipse fill="#fff9c4" stroke="#f9a825" cx="827" cy="-234" rx="39.16" ry="18"/>
<text xml:space="preserve" text-anchor="middle" x="827" y="-230.88" font-family="Helvetica,sans-Serif" font-size="10.00">deduction</text>
</g>
<!-- local:twodheg_effective_mass::gcn_a685639571304474&#45;&gt;strat_8 -->
<g id="edge20" class="edge">
<title>local:twodheg_effective_mass::gcn_a685639571304474&#45;&gt;strat_8</title>
<path fill="none" stroke="black" d="M636.44,-287.52C682.11,-274.93 742.54,-258.28 783,-247.13"/>
<polygon fill="black" stroke="black" points="783.68,-250.57 792.39,-244.54 781.82,-243.82 783.68,-250.57"/>
</g>
<!-- local:twodheg_effective_mass::gcn_17c63b5dc2154f15 -->
<g id="node18" class="node">
<title>local:twodheg_effective_mass::gcn_17c63b5dc2154f15</title>
<polygon fill="#ddeeff" stroke="#4488bb" points="949.75,-324 704.25,-324 704.25,-288 949.75,-288 949.75,-324"/>
<text xml:space="preserve" text-anchor="middle" x="827" y="-309.25" font-family="Helvetica,sans-Serif" font-size="10.00">Residual fixed&#45;node/time&#45;step biases are small</text>
<text xml:space="preserve" text-anchor="middle" x="827" y="-296.5" font-family="Helvetica,sans-Serif" font-size="10.00">(0.72 → 0.54)</text>
</g>
<!-- local:twodheg_effective_mass::gcn_17c63b5dc2154f15&#45;&gt;strat_8 -->
<g id="edge21" class="edge">
<title>local:twodheg_effective_mass::gcn_17c63b5dc2154f15&#45;&gt;strat_8</title>
<path fill="none" stroke="black" d="M827,-287.7C827,-280.41 827,-271.73 827,-263.54"/>
<polygon fill="black" stroke="black" points="830.5,-263.62 827,-253.62 823.5,-263.62 830.5,-263.62"/>
</g>
<!-- local:twodheg_effective_mass::gcn_b7a7d456a05d4129 -->
<g id="node19" class="node">
<title>local:twodheg_effective_mass::gcn_b7a7d456a05d4129</title>
<polygon fill="#ddffdd" stroke="#44bb44" points="949.25,-180 706.75,-180 706.75,-144 949.25,-144 949.25,-180"/>
<text xml:space="preserve" text-anchor="middle" x="828" y="-165.25" font-family="Helvetica,sans-Serif" font-size="10.00">Revised thermodynamic&#45;limit m* benchmarks</text>
<text xml:space="preserve" text-anchor="middle" x="828" y="-152.5" font-family="Helvetica,sans-Serif" font-size="10.00">(0.29)</text>
</g>
<!-- local:twodheg_effective_mass::gcn_b7a7d456a05d4129&#45;&gt;oper_0 -->
<g id="edge42" class="edge">
<title>local:twodheg_effective_mass::gcn_b7a7d456a05d4129&#45;&gt;oper_0</title>
<path fill="none" stroke="black" d="M876.2,-143.52C909.03,-131.61 951.9,-116.06 982.46,-104.98"/>
</g>
<!-- local:twodheg_effective_mass::gcn_b7a7d456a05d4129&#45;&gt;oper_1 -->
<g id="edge44" class="edge">
<title>local:twodheg_effective_mass::gcn_b7a7d456a05d4129&#45;&gt;oper_1</title>
<path fill="none" stroke="black" d="M779.8,-143.52C746.97,-131.61 704.1,-116.06 673.54,-104.98"/>
</g>
<!-- strat_8&#45;&gt;local:twodheg_effective_mass::gcn_b7a7d456a05d4129 -->
<g id="edge22" class="edge">
<title>strat_8&#45;&gt;local:twodheg_effective_mass::gcn_b7a7d456a05d4129</title>
<path fill="none" stroke="black" d="M827.25,-215.7C827.35,-208.41 827.48,-199.73 827.59,-191.54"/>
<polygon fill="black" stroke="black" points="831.09,-191.67 827.73,-181.62 824.09,-191.57 831.09,-191.67"/>
</g>
<!-- local:twodheg_effective_mass::gcn_850fc9d9de314026 -->
<g id="node21" class="node">
<title>local:twodheg_effective_mass::gcn_850fc9d9de314026</title>
<polygon fill="#ddeeff" stroke="#4488bb" points="1541.5,-760.5 1312.5,-760.5 1312.5,-724.5 1541.5,-724.5 1541.5,-760.5"/>
<text xml:space="preserve" text-anchor="middle" x="1427" y="-745.75" font-family="Helvetica,sans-Serif" font-size="10.00">Excited&#45;state reoptimization finite&#45;size bias</text>
<text xml:space="preserve" text-anchor="middle" x="1427" y="-733" font-family="Helvetica,sans-Serif" font-size="10.00">(0.76 → 0.84)</text>
</g>
<!-- strat_3 -->
<g id="node29" class="node">
<title>strat_3</title>
<ellipse fill="#fff9c4" stroke="#f9a825" cx="1427" cy="-670.5" rx="39.16" ry="18"/>
<text xml:space="preserve" text-anchor="middle" x="1427" y="-667.38" font-family="Helvetica,sans-Serif" font-size="10.00">deduction</text>
</g>
<!-- local:twodheg_effective_mass::gcn_850fc9d9de314026&#45;&gt;strat_3 -->
<g id="edge7" class="edge">
<title>local:twodheg_effective_mass::gcn_850fc9d9de314026&#45;&gt;strat_3</title>
<path fill="none" stroke="black" d="M1427,-724.2C1427,-716.91 1427,-708.23 1427,-700.04"/>
<polygon fill="black" stroke="black" points="1430.5,-700.12 1427,-690.12 1423.5,-700.12 1430.5,-700.12"/>
</g>
<!-- strat_11 -->
<g id="node46" class="node">
<title>strat_11</title>
<ellipse fill="#fff9c4" stroke="#f9a825" cx="1971" cy="-670.5" rx="32.28" ry="18"/>
<text xml:space="preserve" text-anchor="middle" x="1971" y="-667.38" font-family="Helvetica,sans-Serif" font-size="10.00">support</text>
</g>
<!-- local:twodheg_effective_mass::gcn_850fc9d9de314026&#45;&gt;strat_11 -->
<g id="edge27" class="edge">
<title>local:twodheg_effective_mass::gcn_850fc9d9de314026&#45;&gt;strat_11</title>
<path fill="none" stroke="black" d="M1541.7,-726.74C1662.33,-711.22 1845.85,-687.6 1928.28,-677"/>
<polygon fill="black" stroke="black" points="1928.72,-680.47 1938.19,-675.72 1927.83,-673.53 1928.72,-680.47"/>
</g>
<!-- local:twodheg_effective_mass::gcn_c7b10e47e2ab45e1 -->
<g id="node22" class="node">
<title>local:twodheg_effective_mass::gcn_c7b10e47e2ab45e1</title>
<polygon fill="#ddffdd" stroke="#44bb44" points="1541.5,-615 1312.5,-615 1312.5,-579 1541.5,-579 1541.5,-615"/>
<text xml:space="preserve" text-anchor="middle" x="1427" y="-600.25" font-family="Helvetica,sans-Serif" font-size="10.00">Quantified reoptimization bias in finite cells</text>
<text xml:space="preserve" text-anchor="middle" x="1427" y="-587.5" font-family="Helvetica,sans-Serif" font-size="10.00">(0.90)</text>
</g>
<!-- local:twodheg_effective_mass::gcn_48797cba2bf44d90 -->
<g id="node23" class="node">
<title>local:twodheg_effective_mass::gcn_48797cba2bf44d90</title>
<polygon fill="#ddeeff" stroke="#4488bb" points="1139.62,-469.5 974.38,-469.5 974.38,-433.5 1139.62,-433.5 1139.62,-469.5"/>
<text xml:space="preserve" text-anchor="middle" x="1057" y="-454.75" font-family="Helvetica,sans-Serif" font-size="10.00">Quartic band derivative for m*</text>
<text xml:space="preserve" text-anchor="middle" x="1057" y="-442" font-family="Helvetica,sans-Serif" font-size="10.00">(0.78 → 0.78)</text>
</g>
<!-- strat_4 -->
<g id="node30" class="node">
<title>strat_4</title>
<ellipse fill="#fff9c4" stroke="#f9a825" cx="1248" cy="-379.5" rx="39.16" ry="18"/>
<text xml:space="preserve" text-anchor="middle" x="1248" y="-376.38" font-family="Helvetica,sans-Serif" font-size="10.00">deduction</text>
</g>
<!-- local:twodheg_effective_mass::gcn_48797cba2bf44d90&#45;&gt;strat_4 -->
<g id="edge9" class="edge">
<title>local:twodheg_effective_mass::gcn_48797cba2bf44d90&#45;&gt;strat_4</title>
<path fill="none" stroke="black" d="M1104.7,-433.02C1136.39,-421.4 1177.54,-406.32 1207.61,-395.3"/>
<polygon fill="black" stroke="black" points="1208.54,-398.69 1216.72,-391.96 1206.13,-392.12 1208.54,-398.69"/>
</g>
<!-- local:twodheg_effective_mass::gcn_1e8fcb7ef934428d -->
<g id="node24" class="node">
<title>local:twodheg_effective_mass::gcn_1e8fcb7ef934428d</title>
<polygon fill="#ddeeff" stroke="#4488bb" points="1338.5,-469.5 1157.5,-469.5 1157.5,-433.5 1338.5,-433.5 1338.5,-469.5"/>
<text xml:space="preserve" text-anchor="middle" x="1248" y="-454.75" font-family="Helvetica,sans-Serif" font-size="10.00">Power&#45;law extrapolation of m*(N)</text>
<text xml:space="preserve" text-anchor="middle" x="1248" y="-442" font-family="Helvetica,sans-Serif" font-size="10.00">(0.75 → 0.75)</text>
</g>
<!-- local:twodheg_effective_mass::gcn_1e8fcb7ef934428d&#45;&gt;strat_4 -->
<g id="edge10" class="edge">
<title>local:twodheg_effective_mass::gcn_1e8fcb7ef934428d&#45;&gt;strat_4</title>
<path fill="none" stroke="black" d="M1248,-433.2C1248,-425.91 1248,-417.23 1248,-409.04"/>
<polygon fill="black" stroke="black" points="1251.5,-409.12 1248,-399.12 1244.5,-409.12 1251.5,-409.12"/>
</g>
<!-- local:twodheg_effective_mass::gcn_50e263dc961541e0 -->
<g id="node25" class="node">
<title>local:twodheg_effective_mass::gcn_50e263dc961541e0</title>
<polygon fill="#ddffdd" stroke="#44bb44" points="1541.75,-469.5 1356.25,-469.5 1356.25,-433.5 1541.75,-433.5 1541.75,-469.5"/>
<text xml:space="preserve" text-anchor="middle" x="1449" y="-454.75" font-family="Helvetica,sans-Serif" font-size="10.00">Wide k&#45;window stabilizes band fits</text>
<text xml:space="preserve" text-anchor="middle" x="1449" y="-442" font-family="Helvetica,sans-Serif" font-size="10.00">(0.76 → 0.96)</text>
</g>
<!-- local:twodheg_effective_mass::gcn_50e263dc961541e0&#45;&gt;strat_4 -->
<g id="edge11" class="edge">
<title>local:twodheg_effective_mass::gcn_50e263dc961541e0&#45;&gt;strat_4</title>
<path fill="none" stroke="black" d="M1398.8,-433.02C1364.99,-421.24 1320.96,-405.91 1289.21,-394.85"/>
<polygon fill="black" stroke="black" points="1290.55,-391.61 1279.96,-391.63 1288.25,-398.22 1290.55,-391.61"/>
</g>
<!-- local:twodheg_effective_mass::gcn_a981a2b787514e47 -->
<g id="node26" class="node">
<title>local:twodheg_effective_mass::gcn_a981a2b787514e47</title>
<polygon fill="#ddffdd" stroke="#44bb44" points="1366.62,-324 1129.38,-324 1129.38,-288 1366.62,-288 1366.62,-324"/>
<text xml:space="preserve" text-anchor="middle" x="1248" y="-309.25" font-family="Helvetica,sans-Serif" font-size="10.00">DMC band&#45;fit protocol for thermodynamic m*</text>
<text xml:space="preserve" text-anchor="middle" x="1248" y="-296.5" font-family="Helvetica,sans-Serif" font-size="10.00">(0.76)</text>
</g>
<!-- strat_12 -->
<g id="node47" class="node">
<title>strat_12</title>
<ellipse fill="#fff9c4" stroke="#f9a825" cx="1123" cy="-234" rx="32.28" ry="18"/>
<text xml:space="preserve" text-anchor="middle" x="1123" y="-230.88" font-family="Helvetica,sans-Serif" font-size="10.00">support</text>
</g>
<!-- local:twodheg_effective_mass::gcn_a981a2b787514e47&#45;&gt;strat_12 -->
<g id="edge29" class="edge">
<title>local:twodheg_effective_mass::gcn_a981a2b787514e47&#45;&gt;strat_12</title>
<path fill="none" stroke="black" d="M1216.78,-287.52C1197.99,-276.99 1174.11,-263.62 1155.15,-253.01"/>
<polygon fill="black" stroke="black" points="1156.95,-250 1146.51,-248.17 1153.53,-256.11 1156.95,-250"/>
</g>
<!-- local:twodheg_effective_mass::gcn_f6ca85b75deb46ba -->
<g id="node27" class="node">
<title>local:twodheg_effective_mass::gcn_f6ca85b75deb46ba</title>
<polygon fill="#ddeeff" stroke="#4488bb" points="1287.25,-760.5 1032.75,-760.5 1032.75,-724.5 1287.25,-724.5 1287.25,-760.5"/>
<text xml:space="preserve" text-anchor="middle" x="1160" y="-745.75" font-family="Helvetica,sans-Serif" font-size="10.00">HF pathology plus finite&#45;cell correlation recovery</text>
<text xml:space="preserve" text-anchor="middle" x="1160" y="-733" font-family="Helvetica,sans-Serif" font-size="10.00">(0.74 → 0.77)</text>
</g>
<!-- strat_5 -->
<g id="node31" class="node">
<title>strat_5</title>
<ellipse fill="#fff9c4" stroke="#f9a825" cx="1160" cy="-670.5" rx="39.16" ry="18"/>
<text xml:space="preserve" text-anchor="middle" x="1160" y="-667.38" font-family="Helvetica,sans-Serif" font-size="10.00">deduction</text>
</g>
<!-- local:twodheg_effective_mass::gcn_f6ca85b75deb46ba&#45;&gt;strat_5 -->
<g id="edge13" class="edge">
<title>local:twodheg_effective_mass::gcn_f6ca85b75deb46ba&#45;&gt;strat_5</title>
<path fill="none" stroke="black" d="M1160,-724.2C1160,-716.91 1160,-708.23 1160,-700.04"/>
<polygon fill="black" stroke="black" points="1163.5,-700.12 1160,-690.12 1156.5,-700.12 1163.5,-700.12"/>
</g>
<!-- local:twodheg_effective_mass::gcn_8df2cd5b49524aac -->
<g id="node28" class="node">
<title>local:twodheg_effective_mass::gcn_8df2cd5b49524aac</title>
<polygon fill="#ddffdd" stroke="#44bb44" points="1294.38,-615 1025.62,-615 1025.62,-579 1294.38,-579 1294.38,-615"/>
<text xml:space="preserve" text-anchor="middle" x="1160" y="-600.25" font-family="Helvetica,sans-Serif" font-size="10.00">Near&#45;k_F derivative pathologies require band fitting</text>
<text xml:space="preserve" text-anchor="middle" x="1160" y="-587.5" font-family="Helvetica,sans-Serif" font-size="10.00">(0.89)</text>
</g>
<!-- strat_13 -->
<g id="node32" class="node">
<title>strat_13</title>
<ellipse fill="#fff9c4" stroke="#f9a825" cx="1304" cy="-525" rx="32.28" ry="18"/>
<text xml:space="preserve" text-anchor="middle" x="1304" y="-521.88" font-family="Helvetica,sans-Serif" font-size="10.00">support</text>
</g>
<!-- local:twodheg_effective_mass::gcn_8df2cd5b49524aac&#45;&gt;strat_13 -->
<g id="edge31" class="edge">
<title>local:twodheg_effective_mass::gcn_8df2cd5b49524aac&#45;&gt;strat_13</title>
<path fill="none" stroke="black" d="M1195.97,-578.52C1218.59,-567.52 1247.61,-553.41 1269.87,-542.59"/>
<polygon fill="black" stroke="black" points="1271.37,-545.75 1278.84,-538.23 1268.31,-539.46 1271.37,-545.75"/>
</g>
<!-- strat_3&#45;&gt;local:twodheg_effective_mass::gcn_c7b10e47e2ab45e1 -->
<g id="edge8" class="edge">
<title>strat_3&#45;&gt;local:twodheg_effective_mass::gcn_c7b10e47e2ab45e1</title>
<path fill="none" stroke="black" d="M1427,-652.19C1427,-644.52 1427,-635.29 1427,-626.64"/>
<polygon fill="black" stroke="black" points="1430.5,-626.91 1427,-616.91 1423.5,-626.91 1430.5,-626.91"/>
</g>
<!-- strat_4&#45;&gt;local:twodheg_effective_mass::gcn_a981a2b787514e47 -->
<g id="edge12" class="edge">
<title>strat_4&#45;&gt;local:twodheg_effective_mass::gcn_a981a2b787514e47</title>
<path fill="none" stroke="black" d="M1248,-361.19C1248,-353.52 1248,-344.29 1248,-335.64"/>
<polygon fill="black" stroke="black" points="1251.5,-335.91 1248,-325.91 1244.5,-335.91 1251.5,-335.91"/>
</g>
<!-- strat_5&#45;&gt;local:twodheg_effective_mass::gcn_8df2cd5b49524aac -->
<g id="edge14" class="edge">
<title>strat_5&#45;&gt;local:twodheg_effective_mass::gcn_8df2cd5b49524aac</title>
<path fill="none" stroke="black" d="M1160,-652.19C1160,-644.52 1160,-635.29 1160,-626.64"/>
<polygon fill="black" stroke="black" points="1163.5,-626.91 1160,-616.91 1156.5,-626.91 1163.5,-626.91"/>
</g>
<!-- strat_13&#45;&gt;local:twodheg_effective_mass::gcn_50e263dc961541e0 -->
<g id="edge32" class="edge">
<title>strat_13&#45;&gt;local:twodheg_effective_mass::gcn_50e263dc961541e0</title>
<path fill="none" stroke="black" d="M1327.62,-512.35C1348.14,-502.23 1378.45,-487.29 1403.65,-474.86"/>
<polygon fill="black" stroke="black" points="1404.95,-478.12 1412.37,-470.56 1401.86,-471.84 1404.95,-478.12"/>
</g>
<!-- local:twodheg_effective_mass::gcn_219b34bd252c43fa -->
<g id="node33" class="node">
<title>local:twodheg_effective_mass::gcn_219b34bd252c43fa</title>
<polygon fill="#ddeeff" stroke="#4488bb" points="2959.5,-760.5 2706.5,-760.5 2706.5,-724.5 2959.5,-724.5 2959.5,-760.5"/>
<text xml:space="preserve" text-anchor="middle" x="2833" y="-745.75" font-family="Helvetica,sans-Serif" font-size="10.00">N^&#45;1/4 finite&#45;size scaling for Landau parameters</text>
<text xml:space="preserve" text-anchor="middle" x="2833" y="-733" font-family="Helvetica,sans-Serif" font-size="10.00">(0.78 → 0.86)</text>
</g>
<!-- strat_10 -->
<g id="node45" class="node">
<title>strat_10</title>
<ellipse fill="#fff9c4" stroke="#f9a825" cx="2658" cy="-670.5" rx="32.28" ry="18"/>
<text xml:space="preserve" text-anchor="middle" x="2658" y="-667.38" font-family="Helvetica,sans-Serif" font-size="10.00">support</text>
</g>
<!-- local:twodheg_effective_mass::gcn_219b34bd252c43fa&#45;&gt;strat_10 -->
<g id="edge25" class="edge">
<title>local:twodheg_effective_mass::gcn_219b34bd252c43fa&#45;&gt;strat_10</title>
<path fill="none" stroke="black" d="M2784.39,-724.01C2757.54,-714.09 2723.7,-701.15 2694,-688.5 2693.38,-688.24 2692.76,-687.97 2692.14,-687.7"/>
<polygon fill="black" stroke="black" points="2693.83,-684.62 2683.28,-683.72 2690.96,-691.01 2693.83,-684.62"/>
</g>
<!-- local:twodheg_effective_mass::gcn_3ceb44ae3f404964 -->
<g id="node34" class="node">
<title>local:twodheg_effective_mass::gcn_3ceb44ae3f404964</title>
<polygon fill="#ddeeff" stroke="#4488bb" points="3166.25,-760.5 2977.75,-760.5 2977.75,-724.5 3166.25,-724.5 3166.25,-760.5"/>
<text xml:space="preserve" text-anchor="middle" x="3072" y="-745.75" font-family="Helvetica,sans-Serif" font-size="10.00">Theoretical N^&#45;1/4 scaling premise</text>
<text xml:space="preserve" text-anchor="middle" x="3072" y="-733" font-family="Helvetica,sans-Serif" font-size="10.00">(0.78 → 0.78)</text>
</g>
<!-- strat_1 -->
<g id="node38" class="node">
<title>strat_1</title>
<ellipse fill="#fff9c4" stroke="#f9a825" cx="3043" cy="-670.5" rx="39.16" ry="18"/>
<text xml:space="preserve" text-anchor="middle" x="3043" y="-667.38" font-family="Helvetica,sans-Serif" font-size="10.00">deduction</text>
</g>
<!-- local:twodheg_effective_mass::gcn_3ceb44ae3f404964&#45;&gt;strat_1 -->
<g id="edge3" class="edge">
<title>local:twodheg_effective_mass::gcn_3ceb44ae3f404964&#45;&gt;strat_1</title>
<path fill="none" stroke="black" d="M3064.83,-724.2C3061.71,-716.65 3057.96,-707.62 3054.47,-699.18"/>
<polygon fill="black" stroke="black" points="3057.73,-697.9 3050.67,-690 3051.26,-700.58 3057.73,-697.9"/>
</g>
<!-- local:twodheg_effective_mass::gcn_3db07703d3684507 -->
<g id="node35" class="node">
<title>local:twodheg_effective_mass::gcn_3db07703d3684507</title>
<polygon fill="#ddffdd" stroke="#44bb44" points="3135.62,-615 2892.38,-615 2892.38,-579 3135.62,-579 3135.62,-615"/>
<text xml:space="preserve" text-anchor="middle" x="3014" y="-600.25" font-family="Helvetica,sans-Serif" font-size="10.00">Shell noise undermines direct FL extrapolation</text>
<text xml:space="preserve" text-anchor="middle" x="3014" y="-587.5" font-family="Helvetica,sans-Serif" font-size="10.00">(0.87)</text>
</g>
<!-- local:twodheg_effective_mass::gcn_836bae7457044c7a -->
<g id="node36" class="node">
<title>local:twodheg_effective_mass::gcn_836bae7457044c7a</title>
<polygon fill="#ddeeff" stroke="#4488bb" points="3403.62,-760.5 3184.38,-760.5 3184.38,-724.5 3403.62,-724.5 3403.62,-760.5"/>
<text xml:space="preserve" text-anchor="middle" x="3294" y="-745.75" font-family="Helvetica,sans-Serif" font-size="10.00">Assembling best&#45;available FL parameters</text>
<text xml:space="preserve" text-anchor="middle" x="3294" y="-733" font-family="Helvetica,sans-Serif" font-size="10.00">(0.74 → 0.74)</text>
</g>
<!-- strat_2 -->
<g id="node39" class="node">
<title>strat_2</title>
<ellipse fill="#fff9c4" stroke="#f9a825" cx="3286" cy="-670.5" rx="39.16" ry="18"/>
<text xml:space="preserve" text-anchor="middle" x="3286" y="-667.38" font-family="Helvetica,sans-Serif" font-size="10.00">deduction</text>
</g>
<!-- local:twodheg_effective_mass::gcn_836bae7457044c7a&#45;&gt;strat_2 -->
<g id="edge5" class="edge">
<title>local:twodheg_effective_mass::gcn_836bae7457044c7a&#45;&gt;strat_2</title>
<path fill="none" stroke="black" d="M3292.02,-724.2C3291.19,-716.91 3290.2,-708.23 3289.26,-700.04"/>
<polygon fill="black" stroke="black" points="3292.74,-699.65 3288.13,-690.11 3285.78,-700.44 3292.74,-699.65"/>
</g>
<!-- local:twodheg_effective_mass::gcn_306f15c9d5814e23 -->
<g id="node37" class="node">
<title>local:twodheg_effective_mass::gcn_306f15c9d5814e23</title>
<polygon fill="#ddffdd" stroke="#44bb44" points="3404.38,-615 3153.62,-615 3153.62,-579 3404.38,-579 3404.38,-615"/>
<text xml:space="preserve" text-anchor="middle" x="3279" y="-600.25" font-family="Helvetica,sans-Serif" font-size="10.00">Recommended 2D HEG Fermi&#45;liquid parameters</text>
<text xml:space="preserve" text-anchor="middle" x="3279" y="-587.5" font-family="Helvetica,sans-Serif" font-size="10.00">(0.85)</text>
</g>
<!-- strat_1&#45;&gt;local:twodheg_effective_mass::gcn_3db07703d3684507 -->
<g id="edge4" class="edge">
<title>strat_1&#45;&gt;local:twodheg_effective_mass::gcn_3db07703d3684507</title>
<path fill="none" stroke="black" d="M3036.13,-652.56C3032.89,-644.57 3028.94,-634.83 3025.28,-625.81"/>
<polygon fill="black" stroke="black" points="3028.6,-624.67 3021.59,-616.72 3022.11,-627.3 3028.6,-624.67"/>
</g>
<!-- strat_2&#45;&gt;local:twodheg_effective_mass::gcn_306f15c9d5814e23 -->
<g id="edge6" class="edge">
<title>strat_2&#45;&gt;local:twodheg_effective_mass::gcn_306f15c9d5814e23</title>
<path fill="none" stroke="black" d="M3284.31,-652.19C3283.55,-644.52 3282.65,-635.29 3281.8,-626.64"/>
<polygon fill="black" stroke="black" points="3285.31,-626.51 3280.85,-616.9 3278.34,-627.2 3285.31,-626.51"/>
</g>
<!-- local:twodheg_effective_mass::gcn_da3eecec49114543 -->
<g id="node40" class="node">
<title>local:twodheg_effective_mass::gcn_da3eecec49114543</title>
<polygon fill="#ddeeff" stroke="#4488bb" points="2600.75,-760.5 2409.25,-760.5 2409.25,-724.5 2600.75,-724.5 2600.75,-760.5"/>
<text xml:space="preserve" text-anchor="middle" x="2505" y="-745.75" font-family="Helvetica,sans-Serif" font-size="10.00">Finite&#45;size kinetic&#45;energy correction</text>
<text xml:space="preserve" text-anchor="middle" x="2505" y="-733" font-family="Helvetica,sans-Serif" font-size="10.00">(0.82 → 0.89)</text>
</g>
<!-- strat_0 -->
<g id="node42" class="node">
<title>strat_0</title>
<ellipse fill="#fff9c4" stroke="#f9a825" cx="2505" cy="-670.5" rx="39.16" ry="18"/>
<text xml:space="preserve" text-anchor="middle" x="2505" y="-667.38" font-family="Helvetica,sans-Serif" font-size="10.00">deduction</text>
</g>
<!-- local:twodheg_effective_mass::gcn_da3eecec49114543&#45;&gt;strat_0 -->
<g id="edge1" class="edge">
<title>local:twodheg_effective_mass::gcn_da3eecec49114543&#45;&gt;strat_0</title>
<path fill="none" stroke="black" d="M2505,-724.2C2505,-716.91 2505,-708.23 2505,-700.04"/>
<polygon fill="black" stroke="black" points="2508.5,-700.12 2505,-690.12 2501.5,-700.12 2508.5,-700.12"/>
</g>
<!-- local:twodheg_effective_mass::gcn_28b9e01bd2f8487f -->
<g id="node41" class="node">
<title>local:twodheg_effective_mass::gcn_28b9e01bd2f8487f</title>
<polygon fill="#d4edda" stroke="#28a745" stroke-width="2" points="2609.75,-615 2400.25,-615 2400.25,-579 2609.75,-579 2609.75,-615"/>
<text xml:space="preserve" text-anchor="middle" x="2505" y="-600.25" font-family="Helvetica,sans-Serif" font-size="10.00">★ Slow finite&#45;size errors can flip m* &#45; m</text>
<text xml:space="preserve" text-anchor="middle" x="2505" y="-587.5" font-family="Helvetica,sans-Serif" font-size="10.00">(0.99)</text>
</g>
<!-- strat_0&#45;&gt;local:twodheg_effective_mass::gcn_28b9e01bd2f8487f -->
<g id="edge2" class="edge">
<title>strat_0&#45;&gt;local:twodheg_effective_mass::gcn_28b9e01bd2f8487f</title>
<path fill="none" stroke="black" d="M2505,-652.19C2505,-644.72 2505,-635.77 2505,-627.31"/>
<polygon fill="black" stroke="black" points="2508.5,-627.41 2505,-617.41 2501.5,-627.41 2508.5,-627.41"/>
</g>
<!-- local:twodheg_effective_mass::older_dmc_enhancement_vs_revised_dmc_benchmarks -->
<g id="node43" class="node">
<title>local:twodheg_effective_mass::older_dmc_enhancement_vs_revised_dmc_benchmarks</title>
<polygon fill="#ddffdd" stroke="#44bb44" points="1135.12,-36 906.88,-36 906.88,0 1135.12,0 1135.12,-36"/>
<text xml:space="preserve" text-anchor="middle" x="1021" y="-21.25" font-family="Helvetica,sans-Serif" font-size="10.00">Older enhancement vs revised benchmarks</text>
<text xml:space="preserve" text-anchor="middle" x="1021" y="-8.5" font-family="Helvetica,sans-Serif" font-size="10.00">(0.84 → 1.00)</text>
</g>
<!-- local:twodheg_effective_mass::drummond2013_vs_azadi2025_paramagnetic_trend -->
<g id="node44" class="node">
<title>local:twodheg_effective_mass::drummond2013_vs_azadi2025_paramagnetic_trend</title>
<polygon fill="#ddffdd" stroke="#44bb44" points="772,-36 498,-36 498,0 772,0 772,-36"/>
<text xml:space="preserve" text-anchor="middle" x="635" y="-21.25" font-family="Helvetica,sans-Serif" font-size="10.00">2013 near&#45;unity benchmark vs 2025 increasing trend</text>
<text xml:space="preserve" text-anchor="middle" x="635" y="-8.5" font-family="Helvetica,sans-Serif" font-size="10.00">(0.86 → 0.99)</text>
</g>
<!-- strat_10&#45;&gt;local:twodheg_effective_mass::gcn_28b9e01bd2f8487f -->
<g id="edge26" class="edge">
<title>strat_10&#45;&gt;local:twodheg_effective_mass::gcn_28b9e01bd2f8487f</title>
<path fill="none" stroke="black" d="M2634,-658.14C2629.99,-656.26 2625.88,-654.32 2622,-652.5 2599.7,-642.04 2574.98,-630.51 2554.02,-620.77"/>
<polygon fill="black" stroke="black" points="2555.67,-617.67 2545.13,-616.63 2552.72,-624.02 2555.67,-617.67"/>
</g>
<!-- strat_11&#45;&gt;local:twodheg_effective_mass::gcn_28b9e01bd2f8487f -->
<g id="edge28" class="edge">
<title>strat_11&#45;&gt;local:twodheg_effective_mass::gcn_28b9e01bd2f8487f</title>
<path fill="none" stroke="black" d="M2003.54,-668.88C2088.4,-667.06 2314.91,-660.77 2388,-644.5 2411.91,-639.18 2437.31,-629.6 2458.31,-620.52"/>
<polygon fill="black" stroke="black" points="2459.44,-623.85 2467.16,-616.59 2456.6,-617.45 2459.44,-623.85"/>
</g>
<!-- strat_12&#45;&gt;local:twodheg_effective_mass::gcn_b7a7d456a05d4129 -->
<g id="edge30" class="edge">
<title>strat_12&#45;&gt;local:twodheg_effective_mass::gcn_b7a7d456a05d4129</title>
<path fill="none" stroke="black" d="M1093.64,-226.03C1051.86,-216.12 973.59,-197.55 912.8,-183.12"/>
<polygon fill="black" stroke="black" points="913.67,-179.73 903.13,-180.83 912.05,-186.54 913.67,-179.73"/>
</g>
<!-- strat_14&#45;&gt;local:twodheg_effective_mass::gcn_a981a2b787514e47 -->
<g id="edge34" class="edge">
<title>strat_14&#45;&gt;local:twodheg_effective_mass::gcn_a981a2b787514e47</title>
<path fill="none" stroke="black" d="M1567.13,-366.6C1562.84,-364.69 1558.35,-362.89 1554,-361.5 1497.61,-343.52 1433.36,-330.94 1378.34,-322.43"/>
<polygon fill="black" stroke="black" points="1379.02,-319 1368.6,-320.96 1377.97,-325.92 1379.02,-319"/>
</g>
<!-- oper_0&#45;&gt;local:twodheg_effective_mass::older_dmc_enhancement_vs_revised_dmc_benchmarks -->
<g id="edge43" class="edge">
<title>oper_0&#45;&gt;local:twodheg_effective_mass::older_dmc_enhancement_vs_revised_dmc_benchmarks</title>
<path fill="none" stroke="black" d="M1021,-71.7C1021,-60.85 1021,-46.92 1021,-36.1"/>
</g>
<!-- oper_1&#45;&gt;local:twodheg_effective_mass::drummond2013_vs_azadi2025_paramagnetic_trend -->
<g id="edge46" class="edge">
<title>oper_1&#45;&gt;local:twodheg_effective_mass::drummond2013_vs_azadi2025_paramagnetic_trend</title>
<path fill="none" stroke="black" d="M635,-71.7C635,-60.85 635,-46.92 635,-36.1"/>
</g>
</g>
</svg>
