<?xml version="1.0" encoding="UTF-8" standalone="no"?>
<!DOCTYPE svg PUBLIC "-//W3C//DTD SVG 1.1//EN"
 "http://www.w3.org/Graphics/SVG/1.1/DTD/svg11.dtd">
<!-- Generated by graphviz version 14.1.5 (20260411.2331)
 -->
<!-- Title: starmap Pages: 1 -->
<svg width="2542pt" height="822pt"
 viewBox="0.00 0.00 2542.00 822.00" xmlns="http://www.w3.org/2000/svg" xmlns:xlink="http://www.w3.org/1999/xlink">
<g id="graph0" class="graph" transform="scale(1 1) rotate(0) translate(4 818)">
<title>starmap</title>
<polygon fill="white" stroke="none" points="-4,4 -4,-818 2538,-818 2538,4 -4,4"/>
<g id="clust1" class="cluster">
<title>cluster_cross_paper</title>
<path fill="#fafafa" stroke="#999999" d="M1560,-8C1560,-8 1986,-8 1986,-8 1992,-8 1998,-14 1998,-20 1998,-20 1998,-69.5 1998,-69.5 1998,-75.5 1992,-81.5 1986,-81.5 1986,-81.5 1560,-81.5 1560,-81.5 1554,-81.5 1548,-75.5 1548,-69.5 1548,-69.5 1548,-20 1548,-20 1548,-14 1554,-8 1560,-8"/>
<text xml:space="preserve" text-anchor="middle" x="1773" y="-67.05" font-family="Times,serif" font-size="11.00">cross_paper</text>
</g>
<g id="clust2" class="cluster">
<title>cluster_paper_drummond2009_fermi_fluid</title>
<path fill="#fafafa" stroke="#999999" d="M20,-297.5C20,-297.5 750,-297.5 750,-297.5 756,-297.5 762,-303.5 762,-309.5 762,-309.5 762,-648.5 762,-648.5 762,-654.5 756,-660.5 750,-660.5 750,-660.5 20,-660.5 20,-660.5 14,-660.5 8,-654.5 8,-648.5 8,-648.5 8,-309.5 8,-309.5 8,-303.5 14,-297.5 20,-297.5"/>
<text xml:space="preserve" text-anchor="middle" x="385" y="-646.05" font-family="Times,serif" font-size="11.00">paper_drummond2009_fermi_fluid</text>
</g>
<g id="clust3" class="cluster">
<title>cluster_paper_drummond2012_effective_mass</title>
<path fill="#fafafa" stroke="#999999" d="M1446,-153.5C1446,-153.5 1928,-153.5 1928,-153.5 1934,-153.5 1940,-159.5 1940,-165.5 1940,-165.5 1940,-359 1940,-359 1940,-365 1934,-371 1928,-371 1928,-371 1446,-371 1446,-371 1440,-371 1434,-365 1434,-359 1434,-359 1434,-165.5 1434,-165.5 1434,-159.5 1440,-153.5 1446,-153.5"/>
<text xml:space="preserve" text-anchor="middle" x="1687" y="-356.55" font-family="Times,serif" font-size="11.00">paper_drummond2012_effective_mass</text>
</g>
<g id="clust4" class="cluster">
<title>cluster_paper_drummond2013_effective_mass</title>
<path fill="#fafafa" stroke="#999999" d="M854,-297.5C854,-297.5 1414,-297.5 1414,-297.5 1420,-297.5 1426,-303.5 1426,-309.5 1426,-309.5 1426,-794 1426,-794 1426,-800 1420,-806 1414,-806 1414,-806 854,-806 854,-806 848,-806 842,-800 842,-794 842,-794 842,-309.5 842,-309.5 842,-303.5 848,-297.5 854,-297.5"/>
<text xml:space="preserve" text-anchor="middle" x="1134" y="-791.55" font-family="Times,serif" font-size="11.00">paper_drummond2013_effective_mass</text>
</g>
<g id="clust5" class="cluster">
<title>cluster_paper_drummond2013_fermi_liquid</title>
<path fill="#fafafa" stroke="#999999" d="M1824,-587C1824,-587 2514,-587 2514,-587 2520,-587 2526,-593 2526,-599 2526,-599 2526,-794 2526,-794 2526,-800 2520,-806 2514,-806 2514,-806 1824,-806 1824,-806 1818,-806 1812,-800 1812,-794 1812,-794 1812,-599 1812,-599 1812,-593 1818,-587 1824,-587"/>
<text xml:space="preserve" text-anchor="middle" x="2169" y="-791.55" font-family="Times,serif" font-size="11.00">paper_drummond2013_fermi_liquid</text>
</g>
<g id="clust6" class="cluster">
<title>cluster_paper_holzmann2008</title>
<path fill="#fafafa" stroke="#999999" d="M1518,-587C1518,-587 1720,-587 1720,-587 1726,-587 1732,-593 1732,-599 1732,-599 1732,-794 1732,-794 1732,-800 1726,-806 1720,-806 1720,-806 1518,-806 1518,-806 1512,-806 1506,-800 1506,-794 1506,-794 1506,-599 1506,-599 1506,-593 1512,-587 1518,-587"/>
<text xml:space="preserve" text-anchor="middle" x="1619" y="-791.55" font-family="Times,serif" font-size="11.00">paper_holzmann2008</text>
</g>
<!-- local:twodheg_effective_mass::older_dmc_enhancement_vs_revised_dmc_benchmarks -->
<g id="node1" class="node">
<title>local:twodheg_effective_mass::older_dmc_enhancement_vs_revised_dmc_benchmarks</title>
<polygon fill="#ddffdd" stroke="#44bb44" points="1784.12,-52 1555.88,-52 1555.88,-16 1784.12,-16 1784.12,-52"/>
<text xml:space="preserve" text-anchor="middle" x="1670" y="-37.25" font-family="Helvetica,sans-Serif" font-size="10.00">Older enhancement vs revised benchmarks</text>
<text xml:space="preserve" text-anchor="middle" x="1670" y="-24.5" font-family="Helvetica,sans-Serif" font-size="10.00">(0.92 → 1.00)</text>
</g>
<!-- local:twodheg_effective_mass::n_quarter_scaling_vs_shell_filling_noise -->
<g id="node2" class="node">
<title>local:twodheg_effective_mass::n_quarter_scaling_vs_shell_filling_noise</title>
<polygon fill="#ddffdd" stroke="#44bb44" points="1990.25,-52 1801.75,-52 1801.75,-16 1990.25,-16 1990.25,-52"/>
<text xml:space="preserve" text-anchor="middle" x="1896" y="-37.25" font-family="Helvetica,sans-Serif" font-size="10.00">N^&#45;1/4 scaling vs shell&#45;filling noise</text>
<text xml:space="preserve" text-anchor="middle" x="1896" y="-24.5" font-family="Helvetica,sans-Serif" font-size="10.00">(0.90 → 1.00)</text>
</g>
<!-- local:twodheg_effective_mass::gcn_4d1aad1470d54895 -->
<g id="node3" class="node">
<title>local:twodheg_effective_mass::gcn_4d1aad1470d54895</title>
<polygon fill="#ddeeff" stroke="#4488bb" points="218,-631 16,-631 16,-595 218,-595 218,-631"/>
<text xml:space="preserve" text-anchor="middle" x="117" y="-616.25" font-family="Helvetica,sans-Serif" font-size="10.00">Earlier DMC mass&#45;enhancement trend</text>
<text xml:space="preserve" text-anchor="middle" x="117" y="-603.5" font-family="Helvetica,sans-Serif" font-size="10.00">(0.68 → 0.08)</text>
</g>
<!-- oper_0 -->
<g id="node42" class="node">
<title>oper_0</title>
<polygon fill="#ffebee" stroke="#c62828" points="1627.29,-107.5 1595.15,-125.5 1530.85,-125.5 1498.71,-107.5 1530.85,-89.5 1595.15,-89.5 1627.29,-107.5"/>
<text xml:space="preserve" text-anchor="middle" x="1563" y="-104.38" font-family="Helvetica,sans-Serif" font-size="10.00">⊗ contradiction</text>
</g>
<!-- local:twodheg_effective_mass::gcn_4d1aad1470d54895&#45;&gt;oper_0 -->
<g id="edge35" class="edge">
<title>local:twodheg_effective_mass::gcn_4d1aad1470d54895&#45;&gt;oper_0</title>
<path fill="none" stroke="black" d="M125.29,-594.51C137,-568.15 157,-516.36 157,-470 157,-470 157,-470 157,-250.5 157,-113.72 1223.88,-107.49 1498.93,-108.15"/>
</g>
<!-- local:twodheg_effective_mass::gcn_f6686a4225a043a6 -->
<g id="node4" class="node">
<title>local:twodheg_effective_mass::gcn_f6686a4225a043a6</title>
<polygon fill="#ddeeff" stroke="#4488bb" points="754.38,-631 521.62,-631 521.62,-595 754.38,-595 754.38,-631"/>
<text xml:space="preserve" text-anchor="middle" x="638" y="-616.25" font-family="Helvetica,sans-Serif" font-size="10.00">Quartic fit captures occupied&#45;band curvature</text>
<text xml:space="preserve" text-anchor="middle" x="638" y="-603.5" font-family="Helvetica,sans-Serif" font-size="10.00">(0.76 → 0.80)</text>
</g>
<!-- strat_6 -->
<g id="node9" class="node">
<title>strat_6</title>
<ellipse fill="#fff9c4" stroke="#f9a825" cx="623" cy="-541" rx="39.16" ry="18"/>
<text xml:space="preserve" text-anchor="middle" x="623" y="-537.88" font-family="Helvetica,sans-Serif" font-size="10.00">deduction</text>
</g>
<!-- local:twodheg_effective_mass::gcn_f6686a4225a043a6&#45;&gt;strat_6 -->
<g id="edge15" class="edge">
<title>local:twodheg_effective_mass::gcn_f6686a4225a043a6&#45;&gt;strat_6</title>
<path fill="none" stroke="black" d="M634.29,-594.7C632.71,-587.32 630.83,-578.52 629.05,-570.25"/>
<polygon fill="black" stroke="black" points="632.5,-569.63 626.98,-560.58 625.66,-571.1 632.5,-569.63"/>
</g>
<!-- local:twodheg_effective_mass::gcn_fd7adbfff0f146ba -->
<g id="node5" class="node">
<title>local:twodheg_effective_mass::gcn_fd7adbfff0f146ba</title>
<polygon fill="#ddeeff" stroke="#4488bb" points="504,-631 236,-631 236,-595 504,-595 504,-631"/>
<text xml:space="preserve" text-anchor="middle" x="370" y="-616.25" font-family="Helvetica,sans-Serif" font-size="10.00">Fixed&#45;node errors mostly cancel in band differences</text>
<text xml:space="preserve" text-anchor="middle" x="370" y="-603.5" font-family="Helvetica,sans-Serif" font-size="10.00">(0.70 → 0.75)</text>
</g>
<!-- local:twodheg_effective_mass::gcn_fd7adbfff0f146ba&#45;&gt;strat_6 -->
<g id="edge16" class="edge">
<title>local:twodheg_effective_mass::gcn_fd7adbfff0f146ba&#45;&gt;strat_6</title>
<path fill="none" stroke="black" d="M433.19,-594.52C478.58,-581.96 538.62,-565.35 578.91,-554.2"/>
<polygon fill="black" stroke="black" points="579.81,-557.58 588.52,-551.54 577.95,-550.83 579.81,-557.58"/>
</g>
<!-- local:twodheg_effective_mass::gcn_bf915935b1fd4326 -->
<g id="node6" class="node">
<title>local:twodheg_effective_mass::gcn_bf915935b1fd4326</title>
<polygon fill="#ddffdd" stroke="#44bb44" points="754.38,-487 491.62,-487 491.62,-451 754.38,-451 754.38,-487"/>
<text xml:space="preserve" text-anchor="middle" x="623" y="-472.25" font-family="Helvetica,sans-Serif" font-size="10.00">DMC occupied band shows nonquadratic curvature</text>
<text xml:space="preserve" text-anchor="middle" x="623" y="-459.5" font-family="Helvetica,sans-Serif" font-size="10.00">(0.87)</text>
</g>
<!-- strat_14 -->
<g id="node11" class="node">
<title>strat_14</title>
<ellipse fill="#fff9c4" stroke="#f9a825" cx="571" cy="-397" rx="32.28" ry="18"/>
<text xml:space="preserve" text-anchor="middle" x="571" y="-393.88" font-family="Helvetica,sans-Serif" font-size="10.00">support</text>
</g>
<!-- local:twodheg_effective_mass::gcn_bf915935b1fd4326&#45;&gt;strat_14 -->
<g id="edge33" class="edge">
<title>local:twodheg_effective_mass::gcn_bf915935b1fd4326&#45;&gt;strat_14</title>
<path fill="none" stroke="black" d="M610.15,-450.7C603.99,-442.4 596.49,-432.31 589.71,-423.19"/>
<polygon fill="black" stroke="black" points="592.67,-421.3 583.9,-415.36 587.05,-425.47 592.67,-421.3"/>
</g>
<!-- strat_13 -->
<g id="node41" class="node">
<title>strat_13</title>
<ellipse fill="#fff9c4" stroke="#f9a825" cx="802" cy="-397" rx="32.28" ry="18"/>
<text xml:space="preserve" text-anchor="middle" x="802" y="-393.88" font-family="Helvetica,sans-Serif" font-size="10.00">support</text>
</g>
<!-- local:twodheg_effective_mass::gcn_bf915935b1fd4326&#45;&gt;strat_13 -->
<g id="edge31" class="edge">
<title>local:twodheg_effective_mass::gcn_bf915935b1fd4326&#45;&gt;strat_13</title>
<path fill="none" stroke="black" d="M673.38,-450.53C700.96,-440.66 735.61,-427.78 766,-415 766.62,-414.74 767.24,-414.48 767.86,-414.21"/>
<polygon fill="black" stroke="black" points="769.03,-417.52 776.74,-410.25 766.18,-411.13 769.03,-417.52"/>
</g>
<!-- local:twodheg_effective_mass::gcn_888498a0614d40d7 -->
<g id="node7" class="node">
<title>local:twodheg_effective_mass::gcn_888498a0614d40d7</title>
<polygon fill="#ddeeff" stroke="#4488bb" points="473.62,-487 224.38,-487 224.38,-451 473.62,-451 473.62,-487"/>
<text xml:space="preserve" text-anchor="middle" x="349" y="-472.25" font-family="Helvetica,sans-Serif" font-size="10.00">Quartic term as leading nonquadratic correction</text>
<text xml:space="preserve" text-anchor="middle" x="349" y="-459.5" font-family="Helvetica,sans-Serif" font-size="10.00">(0.72 → 0.81)</text>
</g>
<!-- strat_7 -->
<g id="node10" class="node">
<title>strat_7</title>
<ellipse fill="#fff9c4" stroke="#f9a825" cx="401" cy="-397" rx="39.16" ry="18"/>
<text xml:space="preserve" text-anchor="middle" x="401" y="-393.88" font-family="Helvetica,sans-Serif" font-size="10.00">deduction</text>
</g>
<!-- local:twodheg_effective_mass::gcn_888498a0614d40d7&#45;&gt;strat_7 -->
<g id="edge18" class="edge">
<title>local:twodheg_effective_mass::gcn_888498a0614d40d7&#45;&gt;strat_7</title>
<path fill="none" stroke="black" d="M361.85,-450.7C368.01,-442.4 375.51,-432.31 382.29,-423.19"/>
<polygon fill="black" stroke="black" points="384.95,-425.47 388.1,-415.36 379.33,-421.3 384.95,-425.47"/>
</g>
<!-- local:twodheg_effective_mass::gcn_318b062f17344859 -->
<g id="node8" class="node">
<title>local:twodheg_effective_mass::gcn_318b062f17344859</title>
<polygon fill="#ddffdd" stroke="#44bb44" points="638.75,-341.5 333.25,-341.5 333.25,-305.5 638.75,-305.5 638.75,-341.5"/>
<text xml:space="preserve" text-anchor="middle" x="486" y="-326.75" font-family="Helvetica,sans-Serif" font-size="10.00">Nonquadratic DMC band curvature affects thermodynamics</text>
<text xml:space="preserve" text-anchor="middle" x="486" y="-314" font-family="Helvetica,sans-Serif" font-size="10.00">(0.96)</text>
</g>
<!-- strat_6&#45;&gt;local:twodheg_effective_mass::gcn_bf915935b1fd4326 -->
<g id="edge17" class="edge">
<title>strat_6&#45;&gt;local:twodheg_effective_mass::gcn_bf915935b1fd4326</title>
<path fill="none" stroke="black" d="M623,-522.7C623,-515.41 623,-506.73 623,-498.54"/>
<polygon fill="black" stroke="black" points="626.5,-498.62 623,-488.62 619.5,-498.62 626.5,-498.62"/>
</g>
<!-- strat_7&#45;&gt;local:twodheg_effective_mass::gcn_318b062f17344859 -->
<g id="edge19" class="edge">
<title>strat_7&#45;&gt;local:twodheg_effective_mass::gcn_318b062f17344859</title>
<path fill="none" stroke="black" d="M419.03,-380.84C429.93,-371.67 444.09,-359.75 456.58,-349.25"/>
<polygon fill="black" stroke="black" points="458.75,-352 464.15,-342.88 454.24,-346.64 458.75,-352"/>
</g>
<!-- strat_14&#45;&gt;local:twodheg_effective_mass::gcn_318b062f17344859 -->
<g id="edge34" class="edge">
<title>strat_14&#45;&gt;local:twodheg_effective_mass::gcn_318b062f17344859</title>
<path fill="none" stroke="black" d="M553.8,-381.53C542.76,-372.25 528.15,-359.95 515.31,-349.16"/>
<polygon fill="black" stroke="black" points="517.84,-346.71 507.94,-342.95 513.34,-352.07 517.84,-346.71"/>
</g>
<!-- local:twodheg_effective_mass::gcn_a685639571304474 -->
<g id="node12" class="node">
<title>local:twodheg_effective_mass::gcn_a685639571304474</title>
<polygon fill="#ddeeff" stroke="#4488bb" points="1668,-341.5 1442,-341.5 1442,-305.5 1668,-305.5 1668,-341.5"/>
<text xml:space="preserve" text-anchor="middle" x="1555" y="-326.75" font-family="Helvetica,sans-Serif" font-size="10.00">Monte Carlo resampling for m* uncertainty</text>
<text xml:space="preserve" text-anchor="middle" x="1555" y="-314" font-family="Helvetica,sans-Serif" font-size="10.00">(0.75 → 0.80)</text>
</g>
<!-- strat_8 -->
<g id="node15" class="node">
<title>strat_8</title>
<ellipse fill="#fff9c4" stroke="#f9a825" cx="1563" cy="-251.5" rx="39.16" ry="18"/>
<text xml:space="preserve" text-anchor="middle" x="1563" y="-248.38" font-family="Helvetica,sans-Serif" font-size="10.00">deduction</text>
</g>
<!-- local:twodheg_effective_mass::gcn_a685639571304474&#45;&gt;strat_8 -->
<g id="edge20" class="edge">
<title>local:twodheg_effective_mass::gcn_a685639571304474&#45;&gt;strat_8</title>
<path fill="none" stroke="black" d="M1556.98,-305.2C1557.81,-297.91 1558.8,-289.23 1559.74,-281.04"/>
<polygon fill="black" stroke="black" points="1563.22,-281.44 1560.87,-271.11 1556.26,-280.65 1563.22,-281.44"/>
</g>
<!-- local:twodheg_effective_mass::gcn_17c63b5dc2154f15 -->
<g id="node13" class="node">
<title>local:twodheg_effective_mass::gcn_17c63b5dc2154f15</title>
<polygon fill="#ddeeff" stroke="#4488bb" points="1931.75,-341.5 1686.25,-341.5 1686.25,-305.5 1931.75,-305.5 1931.75,-341.5"/>
<text xml:space="preserve" text-anchor="middle" x="1809" y="-326.75" font-family="Helvetica,sans-Serif" font-size="10.00">Residual fixed&#45;node/time&#45;step biases are small</text>
<text xml:space="preserve" text-anchor="middle" x="1809" y="-314" font-family="Helvetica,sans-Serif" font-size="10.00">(0.72 → 0.77)</text>
</g>
<!-- local:twodheg_effective_mass::gcn_17c63b5dc2154f15&#45;&gt;strat_8 -->
<g id="edge21" class="edge">
<title>local:twodheg_effective_mass::gcn_17c63b5dc2154f15&#45;&gt;strat_8</title>
<path fill="none" stroke="black" d="M1747.56,-305.02C1703.78,-292.56 1645.98,-276.11 1606.81,-264.97"/>
<polygon fill="black" stroke="black" points="1607.82,-261.62 1597.25,-262.25 1605.91,-268.35 1607.82,-261.62"/>
</g>
<!-- local:twodheg_effective_mass::gcn_b7a7d456a05d4129 -->
<g id="node14" class="node">
<title>local:twodheg_effective_mass::gcn_b7a7d456a05d4129</title>
<polygon fill="#ddffdd" stroke="#44bb44" points="1684.25,-197.5 1441.75,-197.5 1441.75,-161.5 1684.25,-161.5 1684.25,-197.5"/>
<text xml:space="preserve" text-anchor="middle" x="1563" y="-182.75" font-family="Helvetica,sans-Serif" font-size="10.00">Revised thermodynamic&#45;limit m* benchmarks</text>
<text xml:space="preserve" text-anchor="middle" x="1563" y="-170" font-family="Helvetica,sans-Serif" font-size="10.00">(0.89)</text>
</g>
<!-- local:twodheg_effective_mass::gcn_b7a7d456a05d4129&#45;&gt;oper_0 -->
<g id="edge36" class="edge">
<title>local:twodheg_effective_mass::gcn_b7a7d456a05d4129&#45;&gt;oper_0</title>
<path fill="none" stroke="black" d="M1563,-161.2C1563,-150.35 1563,-136.42 1563,-125.6"/>
</g>
<!-- strat_8&#45;&gt;local:twodheg_effective_mass::gcn_b7a7d456a05d4129 -->
<g id="edge22" class="edge">
<title>strat_8&#45;&gt;local:twodheg_effective_mass::gcn_b7a7d456a05d4129</title>
<path fill="none" stroke="black" d="M1563,-233.2C1563,-225.91 1563,-217.23 1563,-209.04"/>
<polygon fill="black" stroke="black" points="1566.5,-209.12 1563,-199.12 1559.5,-209.12 1566.5,-209.12"/>
</g>
<!-- local:twodheg_effective_mass::gcn_850fc9d9de314026 -->
<g id="node16" class="node">
<title>local:twodheg_effective_mass::gcn_850fc9d9de314026</title>
<polygon fill="#ddeeff" stroke="#4488bb" points="1417.5,-776.5 1188.5,-776.5 1188.5,-740.5 1417.5,-740.5 1417.5,-776.5"/>
<text xml:space="preserve" text-anchor="middle" x="1303" y="-761.75" font-family="Helvetica,sans-Serif" font-size="10.00">Excited&#45;state reoptimization finite&#45;size bias</text>
<text xml:space="preserve" text-anchor="middle" x="1303" y="-749" font-family="Helvetica,sans-Serif" font-size="10.00">(0.76 → 0.84)</text>
</g>
<!-- strat_3 -->
<g id="node24" class="node">
<title>strat_3</title>
<ellipse fill="#fff9c4" stroke="#f9a825" cx="1303" cy="-686.5" rx="39.16" ry="18"/>
<text xml:space="preserve" text-anchor="middle" x="1303" y="-683.38" font-family="Helvetica,sans-Serif" font-size="10.00">deduction</text>
</g>
<!-- local:twodheg_effective_mass::gcn_850fc9d9de314026&#45;&gt;strat_3 -->
<g id="edge7" class="edge">
<title>local:twodheg_effective_mass::gcn_850fc9d9de314026&#45;&gt;strat_3</title>
<path fill="none" stroke="black" d="M1303,-740.2C1303,-732.91 1303,-724.23 1303,-716.04"/>
<polygon fill="black" stroke="black" points="1306.5,-716.12 1303,-706.12 1299.5,-716.12 1306.5,-716.12"/>
</g>
<!-- strat_10 -->
<g id="node39" class="node">
<title>strat_10</title>
<ellipse fill="#fff9c4" stroke="#f9a825" cx="1466" cy="-686.5" rx="32.28" ry="18"/>
<text xml:space="preserve" text-anchor="middle" x="1466" y="-683.38" font-family="Helvetica,sans-Serif" font-size="10.00">support</text>
</g>
<!-- local:twodheg_effective_mass::gcn_850fc9d9de314026&#45;&gt;strat_10 -->
<g id="edge25" class="edge">
<title>local:twodheg_effective_mass::gcn_850fc9d9de314026&#45;&gt;strat_10</title>
<path fill="none" stroke="black" d="M1346.12,-740.08C1370.8,-729.96 1402.27,-716.82 1430,-704.5 1430.61,-704.23 1431.23,-703.95 1431.85,-703.67"/>
<polygon fill="black" stroke="black" points="1433.05,-706.97 1440.68,-699.62 1430.13,-700.61 1433.05,-706.97"/>
</g>
<!-- local:twodheg_effective_mass::gcn_c7b10e47e2ab45e1 -->
<g id="node17" class="node">
<title>local:twodheg_effective_mass::gcn_c7b10e47e2ab45e1</title>
<polygon fill="#ddffdd" stroke="#44bb44" points="1417.5,-631 1188.5,-631 1188.5,-595 1417.5,-595 1417.5,-631"/>
<text xml:space="preserve" text-anchor="middle" x="1303" y="-616.25" font-family="Helvetica,sans-Serif" font-size="10.00">Quantified reoptimization bias in finite cells</text>
<text xml:space="preserve" text-anchor="middle" x="1303" y="-603.5" font-family="Helvetica,sans-Serif" font-size="10.00">(0.90)</text>
</g>
<!-- local:twodheg_effective_mass::gcn_48797cba2bf44d90 -->
<g id="node18" class="node">
<title>local:twodheg_effective_mass::gcn_48797cba2bf44d90</title>
<polygon fill="#ddeeff" stroke="#4488bb" points="1218.62,-487 1053.38,-487 1053.38,-451 1218.62,-451 1218.62,-487"/>
<text xml:space="preserve" text-anchor="middle" x="1136" y="-472.25" font-family="Helvetica,sans-Serif" font-size="10.00">Quartic band derivative for m*</text>
<text xml:space="preserve" text-anchor="middle" x="1136" y="-459.5" font-family="Helvetica,sans-Serif" font-size="10.00">(0.78 → 0.83)</text>
</g>
<!-- strat_4 -->
<g id="node25" class="node">
<title>strat_4</title>
<ellipse fill="#fff9c4" stroke="#f9a825" cx="1136" cy="-397" rx="39.16" ry="18"/>
<text xml:space="preserve" text-anchor="middle" x="1136" y="-393.88" font-family="Helvetica,sans-Serif" font-size="10.00">deduction</text>
</g>
<!-- local:twodheg_effective_mass::gcn_48797cba2bf44d90&#45;&gt;strat_4 -->
<g id="edge9" class="edge">
<title>local:twodheg_effective_mass::gcn_48797cba2bf44d90&#45;&gt;strat_4</title>
<path fill="none" stroke="black" d="M1136,-450.7C1136,-443.41 1136,-434.73 1136,-426.54"/>
<polygon fill="black" stroke="black" points="1139.5,-426.62 1136,-416.62 1132.5,-426.62 1139.5,-426.62"/>
</g>
<!-- local:twodheg_effective_mass::gcn_1e8fcb7ef934428d -->
<g id="node19" class="node">
<title>local:twodheg_effective_mass::gcn_1e8fcb7ef934428d</title>
<polygon fill="#ddeeff" stroke="#4488bb" points="1417.5,-487 1236.5,-487 1236.5,-451 1417.5,-451 1417.5,-487"/>
<text xml:space="preserve" text-anchor="middle" x="1327" y="-472.25" font-family="Helvetica,sans-Serif" font-size="10.00">Power&#45;law extrapolation of m*(N)</text>
<text xml:space="preserve" text-anchor="middle" x="1327" y="-459.5" font-family="Helvetica,sans-Serif" font-size="10.00">(0.75 → 0.81)</text>
</g>
<!-- local:twodheg_effective_mass::gcn_1e8fcb7ef934428d&#45;&gt;strat_4 -->
<g id="edge10" class="edge">
<title>local:twodheg_effective_mass::gcn_1e8fcb7ef934428d&#45;&gt;strat_4</title>
<path fill="none" stroke="black" d="M1279.3,-450.52C1247.61,-438.9 1206.46,-423.82 1176.39,-412.8"/>
<polygon fill="black" stroke="black" points="1177.87,-409.62 1167.28,-409.46 1175.46,-416.19 1177.87,-409.62"/>
</g>
<!-- local:twodheg_effective_mass::gcn_50e263dc961541e0 -->
<g id="node20" class="node">
<title>local:twodheg_effective_mass::gcn_50e263dc961541e0</title>
<polygon fill="#ddffdd" stroke="#44bb44" points="1035.75,-487 850.25,-487 850.25,-451 1035.75,-451 1035.75,-487"/>
<text xml:space="preserve" text-anchor="middle" x="943" y="-472.25" font-family="Helvetica,sans-Serif" font-size="10.00">Wide k&#45;window stabilizes band fits</text>
<text xml:space="preserve" text-anchor="middle" x="943" y="-459.5" font-family="Helvetica,sans-Serif" font-size="10.00">(0.76 → 0.97)</text>
</g>
<!-- local:twodheg_effective_mass::gcn_50e263dc961541e0&#45;&gt;strat_4 -->
<g id="edge11" class="edge">
<title>local:twodheg_effective_mass::gcn_50e263dc961541e0&#45;&gt;strat_4</title>
<path fill="none" stroke="black" d="M991.2,-450.52C1023.22,-438.9 1064.8,-423.82 1095.18,-412.8"/>
<polygon fill="black" stroke="black" points="1096.2,-416.16 1104.41,-409.46 1093.82,-409.58 1096.2,-416.16"/>
</g>
<!-- local:twodheg_effective_mass::gcn_a981a2b787514e47 -->
<g id="node21" class="node">
<title>local:twodheg_effective_mass::gcn_a981a2b787514e47</title>
<polygon fill="#ddffdd" stroke="#44bb44" points="1254.62,-341.5 1017.38,-341.5 1017.38,-305.5 1254.62,-305.5 1254.62,-341.5"/>
<text xml:space="preserve" text-anchor="middle" x="1136" y="-326.75" font-family="Helvetica,sans-Serif" font-size="10.00">DMC band&#45;fit protocol for thermodynamic m*</text>
<text xml:space="preserve" text-anchor="middle" x="1136" y="-314" font-family="Helvetica,sans-Serif" font-size="10.00">(0.93)</text>
</g>
<!-- strat_11 -->
<g id="node40" class="node">
<title>strat_11</title>
<ellipse fill="#fff9c4" stroke="#f9a825" cx="1265" cy="-251.5" rx="32.28" ry="18"/>
<text xml:space="preserve" text-anchor="middle" x="1265" y="-248.38" font-family="Helvetica,sans-Serif" font-size="10.00">support</text>
</g>
<!-- local:twodheg_effective_mass::gcn_a981a2b787514e47&#45;&gt;strat_11 -->
<g id="edge27" class="edge">
<title>local:twodheg_effective_mass::gcn_a981a2b787514e47&#45;&gt;strat_11</title>
<path fill="none" stroke="black" d="M1168.22,-305.02C1187.83,-294.38 1212.8,-280.82 1232.47,-270.15"/>
<polygon fill="black" stroke="black" points="1234.05,-273.28 1241.17,-265.43 1230.71,-267.13 1234.05,-273.28"/>
</g>
<!-- local:twodheg_effective_mass::gcn_f6ca85b75deb46ba -->
<g id="node22" class="node">
<title>local:twodheg_effective_mass::gcn_f6ca85b75deb46ba</title>
<polygon fill="#ddeeff" stroke="#4488bb" points="1111.25,-776.5 856.75,-776.5 856.75,-740.5 1111.25,-740.5 1111.25,-776.5"/>
<text xml:space="preserve" text-anchor="middle" x="984" y="-761.75" font-family="Helvetica,sans-Serif" font-size="10.00">HF pathology plus finite&#45;cell correlation recovery</text>
<text xml:space="preserve" text-anchor="middle" x="984" y="-749" font-family="Helvetica,sans-Serif" font-size="10.00">(0.74 → 0.77)</text>
</g>
<!-- strat_5 -->
<g id="node26" class="node">
<title>strat_5</title>
<ellipse fill="#fff9c4" stroke="#f9a825" cx="984" cy="-686.5" rx="39.16" ry="18"/>
<text xml:space="preserve" text-anchor="middle" x="984" y="-683.38" font-family="Helvetica,sans-Serif" font-size="10.00">deduction</text>
</g>
<!-- local:twodheg_effective_mass::gcn_f6ca85b75deb46ba&#45;&gt;strat_5 -->
<g id="edge13" class="edge">
<title>local:twodheg_effective_mass::gcn_f6ca85b75deb46ba&#45;&gt;strat_5</title>
<path fill="none" stroke="black" d="M984,-740.2C984,-732.91 984,-724.23 984,-716.04"/>
<polygon fill="black" stroke="black" points="987.5,-716.12 984,-706.12 980.5,-716.12 987.5,-716.12"/>
</g>
<!-- local:twodheg_effective_mass::gcn_8df2cd5b49524aac -->
<g id="node23" class="node">
<title>local:twodheg_effective_mass::gcn_8df2cd5b49524aac</title>
<polygon fill="#ddffdd" stroke="#44bb44" points="1118.38,-631 849.62,-631 849.62,-595 1118.38,-595 1118.38,-631"/>
<text xml:space="preserve" text-anchor="middle" x="984" y="-616.25" font-family="Helvetica,sans-Serif" font-size="10.00">Near&#45;k_F derivative pathologies require band fitting</text>
<text xml:space="preserve" text-anchor="middle" x="984" y="-603.5" font-family="Helvetica,sans-Serif" font-size="10.00">(0.90)</text>
</g>
<!-- strat_12 -->
<g id="node27" class="node">
<title>strat_12</title>
<ellipse fill="#fff9c4" stroke="#f9a825" cx="963" cy="-541" rx="32.28" ry="18"/>
<text xml:space="preserve" text-anchor="middle" x="963" y="-537.88" font-family="Helvetica,sans-Serif" font-size="10.00">support</text>
</g>
<!-- local:twodheg_effective_mass::gcn_8df2cd5b49524aac&#45;&gt;strat_12 -->
<g id="edge29" class="edge">
<title>local:twodheg_effective_mass::gcn_8df2cd5b49524aac&#45;&gt;strat_12</title>
<path fill="none" stroke="black" d="M978.81,-594.7C976.57,-587.24 973.9,-578.32 971.39,-569.97"/>
<polygon fill="black" stroke="black" points="974.79,-569.13 968.57,-560.55 968.09,-571.14 974.79,-569.13"/>
</g>
<!-- strat_3&#45;&gt;local:twodheg_effective_mass::gcn_c7b10e47e2ab45e1 -->
<g id="edge8" class="edge">
<title>strat_3&#45;&gt;local:twodheg_effective_mass::gcn_c7b10e47e2ab45e1</title>
<path fill="none" stroke="black" d="M1303,-668.19C1303,-660.52 1303,-651.29 1303,-642.64"/>
<polygon fill="black" stroke="black" points="1306.5,-642.91 1303,-632.91 1299.5,-642.91 1306.5,-642.91"/>
</g>
<!-- strat_4&#45;&gt;local:twodheg_effective_mass::gcn_a981a2b787514e47 -->
<g id="edge12" class="edge">
<title>strat_4&#45;&gt;local:twodheg_effective_mass::gcn_a981a2b787514e47</title>
<path fill="none" stroke="black" d="M1136,-378.69C1136,-371.02 1136,-361.79 1136,-353.14"/>
<polygon fill="black" stroke="black" points="1139.5,-353.41 1136,-343.41 1132.5,-353.41 1139.5,-353.41"/>
</g>
<!-- strat_5&#45;&gt;local:twodheg_effective_mass::gcn_8df2cd5b49524aac -->
<g id="edge14" class="edge">
<title>strat_5&#45;&gt;local:twodheg_effective_mass::gcn_8df2cd5b49524aac</title>
<path fill="none" stroke="black" d="M984,-668.19C984,-660.52 984,-651.29 984,-642.64"/>
<polygon fill="black" stroke="black" points="987.5,-642.91 984,-632.91 980.5,-642.91 987.5,-642.91"/>
</g>
<!-- strat_12&#45;&gt;local:twodheg_effective_mass::gcn_50e263dc961541e0 -->
<g id="edge30" class="edge">
<title>strat_12&#45;&gt;local:twodheg_effective_mass::gcn_50e263dc961541e0</title>
<path fill="none" stroke="black" d="M958.16,-523.05C956.03,-515.6 953.47,-506.64 951.06,-498.22"/>
<polygon fill="black" stroke="black" points="954.46,-497.38 948.35,-488.73 947.73,-499.31 954.46,-497.38"/>
</g>
<!-- local:twodheg_effective_mass::gcn_219b34bd252c43fa -->
<g id="node28" class="node">
<title>local:twodheg_effective_mass::gcn_219b34bd252c43fa</title>
<polygon fill="#ddeeff" stroke="#4488bb" points="2073.5,-776.5 1820.5,-776.5 1820.5,-740.5 2073.5,-740.5 2073.5,-776.5"/>
<text xml:space="preserve" text-anchor="middle" x="1947" y="-761.75" font-family="Helvetica,sans-Serif" font-size="10.00">N^&#45;1/4 finite&#45;size scaling for Landau parameters</text>
<text xml:space="preserve" text-anchor="middle" x="1947" y="-749" font-family="Helvetica,sans-Serif" font-size="10.00">(0.78 → 0.45)</text>
</g>
<!-- strat_9 -->
<g id="node38" class="node">
<title>strat_9</title>
<ellipse fill="#fff9c4" stroke="#f9a825" cx="1772" cy="-686.5" rx="32.28" ry="18"/>
<text xml:space="preserve" text-anchor="middle" x="1772" y="-683.38" font-family="Helvetica,sans-Serif" font-size="10.00">support</text>
</g>
<!-- local:twodheg_effective_mass::gcn_219b34bd252c43fa&#45;&gt;strat_9 -->
<g id="edge23" class="edge">
<title>local:twodheg_effective_mass::gcn_219b34bd252c43fa&#45;&gt;strat_9</title>
<path fill="none" stroke="black" d="M1898.39,-740.01C1871.54,-730.09 1837.7,-717.15 1808,-704.5 1807.38,-704.24 1806.76,-703.97 1806.14,-703.7"/>
<polygon fill="black" stroke="black" points="1807.83,-700.62 1797.28,-699.72 1804.96,-707.01 1807.83,-700.62"/>
</g>
<!-- oper_1 -->
<g id="node43" class="node">
<title>oper_1</title>
<polygon fill="#ffebee" stroke="#c62828" points="2150.29,-541 2118.15,-559 2053.85,-559 2021.71,-541 2053.85,-523 2118.15,-523 2150.29,-541"/>
<text xml:space="preserve" text-anchor="middle" x="2086" y="-537.88" font-family="Helvetica,sans-Serif" font-size="10.00">⊗ contradiction</text>
</g>
<!-- local:twodheg_effective_mass::gcn_219b34bd252c43fa&#45;&gt;oper_1 -->
<g id="edge38" class="edge">
<title>local:twodheg_effective_mass::gcn_219b34bd252c43fa&#45;&gt;oper_1</title>
<path fill="none" stroke="black" d="M2073.68,-741.58C2076.82,-741.21 2079.93,-740.85 2083,-740.5 2235.72,-722.97 2284.05,-761.04 2427,-704.5 2457.09,-692.6 2470.61,-689.48 2485,-660.5 2499.53,-631.24 2506.77,-611.36 2485,-587 2462.76,-562.11 2250.52,-549.28 2144.99,-544.39"/>
</g>
<!-- local:twodheg_effective_mass::gcn_3ceb44ae3f404964 -->
<g id="node29" class="node">
<title>local:twodheg_effective_mass::gcn_3ceb44ae3f404964</title>
<polygon fill="#ddeeff" stroke="#4488bb" points="2280.25,-776.5 2091.75,-776.5 2091.75,-740.5 2280.25,-740.5 2280.25,-776.5"/>
<text xml:space="preserve" text-anchor="middle" x="2186" y="-761.75" font-family="Helvetica,sans-Serif" font-size="10.00">Theoretical N^&#45;1/4 scaling premise</text>
<text xml:space="preserve" text-anchor="middle" x="2186" y="-749" font-family="Helvetica,sans-Serif" font-size="10.00">(0.78 → 0.50)</text>
</g>
<!-- strat_1 -->
<g id="node33" class="node">
<title>strat_1</title>
<ellipse fill="#fff9c4" stroke="#f9a825" cx="2136" cy="-686.5" rx="39.16" ry="18"/>
<text xml:space="preserve" text-anchor="middle" x="2136" y="-683.38" font-family="Helvetica,sans-Serif" font-size="10.00">deduction</text>
</g>
<!-- local:twodheg_effective_mass::gcn_3ceb44ae3f404964&#45;&gt;strat_1 -->
<g id="edge3" class="edge">
<title>local:twodheg_effective_mass::gcn_3ceb44ae3f404964&#45;&gt;strat_1</title>
<path fill="none" stroke="black" d="M2173.64,-740.2C2167.86,-732.11 2160.87,-722.31 2154.48,-713.37"/>
<polygon fill="black" stroke="black" points="2157.41,-711.46 2148.75,-705.35 2151.72,-715.53 2157.41,-711.46"/>
</g>
<!-- local:twodheg_effective_mass::gcn_3db07703d3684507 -->
<g id="node30" class="node">
<title>local:twodheg_effective_mass::gcn_3db07703d3684507</title>
<polygon fill="#ddffdd" stroke="#44bb44" points="2207.62,-631 1964.38,-631 1964.38,-595 2207.62,-595 2207.62,-631"/>
<text xml:space="preserve" text-anchor="middle" x="2086" y="-616.25" font-family="Helvetica,sans-Serif" font-size="10.00">Shell noise undermines direct FL extrapolation</text>
<text xml:space="preserve" text-anchor="middle" x="2086" y="-603.5" font-family="Helvetica,sans-Serif" font-size="10.00">(0.48)</text>
</g>
<!-- local:twodheg_effective_mass::gcn_3db07703d3684507&#45;&gt;oper_1 -->
<g id="edge39" class="edge">
<title>local:twodheg_effective_mass::gcn_3db07703d3684507&#45;&gt;oper_1</title>
<path fill="none" stroke="black" d="M2086,-594.7C2086,-583.85 2086,-569.92 2086,-559.1"/>
</g>
<!-- local:twodheg_effective_mass::gcn_836bae7457044c7a -->
<g id="node31" class="node">
<title>local:twodheg_effective_mass::gcn_836bae7457044c7a</title>
<polygon fill="#ddeeff" stroke="#4488bb" points="2517.62,-776.5 2298.38,-776.5 2298.38,-740.5 2517.62,-740.5 2517.62,-776.5"/>
<text xml:space="preserve" text-anchor="middle" x="2408" y="-761.75" font-family="Helvetica,sans-Serif" font-size="10.00">Assembling best&#45;available FL parameters</text>
<text xml:space="preserve" text-anchor="middle" x="2408" y="-749" font-family="Helvetica,sans-Serif" font-size="10.00">(0.74 → 0.74)</text>
</g>
<!-- strat_2 -->
<g id="node34" class="node">
<title>strat_2</title>
<ellipse fill="#fff9c4" stroke="#f9a825" cx="2379" cy="-686.5" rx="39.16" ry="18"/>
<text xml:space="preserve" text-anchor="middle" x="2379" y="-683.38" font-family="Helvetica,sans-Serif" font-size="10.00">deduction</text>
</g>
<!-- local:twodheg_effective_mass::gcn_836bae7457044c7a&#45;&gt;strat_2 -->
<g id="edge5" class="edge">
<title>local:twodheg_effective_mass::gcn_836bae7457044c7a&#45;&gt;strat_2</title>
<path fill="none" stroke="black" d="M2400.83,-740.2C2397.71,-732.65 2393.96,-723.62 2390.47,-715.18"/>
<polygon fill="black" stroke="black" points="2393.73,-713.9 2386.67,-706 2387.26,-716.58 2393.73,-713.9"/>
</g>
<!-- local:twodheg_effective_mass::gcn_306f15c9d5814e23 -->
<g id="node32" class="node">
<title>local:twodheg_effective_mass::gcn_306f15c9d5814e23</title>
<polygon fill="#ddffdd" stroke="#44bb44" points="2476.38,-631 2225.62,-631 2225.62,-595 2476.38,-595 2476.38,-631"/>
<text xml:space="preserve" text-anchor="middle" x="2351" y="-616.25" font-family="Helvetica,sans-Serif" font-size="10.00">Recommended 2D HEG Fermi&#45;liquid parameters</text>
<text xml:space="preserve" text-anchor="middle" x="2351" y="-603.5" font-family="Helvetica,sans-Serif" font-size="10.00">(0.85)</text>
</g>
<!-- strat_1&#45;&gt;local:twodheg_effective_mass::gcn_3db07703d3684507 -->
<g id="edge4" class="edge">
<title>strat_1&#45;&gt;local:twodheg_effective_mass::gcn_3db07703d3684507</title>
<path fill="none" stroke="black" d="M2124.4,-668.92C2118.58,-660.59 2111.38,-650.29 2104.79,-640.87"/>
<polygon fill="black" stroke="black" points="2107.7,-638.92 2099.1,-632.73 2101.96,-642.93 2107.7,-638.92"/>
</g>
<!-- strat_2&#45;&gt;local:twodheg_effective_mass::gcn_306f15c9d5814e23 -->
<g id="edge6" class="edge">
<title>strat_2&#45;&gt;local:twodheg_effective_mass::gcn_306f15c9d5814e23</title>
<path fill="none" stroke="black" d="M2372.36,-668.56C2369.24,-660.57 2365.42,-650.83 2361.89,-641.81"/>
<polygon fill="black" stroke="black" points="2365.24,-640.76 2358.33,-632.73 2358.72,-643.32 2365.24,-640.76"/>
</g>
<!-- local:twodheg_effective_mass::gcn_da3eecec49114543 -->
<g id="node35" class="node">
<title>local:twodheg_effective_mass::gcn_da3eecec49114543</title>
<polygon fill="#ddeeff" stroke="#4488bb" points="1714.75,-776.5 1523.25,-776.5 1523.25,-740.5 1714.75,-740.5 1714.75,-776.5"/>
<text xml:space="preserve" text-anchor="middle" x="1619" y="-761.75" font-family="Helvetica,sans-Serif" font-size="10.00">Finite&#45;size kinetic&#45;energy correction</text>
<text xml:space="preserve" text-anchor="middle" x="1619" y="-749" font-family="Helvetica,sans-Serif" font-size="10.00">(0.82 → 0.89)</text>
</g>
<!-- strat_0 -->
<g id="node37" class="node">
<title>strat_0</title>
<ellipse fill="#fff9c4" stroke="#f9a825" cx="1619" cy="-686.5" rx="39.16" ry="18"/>
<text xml:space="preserve" text-anchor="middle" x="1619" y="-683.38" font-family="Helvetica,sans-Serif" font-size="10.00">deduction</text>
</g>
<!-- local:twodheg_effective_mass::gcn_da3eecec49114543&#45;&gt;strat_0 -->
<g id="edge1" class="edge">
<title>local:twodheg_effective_mass::gcn_da3eecec49114543&#45;&gt;strat_0</title>
<path fill="none" stroke="black" d="M1619,-740.2C1619,-732.91 1619,-724.23 1619,-716.04"/>
<polygon fill="black" stroke="black" points="1622.5,-716.12 1619,-706.12 1615.5,-716.12 1622.5,-716.12"/>
</g>
<!-- local:twodheg_effective_mass::gcn_28b9e01bd2f8487f -->
<g id="node36" class="node">
<title>local:twodheg_effective_mass::gcn_28b9e01bd2f8487f</title>
<polygon fill="#d4edda" stroke="#28a745" stroke-width="2" points="1723.75,-631 1514.25,-631 1514.25,-595 1723.75,-595 1723.75,-631"/>
<text xml:space="preserve" text-anchor="middle" x="1619" y="-616.25" font-family="Helvetica,sans-Serif" font-size="10.00">★ Slow finite&#45;size errors can flip m* &#45; m</text>
<text xml:space="preserve" text-anchor="middle" x="1619" y="-603.5" font-family="Helvetica,sans-Serif" font-size="10.00">(0.98)</text>
</g>
<!-- strat_0&#45;&gt;local:twodheg_effective_mass::gcn_28b9e01bd2f8487f -->
<g id="edge2" class="edge">
<title>strat_0&#45;&gt;local:twodheg_effective_mass::gcn_28b9e01bd2f8487f</title>
<path fill="none" stroke="black" d="M1619,-668.19C1619,-660.72 1619,-651.77 1619,-643.31"/>
<polygon fill="black" stroke="black" points="1622.5,-643.41 1619,-633.41 1615.5,-643.41 1622.5,-643.41"/>
</g>
<!-- strat_9&#45;&gt;local:twodheg_effective_mass::gcn_28b9e01bd2f8487f -->
<g id="edge24" class="edge">
<title>strat_9&#45;&gt;local:twodheg_effective_mass::gcn_28b9e01bd2f8487f</title>
<path fill="none" stroke="black" d="M1748,-674.14C1743.99,-672.26 1739.88,-670.32 1736,-668.5 1713.7,-658.04 1688.98,-646.51 1668.02,-636.77"/>
<polygon fill="black" stroke="black" points="1669.67,-633.67 1659.13,-632.63 1666.72,-640.02 1669.67,-633.67"/>
</g>
<!-- strat_10&#45;&gt;local:twodheg_effective_mass::gcn_28b9e01bd2f8487f -->
<g id="edge26" class="edge">
<title>strat_10&#45;&gt;local:twodheg_effective_mass::gcn_28b9e01bd2f8487f</title>
<path fill="none" stroke="black" d="M1490,-674.14C1494.01,-672.26 1498.12,-670.32 1502,-668.5 1524.3,-658.04 1549.02,-646.51 1569.98,-636.77"/>
<polygon fill="black" stroke="black" points="1571.28,-640.02 1578.87,-632.63 1568.33,-633.67 1571.28,-640.02"/>
</g>
<!-- strat_11&#45;&gt;local:twodheg_effective_mass::gcn_b7a7d456a05d4129 -->
<g id="edge28" class="edge">
<title>strat_11&#45;&gt;local:twodheg_effective_mass::gcn_b7a7d456a05d4129</title>
<path fill="none" stroke="black" d="M1294.39,-243.6C1336.64,-233.67 1416.23,-214.98 1477.85,-200.5"/>
<polygon fill="black" stroke="black" points="1478.34,-203.98 1487.27,-198.29 1476.74,-197.17 1478.34,-203.98"/>
</g>
<!-- strat_13&#45;&gt;local:twodheg_effective_mass::gcn_a981a2b787514e47 -->
<g id="edge32" class="edge">
<title>strat_13&#45;&gt;local:twodheg_effective_mass::gcn_a981a2b787514e47</title>
<path fill="none" stroke="black" d="M824.88,-384.11C829.16,-382.2 833.66,-380.4 838,-379 891.87,-361.68 953.1,-349.29 1005.99,-340.75"/>
<polygon fill="black" stroke="black" points="1006.32,-344.24 1015.65,-339.22 1005.22,-337.33 1006.32,-344.24"/>
</g>
<!-- oper_0&#45;&gt;local:twodheg_effective_mass::older_dmc_enhancement_vs_revised_dmc_benchmarks -->
<g id="edge37" class="edge">
<title>oper_0&#45;&gt;local:twodheg_effective_mass::older_dmc_enhancement_vs_revised_dmc_benchmarks</title>
<path fill="none" stroke="black" d="M1589.18,-89.01C1605.88,-77.85 1627.44,-63.44 1644.1,-52.31"/>
</g>
<!-- oper_1&#45;&gt;local:twodheg_effective_mass::n_quarter_scaling_vs_shell_filling_noise -->
<g id="edge40" class="edge">
<title>oper_1&#45;&gt;local:twodheg_effective_mass::n_quarter_scaling_vs_shell_filling_noise</title>
<path fill="none" stroke="black" d="M2067.36,-522.69C2042.61,-497.72 2002,-448.98 2002,-398 2002,-398 2002,-398 2002,-178.5 2002,-123.99 1951.9,-76.6 1920.58,-52.31"/>
</g>
</g>
</svg>
